<?xml version="1.0" encoding="iso-8859-1"?>
<!-- Generator: Adobe Illustrator 26.0.3, SVG Export Plug-In . SVG Version: 6.00 Build 0)  -->
<svg version="1.1" id="Layer_1" xmlns="http://www.w3.org/2000/svg" xmlns:xlink="http://www.w3.org/1999/xlink" x="0px" y="0px"
	 viewBox="0 0 48 48" style="enable-background:new 0 0 48 48;" xml:space="preserve">
<linearGradient id="SVGID_1_" gradientUnits="userSpaceOnUse" x1="10.3028" y1="6.4898" x2="44.5155" y2="43.1707">
	<stop  offset="0" style="stop-color:#FEDE00"/>
	<stop  offset="0.519" style="stop-color:#FECC00"/>
	<stop  offset="1" style="stop-color:#FFB700"/>
</linearGradient>
<path style="fill:url(#SVGID_1_);" d="M23.775,3.938c15.983,11.323,17.032,23.859,11.414,29.297
	c-4.364,4.224-12.664,3.341-21.242-1.62L12.461,33.1c0.617,0.849,1.291,1.673,2.062,2.443c7.276,7.276,18.466,7.882,24.995,1.354
	s6.234-18.044-1.354-24.995C32.615,6.82,26.628,4.885,23.775,3.938z"/>
<linearGradient id="SVGID_00000097496674148886103410000004140810919286160568_" gradientUnits="userSpaceOnUse" x1="8.4411" y1="8.2263" x2="42.6538" y2="44.9071">
	<stop  offset="0" style="stop-color:#FEDE00"/>
	<stop  offset="0.519" style="stop-color:#FECC00"/>
	<stop  offset="1" style="stop-color:#FFB700"/>
</linearGradient>
<path style="fill:url(#SVGID_00000097496674148886103410000004140810919286160568_);" d="M27.238,13.629l-14.02,14.02l-6.26-6.26
	l9.777-9.777c3.314,0,5.172,0,8.485,0L27.238,13.629z"/>
<path style="opacity:0.05;" d="M39.518,36.898c0.51-0.51,0.963-1.059,1.389-1.625l-4.194-3.962
	c-0.431,0.711-0.939,1.358-1.523,1.924c-1.456,1.409-3.356,2.238-5.552,2.548l4.371,4.627C36.039,39.66,37.919,38.496,39.518,36.898
	z"/>
<path style="opacity:0.07;" d="M34.5,40.203c1.841-0.752,3.551-1.839,5.018-3.306c0.389-0.389,0.75-0.797,1.09-1.22l-4.17-3.939
	c-0.369,0.543-0.783,1.046-1.248,1.496c-1.322,1.28-3.01,2.084-4.953,2.455L34.5,40.203z"/>
<linearGradient id="SVGID_00000019667502726520213910000015460685119000612791_" gradientUnits="userSpaceOnUse" x1="9.2069" y1="7.512" x2="43.4196" y2="44.1928">
	<stop  offset="0" style="stop-color:#FEDE00"/>
	<stop  offset="0.519" style="stop-color:#FECC00"/>
	<stop  offset="1" style="stop-color:#FFB700"/>
</linearGradient>
<path style="fill:url(#SVGID_00000019667502726520213910000015460685119000612791_);" d="M42.614,43.024L42.614,43.024
	c-1.349,1.349-3.548,1.309-4.847-0.088L17.675,21.661l3.576-3.576l21.275,20.093C43.923,39.476,43.963,41.675,42.614,43.024z"/>
<g>
	
		<linearGradient id="SVGID_00000093162959380222197500000010962906982450291104_" gradientUnits="userSpaceOnUse" x1="-4.6973" y1="20.4806" x2="29.5155" y2="57.1615">
		<stop  offset="0" style="stop-color:#FEDE00"/>
		<stop  offset="0.519" style="stop-color:#FECC00"/>
		<stop  offset="1" style="stop-color:#FFB700"/>
	</linearGradient>
	<polygon style="fill:url(#SVGID_00000093162959380222197500000010962906982450291104_);" points="16.252,34.005 7.709,42.548 
		5.361,40.201 13.904,31.658 	"/>
</g>
<linearGradient id="SVGID_00000093177212981078101080000002829485283244317836_" gradientUnits="userSpaceOnUse" x1="-7.4955" y1="23.0905" x2="26.7173" y2="59.7714">
	<stop  offset="0" style="stop-color:#FEDE00"/>
	<stop  offset="0.519" style="stop-color:#FECC00"/>
	<stop  offset="1" style="stop-color:#FFB700"/>
</linearGradient>
<path style="fill:url(#SVGID_00000093177212981078101080000002829485283244317836_);" d="M11.814,36.095
	c1.141,1.141,0.402,3.729-1.65,5.781c-2.052,2.052-4.64,2.79-5.781,1.65s-0.402-3.729,1.65-5.781
	C8.085,35.693,10.674,34.954,11.814,36.095z"/>
<linearGradient id="SVGID_00000102541225368325266030000011279463383867688841_" gradientUnits="userSpaceOnUse" x1="-3.837" y1="19.6782" x2="30.3758" y2="56.359">
	<stop  offset="0" style="stop-color:#FEDE00"/>
	<stop  offset="0.519" style="stop-color:#FECC00"/>
	<stop  offset="1" style="stop-color:#FFB700"/>
</linearGradient>
<path style="fill:url(#SVGID_00000102541225368325266030000011279463383867688841_);" d="M13.712,38.343
	c-0.703,0.703-2.202,0.346-3.346-0.799c-1.145-1.145-1.503-2.643-0.799-3.346c0.703-0.703,2.202-0.346,3.346,0.799
	C14.057,36.142,14.415,37.64,13.712,38.343z"/>
</svg>