<?xml version="1.0" encoding="iso-8859-1"?>
<!-- Generator: Adobe Illustrator 24.1.0, SVG Export Plug-In . SVG Version: 6.00 Build 0)  -->
<svg version="1.1" id="Layer_3" xmlns="http://www.w3.org/2000/svg" xmlns:xlink="http://www.w3.org/1999/xlink" x="0px" y="0px"
	 viewBox="0 0 48 48" style="enable-background:new 0 0 48 48;" xml:space="preserve">
<linearGradient id="SVGID_1_" gradientUnits="userSpaceOnUse" x1="12.7268" y1="33.7268" x2="4.1862" y2="25.1862">
	<stop  offset="0.3646" style="stop-color:#199AE0"/>
	<stop  offset="0.6986" style="stop-color:#1898DE"/>
	<stop  offset="0.8189" style="stop-color:#1691D8"/>
	<stop  offset="0.9046" style="stop-color:#1186CC"/>
	<stop  offset="0.9735" style="stop-color:#0A75BC"/>
	<stop  offset="1" style="stop-color:#076CB3"/>
</linearGradient>
<path style="fill:url(#SVGID_1_);" d="M0.29,24.701l9.509,9.509c0.387,0.387,1.014,0.387,1.401,0l2.009-2.009
	c0.387-0.387,0.387-1.014,0-1.401L3.701,21.29c-0.387-0.387-1.014-0.387-1.401,0L0.29,23.299
	C-0.097,23.686-0.097,24.314,0.29,24.701z"/>
<linearGradient id="SVGID_2_" gradientUnits="userSpaceOnUse" x1="1.3593" y1="25.6407" x2="12.3575" y2="14.6425">
	<stop  offset="0" style="stop-color:#32BDEF"/>
	<stop  offset="1" style="stop-color:#1EA2E4"/>
</linearGradient>
<path style="fill:url(#SVGID_2_);" d="M3.701,26.71l9.509-9.509c0.387-0.387,0.387-1.014,0-1.401l-2.009-2.009
	c-0.387-0.387-1.014-0.387-1.401,0L0.29,23.299c-0.387,0.387-0.387,1.014,0,1.401l2.009,2.009
	C2.686,27.097,3.314,27.097,3.701,26.71z"/>
<linearGradient id="SVGID_3_" gradientUnits="userSpaceOnUse" x1="689.7268" y1="33.7268" x2="681.1862" y2="25.1862" gradientTransform="matrix(-1 0 0 1 725 0)">
	<stop  offset="0.3646" style="stop-color:#199AE0"/>
	<stop  offset="0.6986" style="stop-color:#1898DE"/>
	<stop  offset="0.8189" style="stop-color:#1691D8"/>
	<stop  offset="0.9046" style="stop-color:#1186CC"/>
	<stop  offset="0.9735" style="stop-color:#0A75BC"/>
	<stop  offset="1" style="stop-color:#076CB3"/>
</linearGradient>
<path style="fill:url(#SVGID_3_);" d="M47.71,24.701l-9.509,9.509c-0.387,0.387-1.014,0.387-1.401,0l-2.009-2.009
	c-0.387-0.387-0.387-1.014,0-1.401l9.509-9.509c0.387-0.387,1.014-0.387,1.401,0l2.009,2.009
	C48.097,23.686,48.097,24.314,47.71,24.701z"/>
<linearGradient id="SVGID_4_" gradientUnits="userSpaceOnUse" x1="678.3593" y1="25.6407" x2="689.3575" y2="14.6425" gradientTransform="matrix(-1 0 0 1 725 0)">
	<stop  offset="0" style="stop-color:#32BDEF"/>
	<stop  offset="1" style="stop-color:#1EA2E4"/>
</linearGradient>
<path style="fill:url(#SVGID_4_);" d="M44.299,26.71l-9.509-9.509c-0.387-0.387-0.387-1.014,0-1.401l2.009-2.009
	c0.387-0.387,1.014-0.387,1.401,0l9.509,9.509c0.387,0.387,0.387,1.014,0,1.401l-2.009,2.009
	C45.314,27.097,44.686,27.097,44.299,26.71z"/>
<path style="fill:#0078D4;" d="M30.25,2.5h-3.61c-0.473,0-0.882,0.332-0.979,0.795l-8.644,41.301
	c-0.098,0.466,0.258,0.904,0.734,0.904h3.61c0.473,0,0.882-0.332,0.979-0.795l8.644-41.301C31.081,2.938,30.726,2.5,30.25,2.5z"/>
</svg>