<?xml version="1.0" encoding="iso-8859-1"?>
<!-- Generator: Adobe Illustrator 24.0.2, SVG Export Plug-In . SVG Version: 6.00 Build 0)  -->
<svg version="1.1" xmlns="http://www.w3.org/2000/svg" xmlns:xlink="http://www.w3.org/1999/xlink" x="0px" y="0px"
	 viewBox="0 0 48 48" style="enable-background:new 0 0 48 48;" xml:space="preserve">
<g id="Layer_2" style="display:none;">
</g>
<g id="Layer_1" style="display:none;">
</g>
<g id="Layer_3">
	<linearGradient id="SVGID_1_" gradientUnits="userSpaceOnUse" x1="10" y1="27" x2="46" y2="27">
		<stop  offset="0" style="stop-color:#28AFEA"/>
		<stop  offset="1" style="stop-color:#0B88DA"/>
	</linearGradient>
	<path style="fill:url(#SVGID_1_);" d="M44,41H12c-1.105,0-2-0.895-2-2V15c0-1.105,0.895-2,2-2h32c1.105,0,2,0.895,2,2v24
		C46,40.105,45.105,41,44,41z"/>
	<path style="fill:#50E6FF;" d="M36,34H4c-1.105,0-2-0.895-2-2V8c0-1.105,0.895-2,2-2h32c1.105,0,2,0.895,2,2v24
		C38,33.105,37.105,34,36,34z"/>
	<path style="fill:#50E6FF;" d="M33,31H7c-1.105,0-2-0.895-2-2V11c0-1.105,0.895-2,2-2h26c1.105,0,2,0.895,2,2v18
		C35,30.105,34.105,31,33,31z"/>
	<linearGradient id="SVGID_2_" gradientUnits="userSpaceOnUse" x1="17" y1="25.6711" x2="35" y2="25.6711">
		<stop  offset="0" style="stop-color:#3CCBF4"/>
		<stop  offset="1" style="stop-color:#1FA0E5"/>
	</linearGradient>
	<path style="fill:url(#SVGID_2_);" d="M35,27.706l-6.805-6.805c-0.731-0.731-1.911-0.746-2.661-0.036L17,28.765L19.823,31h14.118
		C34.526,31,35,30.526,35,29.941V27.706z"/>
	<circle style="fill:#FFF8DE;" cx="29.5" cy="14.5" r="2"/>
	
		<linearGradient id="SVGID_3_" gradientUnits="userSpaceOnUse" x1="15.4767" y1="-849.9671" x2="15.4767" y2="-865.2612" gradientTransform="matrix(1 0 0 -1 0 -834)">
		<stop  offset="0" style="stop-color:#28AFEA"/>
		<stop  offset="1" style="stop-color:#0B88DA"/>
	</linearGradient>
	<path style="fill:url(#SVGID_3_);" d="M25.953,31L13.802,16.706c-0.924-0.924-2.413-0.943-3.361-0.045L5,21.814v8.114
		C5,30.52,5.48,31,6.071,31H25.953z"/>
</g>
</svg>