<?xml version="1.0" encoding="iso-8859-1"?>
<!-- Generator: Adobe Illustrator 25.3.1, SVG Export Plug-In . SVG Version: 6.00 Build 0)  -->
<svg version="1.1" id="Layer_1" xmlns="http://www.w3.org/2000/svg" xmlns:xlink="http://www.w3.org/1999/xlink" x="0px" y="0px"
	 viewBox="0 0 48 48" style="enable-background:new 0 0 48 48;" xml:space="preserve">
<g>
	<linearGradient id="SVGID_1_" gradientUnits="userSpaceOnUse" x1="-7.0177" y1="9.3079" x2="39.3874" y2="33.5326">
		<stop  offset="0" style="stop-color:#0C7EE1"/>
		<stop  offset="0.9086" style="stop-color:#06609E"/>
	</linearGradient>
	<path style="fill:url(#SVGID_1_);" d="M44.5,41h-41C2.119,41,1,39.881,1,38.5v-31C1,6.119,2.119,5,3.5,5h11.597
		c1.519,0,2.955,0.69,3.904,1.877L21.5,10h23c1.381,0,2.5,1.119,2.5,2.5v26C47,39.881,45.881,41,44.5,41z"/>
	<linearGradient id="SVGID_2_" gradientUnits="userSpaceOnUse" x1="16.8649" y1="39.287" x2="44.9654" y2="39.792">
		<stop  offset="0" style="stop-color:#085AA3"/>
		<stop  offset="0.4637" style="stop-color:#024589"/>
	</linearGradient>
	<path style="fill:url(#SVGID_2_);" d="M1,37.875V38.5C1,39.881,2.119,41,3.5,41h41c1.381,0,2.5-1.119,2.5-2.5v-0.625H1z"/>
	<linearGradient id="SVGID_3_" gradientUnits="userSpaceOnUse" x1="-4.8793" y1="12.7636" x2="35.9675" y2="30.778">
		<stop  offset="0.34" style="stop-color:#66D1FF"/>
		<stop  offset="0.489" style="stop-color:#61CEFD"/>
		<stop  offset="0.6597" style="stop-color:#53C5F8"/>
		<stop  offset="0.8404" style="stop-color:#3DB7EF"/>
		<stop  offset="1" style="stop-color:#22A6E4"/>
	</linearGradient>
	<path style="fill:url(#SVGID_3_);" d="M44.5,11h-23l-1.237,0.824C19.114,12.591,17.763,13,16.381,13H3.5C2.119,13,1,14.119,1,15.5
		v22C1,38.881,2.119,40,3.5,40h41c1.381,0,2.5-1.119,2.5-2.5v-24C47,12.119,45.881,11,44.5,11z"/>
	<radialGradient id="SVGID_4_" cx="37.8363" cy="49.3167" r="53.8746" gradientUnits="userSpaceOnUse">
		<stop  offset="0.199" style="stop-color:#0B6BBF"/>
		<stop  offset="0.6006" style="stop-color:#1992D7"/>
		<stop  offset="0.8348" style="stop-color:#32A7E4"/>
		<stop  offset="1" style="stop-color:#3EB2EB"/>
	</radialGradient>
	<path style="fill:url(#SVGID_4_);" d="M44.5,40h-41C2.119,40,1,38.881,1,37.5v-21C1,15.119,2.119,14,3.5,14h13.256
		c1.382,0,2.733-0.409,3.883-1.176L21.875,12H44.5c1.381,0,2.5,1.119,2.5,2.5v23C47,38.881,45.881,40,44.5,40z"/>
</g>
<g>
	<linearGradient id="SVGID_6_" gradientUnits="userSpaceOnUse" x1="16.5141" y1="36.632" x2="6.2538" y2="11.4543">
		<stop  offset="0.2519" style="stop-color:#189FE1"/>
		<stop  offset="0.9033" style="stop-color:#3FC3F2"/>
	</linearGradient>
	<path style="fill:url(#SVGID_6_);" d="M26.614,24.977L8,14H3.5C2.119,14,1,15.119,1,16.5V35L26.614,24.977z"/>
	<linearGradient id="SVGID_7_" gradientUnits="userSpaceOnUse" x1="1.226" y1="30.7781" x2="46.8298" y2="36.8024">
		<stop  offset="0.1144" style="stop-color:#1EA5E4"/>
		<stop  offset="1" style="stop-color:#088DDA"/>
	</linearGradient>
	<path style="fill:url(#SVGID_7_);" d="M1,35v2.5C1,38.881,2.119,40,3.5,40h41c1.35,0,2.451-1.071,2.498-2.41L26.211,25.135L1,35z"
		/>
	<linearGradient id="SVGID_8_" gradientUnits="userSpaceOnUse" x1="42.3467" y1="48.3458" x2="36.1775" y2="19.0351">
		<stop  offset="0.1285" style="stop-color:#007BCB"/>
		<stop  offset="1" style="stop-color:#18A3E4"/>
	</linearGradient>
	<polygon style="fill:url(#SVGID_8_);" points="47,17 26.211,25.135 47,37.59 	"/>
	<linearGradient id="SVGID_9_" gradientUnits="userSpaceOnUse" x1="21.6891" y1="-0.4112" x2="32.3426" y2="26.0219">
		<stop  offset="0.1695" style="stop-color:#2EBBF3"/>
		<stop  offset="0.4251" style="stop-color:#2BB5EF"/>
		<stop  offset="0.76" style="stop-color:#21A5E3"/>
		<stop  offset="0.9802" style="stop-color:#1896D9"/>
	</linearGradient>
	<path style="fill:url(#SVGID_9_);" d="M44.5,12H21.875l-1.237,0.824C19.489,13.591,18.138,14,16.756,14H8l18.614,10.977L47,17v-2.5
		C47,13.119,45.881,12,44.5,12z"/>
</g>
<g>
	<path style="opacity:0.05;" d="M31.5,35h-14c-4.136,0-7.5-3.364-7.5-7.5c0-3.893,2.916-7.071,6.731-7.454
		C18.514,17.503,21.38,16,24.5,16c4.003,0,7.599,2.562,8.939,6.297C36.114,23.135,38,25.655,38,28.5C38,32.084,35.084,35,31.5,35z"
		/>
	<path style="opacity:0.07;" d="M31.5,34.5h-14c-3.86,0-7-3.14-7-7c0-3.71,2.839-6.725,6.511-6.976C18.687,18,21.468,16.5,24.5,16.5
		c3.877,0,7.351,2.537,8.55,6.205c2.596,0.694,4.45,3.085,4.45,5.795C37.5,31.809,34.809,34.5,31.5,34.5z"/>
	<radialGradient id="SVGID_10_" cx="24.5" cy="25.5" r="8.5" gradientUnits="userSpaceOnUse">
		<stop  offset="0.2221" style="stop-color:#81C6E7"/>
		<stop  offset="0.78" style="stop-color:#84D1EF"/>
		<stop  offset="1" style="stop-color:#86D7F4"/>
	</radialGradient>
	<circle style="fill:url(#SVGID_10_);" cx="24.5" cy="25.5" r="8.5"/>
	<linearGradient id="SVGID_11_" gradientUnits="userSpaceOnUse" x1="18.199" y1="18.4359" x2="22.0807" y2="26.7175">
		<stop  offset="0" style="stop-color:#CBF5F7"/>
		<stop  offset="0.9086" style="stop-color:#C9E6F4"/>
	</linearGradient>
	<path style="fill:url(#SVGID_11_);" d="M36.3,31.18C35.37,32.86,33.57,34,31.5,34h-14c-3.59,0-6.5-2.91-6.5-6.5
		c0-3.59,2.91-6.5,6.5-6.5c1.24,0,2.39,0.34,3.38,0.94C21.01,22.02,36.3,31.18,36.3,31.18z"/>
	<linearGradient id="SVGID_12_" gradientUnits="userSpaceOnUse" x1="30.5195" y1="20.0935" x2="26.5251" y2="26.8233">
		<stop  offset="0.3242" style="stop-color:#CBF5F7"/>
		<stop  offset="0.9086" style="stop-color:#C2DFEF"/>
	</linearGradient>
	<path style="fill:url(#SVGID_12_);" d="M37,28.5c0,3.04-2.46,5.5-5.5,5.5h-14c-2.42,0-4.54-1.32-5.65-3.29
		c1.27-0.53,2.63-1.1,4-1.67c6.16-2.57,12.62-5.27,13.65-5.67c0.62-0.24,1.29-0.37,2-0.37C34.54,23,37,25.46,37,28.5z"/>
	<linearGradient id="SVGID_13_" gradientUnits="userSpaceOnUse" x1="24.0769" y1="24.0506" x2="24.0769" y2="34.6178">
		<stop  offset="0" style="stop-color:#FFFDFE"/>
		<stop  offset="0.9086" style="stop-color:#EFFFFF"/>
	</linearGradient>
	<path style="fill:url(#SVGID_13_);" d="M36.304,31.182C35.364,32.864,33.566,34,31.5,34h-14c-2.42,0-4.54-1.32-5.65-3.29
		c1.27-0.53,13.953-5.819,13.953-5.819L36.304,31.182z"/>
</g>
</svg>