<svg xmlns="http://www.w3.org/2000/svg" xmlns:xlink="http://www.w3.org/1999/xlink" viewBox="0,0,256,256" width="48px" height="48px" fill-rule="nonzero"><defs><linearGradient x1="-7.018" y1="9.308" x2="39.387" y2="33.533" gradientUnits="userSpaceOnUse" id="color-1"><stop offset="0" stop-color="#0c7ee1"></stop><stop offset="0.909" stop-color="#06609e"></stop></linearGradient><linearGradient x1="16.865" y1="39.287" x2="44.965" y2="39.792" gradientUnits="userSpaceOnUse" id="color-2"><stop offset="0" stop-color="#085aa3"></stop><stop offset="0.464" stop-color="#024589"></stop></linearGradient><linearGradient x1="-4.879" y1="12.764" x2="35.968" y2="30.778" gradientUnits="userSpaceOnUse" id="color-3"><stop offset="0.34" stop-color="#66d1ff"></stop><stop offset="0.489" stop-color="#61cefd"></stop><stop offset="0.66" stop-color="#53c5f8"></stop><stop offset="0.84" stop-color="#3db7ef"></stop><stop offset="1" stop-color="#22a6e4"></stop></linearGradient><radialGradient cx="37.836" cy="49.317" r="53.875" gradientUnits="userSpaceOnUse" id="color-4"><stop offset="0.199" stop-color="#0b6bbf"></stop><stop offset="0.601" stop-color="#1992d7"></stop><stop offset="0.835" stop-color="#32a7e4"></stop><stop offset="1" stop-color="#3eb2eb"></stop></radialGradient><linearGradient x1="16.514" y1="36.632" x2="6.254" y2="11.454" gradientUnits="userSpaceOnUse" id="color-5"><stop offset="0.252" stop-color="#189fe1"></stop><stop offset="0.903" stop-color="#3fc3f2"></stop></linearGradient><linearGradient x1="1.226" y1="30.778" x2="46.83" y2="36.802" gradientUnits="userSpaceOnUse" id="color-6"><stop offset="0.114" stop-color="#1ea5e4"></stop><stop offset="1" stop-color="#088dda"></stop></linearGradient><linearGradient x1="42.347" y1="48.346" x2="36.178" y2="19.035" gradientUnits="userSpaceOnUse" id="color-7"><stop offset="0.129" stop-color="#007bcb"></stop><stop offset="1" stop-color="#18a3e4"></stop></linearGradient><linearGradient x1="21.689" y1="-0.411" x2="32.343" y2="26.022" gradientUnits="userSpaceOnUse" id="color-8"><stop offset="0.17" stop-color="#2ebbf3"></stop><stop offset="0.425" stop-color="#2bb5ef"></stop><stop offset="0.76" stop-color="#21a5e3"></stop><stop offset="0.98" stop-color="#1896d9"></stop></linearGradient><radialGradient cx="24.5" cy="25.5" r="8.5" gradientUnits="userSpaceOnUse" id="color-9"><stop offset="0.222" stop-color="#81c6e7"></stop><stop offset="0.78" stop-color="#84d1ef"></stop><stop offset="1" stop-color="#86d7f4"></stop></radialGradient><linearGradient x1="18.199" y1="18.436" x2="22.081" y2="26.718" gradientUnits="userSpaceOnUse" id="color-10"><stop offset="0" stop-color="#cbf5f7"></stop><stop offset="0.909" stop-color="#c9e6f4"></stop></linearGradient><linearGradient x1="30.52" y1="20.093" x2="26.525" y2="26.823" gradientUnits="userSpaceOnUse" id="color-11"><stop offset="0.324" stop-color="#cbf5f7"></stop><stop offset="0.909" stop-color="#c2dfef"></stop></linearGradient><linearGradient x1="24.077" y1="24.051" x2="24.077" y2="34.618" gradientUnits="userSpaceOnUse" id="color-12"><stop offset="0" stop-color="#fffdfe"></stop><stop offset="0.909" stop-color="#efffff"></stop></linearGradient><linearGradient x1="9.955" y1="6.8015" x2="9.955" y2="5.0828" gradientUnits="userSpaceOnUse" id="color-13"><stop offset="0" stop-color="#92a3b0"></stop><stop offset="0.015" stop-color="#a3b5c4"></stop><stop offset="1" stop-color="#aec2d1"></stop></linearGradient><linearGradient x1="10" y1="16.6869" x2="10" y2="10.8754" gradientUnits="userSpaceOnUse" id="color-14"><stop offset="0" stop-color="#4b4b4b"></stop><stop offset="1" stop-color="#3b3b3b"></stop></linearGradient></defs><g transform=""><g fill="none" fill-rule="nonzero" stroke="none" stroke-width="1" stroke-linecap="butt" stroke-linejoin="miter" stroke-miterlimit="10" stroke-dasharray="" stroke-dashoffset="0" font-family="none" font-weight="none" font-size="none" text-anchor="none" style="mix-blend-mode: normal"><g transform="scale(5.33333,5.33333)"><path d="M44.5,41h-41c-1.381,0 -2.5,-1.119 -2.5,-2.5v-31c0,-1.381 1.119,-2.5 2.5,-2.5h11.597c1.519,0 2.955,0.69 3.904,1.877l2.499,3.123h23c1.381,0 2.5,1.119 2.5,2.5v26c0,1.381 -1.119,2.5 -2.5,2.5z" fill="url(#color-1)"></path><path d="M1,37.875v0.625c0,1.381 1.119,2.5 2.5,2.5h41c1.381,0 2.5,-1.119 2.5,-2.5v-0.625z" fill="url(#color-2)"></path><path d="M44.5,11h-23l-1.237,0.824c-1.149,0.767 -2.5,1.176 -3.882,1.176h-12.881c-1.381,0 -2.5,1.119 -2.5,2.5v22c0,1.381 1.119,2.5 2.5,2.5h41c1.381,0 2.5,-1.119 2.5,-2.5v-24c0,-1.381 -1.119,-2.5 -2.5,-2.5z" fill="url(#color-3)"></path><path d="M44.5,40h-41c-1.381,0 -2.5,-1.119 -2.5,-2.5v-21c0,-1.381 1.119,-2.5 2.5,-2.5h13.256c1.382,0 2.733,-0.409 3.883,-1.176l1.236,-0.824h22.625c1.381,0 2.5,1.119 2.5,2.5v23c0,1.381 -1.119,2.5 -2.5,2.5z" fill="url(#color-4)"></path><g><path d="M26.614,24.977l-18.614,-10.977h-4.5c-1.381,0 -2.5,1.119 -2.5,2.5v18.5z" fill="url(#color-5)"></path><path d="M1,35v2.5c0,1.381 1.119,2.5 2.5,2.5h41c1.35,0 2.451,-1.071 2.498,-2.41l-20.787,-12.455z" fill="url(#color-6)"></path><path d="M47,17l-20.789,8.135l20.789,12.455z" fill="url(#color-7)"></path><path d="M44.5,12h-22.625l-1.237,0.824c-1.149,0.767 -2.5,1.176 -3.882,1.176h-8.756l18.614,10.977l20.386,-7.977v-2.5c0,-1.381 -1.119,-2.5 -2.5,-2.5z" fill="url(#color-8)"></path></g><g><path d="M31.5,35h-14c-4.136,0 -7.5,-3.364 -7.5,-7.5c0,-3.893 2.916,-7.071 6.731,-7.454c1.783,-2.543 4.649,-4.046 7.769,-4.046c4.003,0 7.599,2.562 8.939,6.297c2.675,0.838 4.561,3.358 4.561,6.203c0,3.584 -2.916,6.5 -6.5,6.5z" fill="#000000" opacity="0.05"></path><path d="M31.5,34.5h-14c-3.86,0 -7,-3.14 -7,-7c0,-3.71 2.839,-6.725 6.511,-6.976c1.676,-2.524 4.457,-4.024 7.489,-4.024c3.877,0 7.351,2.537 8.55,6.205c2.596,0.694 4.45,3.085 4.45,5.795c0,3.309 -2.691,6 -6,6z" fill="#000000" opacity="0.07"></path><circle cx="24.5" cy="25.5" r="8.5" fill="url(#color-9)"></circle><path d="M36.3,31.18c-0.93,1.68 -2.73,2.82 -4.8,2.82h-14c-3.59,0 -6.5,-2.91 -6.5,-6.5c0,-3.59 2.91,-6.5 6.5,-6.5c1.24,0 2.39,0.34 3.38,0.94c0.13,0.08 15.42,9.24 15.42,9.24z" fill="url(#color-10)"></path><path d="M37,28.5c0,3.04 -2.46,5.5 -5.5,5.5h-14c-2.42,0 -4.54,-1.32 -5.65,-3.29c1.27,-0.53 2.63,-1.1 4,-1.67c6.16,-2.57 12.62,-5.27 13.65,-5.67c0.62,-0.24 1.29,-0.37 2,-0.37c3.04,0 5.5,2.46 5.5,5.5z" fill="url(#color-11)"></path><path d="M36.304,31.182c-0.94,1.682 -2.738,2.818 -4.804,2.818h-14c-2.42,0 -4.54,-1.32 -5.65,-3.29c1.27,-0.53 13.953,-5.819 13.953,-5.819z" fill="url(#color-12)"></path></g></g></g><g fill="none" fill-rule="nonzero" stroke="none" stroke-width="1" stroke-linecap="butt" stroke-linejoin="miter" stroke-miterlimit="10" stroke-dasharray="" stroke-dashoffset="0" font-family="none" font-weight="none" font-size="none" text-anchor="none" style="mix-blend-mode: normal"><g transform="translate(174.98413,29.33333) scale(3.30159,3.30159)" id="overlay"><path d="M15.91,5h-2.04c-0.44,-1.73 -2.01,-3 -3.87,-3c-2.21,0 -4,1.79 -4,4v1.96h-2v-1.96c0,-3.31 2.69,-6 6,-6c2.97,0 5.44,2.16 5.91,5z" fill="url(#color-13)"></path><path d="M19.25,21h-18.5c-0.414,0 -0.75,-0.336 -0.75,-0.75v-2.75l10,-0.5l10,0.5v2.75c0,0.414 -0.336,0.75 -0.75,0.75z" fill="#c48c00"></path><path d="M0,14l10,-1l10,1v3.5h-20z" fill="#e3a600"></path><path d="M0,10.5l10,-0.5l10,0.5v3.5h-20z" fill="#edbe00"></path><path d="M20,10.5h-20v-2.75c0,-0.414 0.336,-0.75 0.75,-0.75h18.5c0.414,0 0.75,0.336 0.75,0.75z" fill="#fad500"></path><path d="M12.571,12.571c0,-1.42 -1.15,-2.571 -2.571,-2.571c-1.421,0 -2.571,1.151 -2.571,2.571c0,0.949 0.521,1.769 1.286,2.215v1.928c-0.001,0.71 0.575,1.286 1.285,1.286c0.71,0 1.286,-0.576 1.286,-1.286v-1.928c0.765,-0.445 1.285,-1.266 1.285,-2.215z" fill="url(#color-14)"></path></g></g></g></svg>