<svg xmlns="http://www.w3.org/2000/svg" xmlns:xlink="http://www.w3.org/1999/xlink" viewBox="0 0 48 48" width="48px" height="48px">
  <defs>
    <style>
      .cls-1 {
        fill: url(#Безымянный_градиент_147);
      }

      .cls-2 {
        fill: url(#Безымянный_градиент_147-2);
      }

      .cls-3 {
        fill: url(#Новый_образец_градиентной_зал_2);
      }

      .cls-4 {
        opacity: 0.05;
      }

      .cls-5 {
        opacity: 0.07;
      }

      .cls-6 {
        fill: url(#linear-gradient);
      }
    </style>
    <linearGradient id="Безымянный_градиент_147" data-name="Безымянный градиент 147" x1="18.38688" y1="17.57688" x2="29.10444" y2="47.02314" gradientUnits="userSpaceOnUse">
      <stop offset="0" stop-color="#dfe9f2"/>
      <stop offset="0.391" stop-color="#d6e0e9"/>
      <stop offset="1" stop-color="#bfc8d1"/>
    </linearGradient>
    <linearGradient id="Безымянный_градиент_147-2" x1="18.38903" y1="17.57909" x2="29.10544" y2="47.02219" xlink:href="#Безымянный_градиент_147"/>
    <linearGradient id="Новый_образец_градиентной_зал_2" data-name="Новый образец градиентной зал 2" x1="17.56986" y1="6.33287" x2="30.20127" y2="41.0374" gradientUnits="userSpaceOnUse">
      <stop offset="0" stop-color="#2aa4f4"/>
      <stop offset="1" stop-color="#007ad9"/>
    </linearGradient>
    <linearGradient id="linear-gradient" x1="17.86472" y1="-1.85775" x2="29.09192" y2="28.98874" gradientUnits="userSpaceOnUse">
      <stop offset="0" stop-color="#4caf50"/>
      <stop offset="0.489" stop-color="#4aaf50"/>
      <stop offset="0.665" stop-color="#43ad50"/>
      <stop offset="0.79" stop-color="#38aa50"/>
      <stop offset="0.892" stop-color="#27a550"/>
      <stop offset="0.978" stop-color="#11a050"/>
      <stop offset="1" stop-color="#0a9e50"/>
    </linearGradient>
  </defs>
  <path class="cls-1" d="M41.5056,33.86491,25.00209,43.41983a2,2,0,0,1-2.00418,0L6.495,33.86528a1,1,0,0,1,.00013-1.73092l16.51069-9.55578a2,2,0,0,1,2.00431.00037l16.49563,9.55523A1,1,0,0,1,41.5056,33.86491Z"/>
  <path class="cls-2" d="M41.51,33.86,25,43.42a1.9869,1.9869,0,0,1-2,0L6.5,33.87a1.0044,1.0044,0,0,1,0-1.74l5.27-3.05,1-.58,10.24-5.92a1.9869,1.9869,0,0,1,2,0L35.24,28.5l.49.29.5.29,5.28,3.05A1.00329,1.00329,0,0,1,41.51,33.86Z"/>
  <path class="cls-3" d="M41.5056,24.86566,25.00209,34.42057a2,2,0,0,1-2.00418,0L6.495,24.866a1,1,0,0,1,.00013-1.73092l16.51069-9.55578a2,2,0,0,1,2.00431.00037l16.49563,9.55523A1,1,0,0,1,41.5056,24.86566Z"/>
  <g>
    <g class="cls-4">
      <path d="M35.73,28.79l-.49-.29L25,34.42a1.98672,1.98672,0,0,1-2,0L12.77,28.5l-1,.58L22.5,35.29a3.01237,3.01237,0,0,0,3,0l10.73-6.21Z"/>
    </g>
    <g class="cls-5">
      <path d="M35.24,28.5,25,34.42a1.98672,1.98672,0,0,1-2,0L12.77,28.5l-.5.29,10.48,6.06a2.46767,2.46767,0,0,0,2.5,0l10.48-6.06Z"/>
    </g>
  </g>
  <path class="cls-6" d="M41.5056,15.86491,25.00209,25.41983a2,2,0,0,1-2.00418,0L6.495,15.86528a1,1,0,0,1,.00013-1.73092L23.00585,4.57858a2,2,0,0,1,2.00431.00037l16.49563,9.55523A1,1,0,0,1,41.5056,15.86491Z"/>
  <g>
    <g class="cls-4">
      <path d="M35.23,19.5,25,25.42a1.98672,1.98672,0,0,1-2,0L12.78,19.5l-1,.58L22.5,26.29a3.01237,3.01237,0,0,0,3,0l10.73-6.21Z"/>
    </g>
    <g class="cls-5">
      <path d="M35.23,19.5,25,25.42a1.98672,1.98672,0,0,1-2,0L12.78,19.5l-.5.29,10.47,6.06a2.46767,2.46767,0,0,0,2.5,0l10.48-6.06Z"/>
    </g>
  </g>
</svg>