<?xml version="1.0" encoding="iso-8859-1"?>
<!-- Generator: Adobe Illustrator 24.1.2, SVG Export Plug-In . SVG Version: 6.00 Build 0)  -->
<svg version="1.1" id="Layer_2" xmlns="http://www.w3.org/2000/svg" xmlns:xlink="http://www.w3.org/1999/xlink" x="0px" y="0px"
	 viewBox="0 0 48 48" style="enable-background:new 0 0 48 48;" xml:space="preserve">
<linearGradient id="SVGID_1_" gradientUnits="userSpaceOnUse" x1="24" y1="6.121" x2="24" y2="42.0388">
	<stop  offset="0" style="stop-color:#21AD64"/>
	<stop  offset="1" style="stop-color:#088242"/>
</linearGradient>
<path style="fill:url(#SVGID_1_);" d="M40,42H8c-1.1,0-2-0.9-2-2V8c0-1.1,0.9-2,2-2h32c1.1,0,2,0.9,2,2v32C42,41.1,41.1,42,40,42z"
	/>
<path style="fill:#EDBE00;" d="M32,20c-2.206,0-4-1.794-4-4s1.794-4,4-4s4,1.794,4,4S34.206,20,32,20z M32,14c-1.103,0-2,0.897-2,2
	s0.897,2,2,2s2-0.897,2-2S33.103,14,32,14z"/>
<path style="fill:#EDBE00;" d="M16,36c-2.206,0-4-1.794-4-4s1.794-4,4-4s4,1.794,4,4S18.206,36,16,36z M16,30c-1.103,0-2,0.897-2,2
	s0.897,2,2,2s2-0.897,2-2S17.103,30,16,30z"/>
<path style="fill:#EDBE00;" d="M32,36c-2.206,0-4-1.794-4-4s1.794-4,4-4s4,1.794,4,4S34.206,36,32,36z M32,30c-1.103,0-2,0.897-2,2
	s0.897,2,2,2s2-0.897,2-2S33.103,30,32,30z"/>
<path style="fill:#EDBE00;" d="M16,20c-2.206,0-4-1.794-4-4s1.794-4,4-4s4,1.794,4,4S18.206,20,16,20z M16,14c-1.103,0-2,0.897-2,2
	s0.897,2,2,2s2-0.897,2-2S17.103,14,16,14z"/>
<path style="fill:#EDBE00;" d="M18.5,30.5c-0.256,0-0.512-0.098-0.707-0.293c-0.391-0.391-0.391-1.023,0-1.414l11-11
	c0.391-0.391,1.023-0.391,1.414,0s0.391,1.023,0,1.414l-11,11C19.012,30.402,18.756,30.5,18.5,30.5z"/>
<path style="fill:#EDBE00;" d="M35.226,33.812c-0.391-0.391-1.023-0.391-1.414,0s-0.391,1.023,0,1.414l6.699,6.699
	c0.689-0.184,1.23-0.725,1.414-1.414L35.226,33.812z"/>
<path style="fill:#EDBE00;" d="M24.586,6l-6.774,6.774c-0.391,0.391-0.391,1.023,0,1.414s1.023,0.391,1.414,0L27.414,6H24.586z"/>
</svg>