<?xml version="1.0" encoding="iso-8859-1"?>
<!-- Generator: Adobe Illustrator 24.0.0, SVG Export Plug-In . SVG Version: 6.00 Build 0)  -->
<svg version="1.1" baseProfile="basic" id="Layer_2"
	 xmlns="http://www.w3.org/2000/svg" xmlns:xlink="http://www.w3.org/1999/xlink" x="0px" y="0px" viewBox="0 0 48 48"
	 xml:space="preserve">
<linearGradient id="SVGID_1_" gradientUnits="userSpaceOnUse" x1="21.5905" y1="8.0157" x2="26.0118" y2="40.8601">
	<stop  offset="0" style="stop-color:#32BDEF"/>
	<stop  offset="1" style="stop-color:#1EA2E4"/>
</linearGradient>
<path style="fill:url(#SVGID_1_);" d="M35,40H13c-1.105,0-2-0.895-2-2V10c0-1.105,0.895-2,2-2h18.172
	c0.53,0,1.039,0.211,1.414,0.586l3.828,3.828C36.789,12.789,37,13.298,37,13.828V38C37,39.105,36.105,40,35,40z"/>
<linearGradient id="SVGID_2_" gradientUnits="userSpaceOnUse" x1="21.1932" y1="14.3887" x2="26.8123" y2="36.6334">
	<stop  offset="0" style="stop-color:#FFCF7B"/>
	<stop  offset="0.1952" style="stop-color:#FECD76"/>
	<stop  offset="0.4394" style="stop-color:#FAC666"/>
	<stop  offset="0.7097" style="stop-color:#F3BC4D"/>
	<stop  offset="0.9971" style="stop-color:#EAAD29"/>
	<stop  offset="1" style="stop-color:#EAAD29"/>
</linearGradient>
<path style="fill:url(#SVGID_2_);" d="M31,36H17c-1.105,0-2-0.895-2-2V17c0-1.105,0.895-2,2-2h14c1.105,0,2,0.895,2,2v17
	C33,35.105,32.105,36,31,36z"/>
<g>
	<path style="fill:#DE8D37;" d="M29,21v-6h-2v6h-2v-6h-2v6h-1c-0.552,0-1-0.449-1-1v-5h-2v5c0,1.654,1.346,3,3,3h11v-2H29z"/>
	<path style="fill:#DE8D37;" d="M20,26c0-1.103-0.897-2-2-2h-3v2h3v10h2v-5h3v5h2v-5h2v5h2v-5h4v-2H20V26z"/>
</g>
</svg>