<?xml version="1.0" encoding="iso-8859-1"?>
<!-- Generator: Adobe Illustrator 24.1.0, SVG Export Plug-In . SVG Version: 6.00 Build 0)  -->
<svg version="1.1" id="Layer_3" xmlns="http://www.w3.org/2000/svg" xmlns:xlink="http://www.w3.org/1999/xlink" x="0px" y="0px"
	 viewBox="0 0 48 48" style="enable-background:new 0 0 48 48;" xml:space="preserve">
<linearGradient id="SVGID_1_" gradientUnits="userSpaceOnUse" x1="18.5" y1="20" x2="18.5" y2="42.7882">
	<stop  offset="0.0036" style="stop-color:#6D7882"/>
	<stop  offset="1" style="stop-color:#5A6269"/>
</linearGradient>
<path style="fill:url(#SVGID_1_);" d="M28,42H9c-2.2,0-4-1.8-4-4V24c0-2.2,1.8-4,4-4h19c2.2,0,4,1.8,4,4v14C32,40.2,30.2,42,28,42z"
	/>
<linearGradient id="SVGID_2_" gradientUnits="userSpaceOnUse" x1="35.4531" y1="21.3017" x2="39.7035" y2="41.0802">
	<stop  offset="0.0036" style="stop-color:#6D7882"/>
	<stop  offset="1" style="stop-color:#5A6269"/>
</linearGradient>
<polygon style="fill:url(#SVGID_2_);" points="34,36 40,41 40,21 34,26 "/>
<path style="fill:#45494D;" d="M32,26h2v10h-2V26z"/>
<path style="fill:#0076D7;" d="M25,4c-4.418,0-8,3.582-8,8s3.582,8,8,8s8-3.582,8-8S29.418,4,25,4z"/>
<path style="fill:#0076D7;" d="M11,8c-3.314,0-6,2.686-6,6s2.686,6,6,6s6-2.686,6-6S14.314,8,11,8z"/>
<circle style="fill:#32BDEF;" cx="25" cy="12" r="2"/>
<circle style="fill:#32BDEF;" cx="11" cy="14" r="2"/>
<circle style="fill:#EEF2F3;" cx="26" cy="26" r="2"/>
<rect x="40" y="21" style="fill:#7C8994;" width="3" height="20"/>
</svg>