<?xml version="1.0" encoding="iso-8859-1"?>
<!-- Generator: Adobe Illustrator 24.1.0, SVG Export Plug-In . SVG Version: 6.00 Build 0)  -->
<svg version="1.1" id="Layer_3" xmlns="http://www.w3.org/2000/svg" xmlns:xlink="http://www.w3.org/1999/xlink" x="0px" y="0px"
	 viewBox="0 0 48 48" style="enable-background:new 0 0 48 48;" xml:space="preserve">
<linearGradient id="SVGID_1_" gradientUnits="userSpaceOnUse" x1="13.2056" y1="29.8273" x2="33.6181" y2="50.2397">
	<stop  offset="0" style="stop-color:#1D59B3"/>
	<stop  offset="1" style="stop-color:#195BBC"/>
</linearGradient>
<path style="fill:url(#SVGID_1_);" d="M42.378,42h-37c-0.55,0-1-0.45-1-1v-1c0-0.55,0.45-1,1-1h37c0.55,0,1,0.45,1,1v1
	C43.378,41.55,42.928,42,42.378,42z"/>
<linearGradient id="SVGID_2_" gradientUnits="userSpaceOnUse" x1="12.3333" y1="10.9571" x2="30.9496" y2="10.9571">
	<stop  offset="0" style="stop-color:#3079D6"/>
	<stop  offset="1" style="stop-color:#297CD2"/>
</linearGradient>
<path style="fill:url(#SVGID_2_);" d="M30.95,12.938L16.866,6.317c-1.272-0.598-2.782-0.334-3.776,0.66l-0.757,0.757l9.461,8.181
	L30.95,12.938z"/>
<linearGradient id="SVGID_3_" gradientUnits="userSpaceOnUse" x1="4.1559" y1="16.993" x2="42.1472" y2="16.993">
	<stop  offset="0" style="stop-color:#42A3F2"/>
	<stop  offset="1" style="stop-color:#42A4EB"/>
</linearGradient>
<path style="fill:url(#SVGID_3_);" d="M42.147,13.772l-2.082-5.623L10.667,19.333l-3.008-2.648c-0.829-0.73-2.018-0.885-3.007-0.392
	l-0.199,0.099c-0.254,0.127-0.365,0.43-0.253,0.69l3.083,7.187l3.696,1.566L42.147,13.772z"/>
<linearGradient id="SVGID_4_" gradientUnits="userSpaceOnUse" x1="38" y1="11" x2="44" y2="11">
	<stop  offset="0" style="stop-color:#42A3F2"/>
	<stop  offset="1" style="stop-color:#42A4EB"/>
</linearGradient>
<circle style="fill:url(#SVGID_4_);" cx="41" cy="11" r="3"/>
<linearGradient id="SVGID_5_" gradientUnits="userSpaceOnUse" x1="7" y1="23" x2="13" y2="23">
	<stop  offset="0" style="stop-color:#42A3F2"/>
	<stop  offset="1" style="stop-color:#42A4EB"/>
</linearGradient>
<circle style="fill:url(#SVGID_5_);" cx="10" cy="23" r="3"/>
<linearGradient id="SVGID_6_" gradientUnits="userSpaceOnUse" x1="22.3333" y1="24.9299" x2="32.334" y2="24.9299">
	<stop  offset="0" style="stop-color:#3079D6"/>
	<stop  offset="1" style="stop-color:#297CD2"/>
</linearGradient>
<path style="fill:url(#SVGID_6_);" d="M24.037,18.466c-0.347,0.131-0.586,0.452-0.613,0.822l-1.091,15.045h1.07
	c1.405,0,2.66-0.882,3.135-2.203l5.768-15.999c0.131-0.362-0.224-0.711-0.584-0.574L24.037,18.466z"/>
</svg>