<svg xmlns="http://www.w3.org/2000/svg" width="512" height="512" fill="none"><rect width="512" height="512" fill="url(#a)" rx="117.029"/><g filter="url(#b)"><path fill="url(#c)" fill-rule="evenodd" d="M337.906 363.854c49.195.859 89.897-38.447 90.756-87.641.427-24.493-9.579-48.501-27.087-65.573.445-47.414-37.553-86.52-85.05-87.349-13.794-.241-27.282 2.774-39.537 8.782-15.72-15.376-36.693-24.224-58.97-24.613-46.473-.811-85.133 35.316-87.914 81.275-28.446 15.25-46.728 44.807-47.298 77.472-.863 49.438 38.636 90.342 88.073 91.204a90.388 90.388 0 0 0 7.023-.15c16.03 28.072 45.923 46.055 78.6 46.625a92.19 92.19 0 0 0 77.799-40.168 88.88 88.88 0 0 0 3.605.136Zm-80.993 16.493c-26.475-.462-50.566-16.332-61.497-40.502l-3.698-8.177-8.865 1.401c-3.801.601-7.69.871-11.563.804-36.437-.636-65.582-30.817-64.946-67.255.454-26.007 16.141-49.351 40.05-59.623l7.355-3.16-.235-8.001a63.318 63.318 0 0 1-.018-2.923c.607-34.735 29.377-62.519 64.111-61.912 18.695.326 36.072 8.797 47.858 23.325l6.639 8.183 8.865-5.696c10.518-6.758 22.634-10.2 35.145-9.982 34.735.606 62.52 29.378 61.913 64.112a61.08 61.08 0 0 1-.18 3.761l-.472 5.991 4.576 3.896c14.838 12.633 23.511 31.803 23.172 51.213-.632 36.194-30.611 65.146-66.806 64.514a66.554 66.554 0 0 1-8.414-.687l-7.967-1.164-3.973 7.004c-12.473 21.989-35.799 35.319-61.05 34.878Zm46.355-93.387.233-.095c3.081-1.262 4.196-2.399 4.252-5.589l.07-4.007c.061-3.524-1.93-5.827-5.239-5.885l-.185-.003-.668.135c-7.45 2.476-14.754 3.667-21.708 3.546-6.927-.121-13.736-1.549-20.241-4.247l-.196-.081-.74-.113c-3.308-.058-5.378 2.175-5.439 5.698l-.07 4.007c-.053 3.001 1.054 4.388 3.673 5.57l.008.004.279.124.286.125c7.108 3.188 14.574 4.876 22.171 5.009 7.57.132 15.467-1.279 23.514-4.198Zm-101.487-34.718c.056-3.23 1.763-4.98 4.018-5.413l21.736-5.302-21.589-6.071c-2.238-.628-3.829-2.431-3.775-5.537l.119-6.82c.052-2.981 1.864-4.234 3.911-4.198.662.012 1.346.167 2.026.438l38.398 13.167c2.916 1.029 4.489 3.412 4.433 6.64l-.097 5.581c-.057 3.227-1.71 5.556-4.665 6.484l-38.916 11.842c-.657.182-1.241.267-1.809.257-2.424-.043-3.951-1.813-3.907-4.35l.117-6.718Z" clip-rule="evenodd"/></g><defs><linearGradient id="a" x1="256" x2="256" y1="0" y2="512" gradientUnits="userSpaceOnUse"><stop stop-color="#1C265B"/><stop offset="1" stop-color="#060816"/></linearGradient><linearGradient id="c" x1="85.676" x2="449.154" y1="101.789" y2="132.225" gradientUnits="userSpaceOnUse"><stop stop-color="#2091F6"/><stop offset="1" stop-color="#21B568"/></linearGradient><filter id="b" width="451.086" height="401.702" x="30.457" y="70.149" color-interpolation-filters="sRGB" filterUnits="userSpaceOnUse"><feFlood flood-opacity="0" result="BackgroundImageFix"/><feColorMatrix in="SourceAlpha" result="hardAlpha" values="0 0 0 0 0 0 0 0 0 0 0 0 0 0 0 0 0 0 127 0"/><feOffset dy="15"/><feGaussianBlur stdDeviation="25"/><feComposite in2="hardAlpha" operator="out"/><feColorMatrix values="0 0 0 0 0.129412 0 0 0 0 0.643137 0 0 0 0 0.67451 0 0 0 0.4 0"/><feBlend in2="BackgroundImageFix" result="effect1_dropShadow_5234_194"/><feBlend in="SourceGraphic" in2="effect1_dropShadow_5234_194" result="shape"/></filter></defs></svg>