<?xml version="1.0" encoding="utf-8"?>
<!-- Generator: Adobe Illustrator 22.1.0, SVG Export Plug-In . SVG Version: 6.00 Build 0)  -->
<svg version="1.1" id="图层_1" xmlns="http://www.w3.org/2000/svg" xmlns:xlink="http://www.w3.org/1999/xlink" x="0px" y="0px"
	 viewBox="0 0 1158 203.6" style="enable-background:new 0 0 1158 203.6;" xml:space="preserve">
<style type="text/css">
	.st0{fill:#6A2686;}
	.st1{fill:#424041;}
	.st2{fill-rule:evenodd;clip-rule:evenodd;fill:#044E95;}
	.st3{fill:#044E95;}
</style>
<g>
	<path class="st0" d="M370.4,105.7v-0.2c0-1.1-0.1-2.2-0.4-2.7c-0.1-0.1-0.1-0.2-0.2-0.3c0.1-0.2,0.2-0.3,0.2-0.5
		c0.4-1.2,0-4.6-0.5-5.6c-0.1-0.1-0.2-0.2-0.3-0.3c0.1-0.2,0.2-0.3,0.2-0.5c0.3-1.3-0.4-4.6-1-5.5c-0.1-0.1-0.2-0.2-0.3-0.2
		c0.1-0.2,0.1-0.4,0.2-0.5c0.2-1.3-0.8-4.6-1.5-5.4c-0.1-0.1-0.2-0.2-0.3-0.2c0.1-0.2,0.1-0.4,0.1-0.5c0-1.3-1.2-4.5-1.9-5.2
		c-0.1-0.1-0.2-0.2-0.3-0.2c0-0.2,0.1-0.4,0.1-0.5c-0.1-1.3-1.6-4.4-2.4-5c-0.1-0.1-0.2-0.1-0.3-0.2c0-0.2,0-0.4,0-0.5
		c-0.2-1.3-1.9-4.2-2.8-4.8c-0.1-0.1-0.2-0.1-0.3-0.1c0-0.2,0-0.4,0-0.5c-0.3-1.3-2.3-4-3.2-4.6c-0.1-0.1-0.2-0.1-0.4-0.1
		c0-0.2,0-0.4-0.1-0.5c-0.4-1.2-2.6-3.8-3.6-4.2c-0.1-0.1-0.2-0.1-0.4-0.1c0-0.2-0.1-0.4-0.1-0.5c-0.5-1.2-2.9-3.6-4-3.9
		c-0.1,0-0.3-0.1-0.4,0c0-0.2-0.1-0.4-0.2-0.5c-0.6-1.1-3.3-3.3-4.3-3.5c-0.1,0-0.3,0-0.4,0c-0.1-0.2-0.1-0.4-0.2-0.5
		c-0.7-1.1-3.5-3-4.6-3.2c-0.1,0-0.2,0-0.4,0c-0.1-0.2-0.2-0.4-0.2-0.5c-0.8-1-3.8-2.7-4.8-2.7c-0.1,0-0.3,0-0.4,0
		c-0.1-0.2-0.2-0.3-0.3-0.4c-0.9-0.9-4-2.4-5.1-2.3c-0.1,0-0.3,0-0.4,0.1c-0.1-0.2-0.2-0.3-0.3-0.4c-1-0.8-4.2-2-5.2-1.9
		c-0.1,0-0.3,0.1-0.4,0.1c-0.1-0.2-0.2-0.3-0.3-0.4c-1-0.8-4.4-1.6-5.4-1.4c-0.1,0-0.2,0.1-0.3,0.2c-0.1-0.2-0.3-0.3-0.4-0.4
		c-1.1-0.7-4.5-1.2-5.5-0.9c-0.1,0-0.2,0.1-0.3,0.2c-0.2-0.1-0.3-0.2-0.4-0.3c-1.1-0.6-4.6-0.8-5.6-0.4c-0.1,0-0.2,0.1-0.3,0.2
		c-0.2-0.1-0.3-0.2-0.4-0.3c-0.6-0.2-1.7-0.3-2.8-0.3c-1.2,0-2.3,0.1-2.8,0.4c-0.1,0.1-0.2,0.1-0.3,0.2c-0.2-0.1-0.3-0.2-0.5-0.2
		c-1.2-0.4-4.6,0-5.6,0.5c-0.1,0.1-0.2,0.2-0.3,0.2c-0.2-0.1-0.3-0.2-0.5-0.2c-1.3-0.2-4.6,0.4-5.5,1c-0.1,0.1-0.2,0.2-0.2,0.3
		c-0.2-0.1-0.4-0.1-0.5-0.1c-1.3-0.2-4.6,0.8-5.4,1.5c-0.1,0.1-0.2,0.2-0.2,0.3c-0.2-0.1-0.4-0.1-0.5-0.1c-1.3,0-4.5,1.2-5.2,1.9
		c-0.1,0.1-0.2,0.2-0.2,0.3c-0.2,0-0.4-0.1-0.5-0.1c-1.3,0.1-4.4,1.6-5,2.4c-0.1,0.1-0.1,0.2-0.2,0.3c-0.2,0-0.4,0-0.5,0
		c-1.3,0.2-4.2,1.9-4.8,2.8c-0.1,0.1-0.1,0.2-0.1,0.3c-0.2,0-0.4,0-0.5,0c-1.2,0.3-4,2.3-4.6,3.2c-0.1,0.1-0.1,0.3-0.1,0.4
		c-0.2,0-0.4,0-0.5,0.1c-1.2,0.4-3.8,2.6-4.3,3.6c0,0.1-0.1,0.2-0.1,0.4c-0.2,0-0.4,0.1-0.5,0.1c-1.2,0.5-3.6,2.9-3.9,4
		c0,0.1-0.1,0.2,0,0.4c-0.2,0-0.4,0.1-0.5,0.2c-1.1,0.6-3.3,3.3-3.6,4.3c0,0.1,0,0.2,0,0.4c-0.2,0.1-0.4,0.1-0.5,0.2
		c-1.1,0.7-3,3.5-3.2,4.6c0,0.1,0,0.3,0,0.4c-0.2,0.1-0.4,0.2-0.5,0.2c-1,0.8-2.7,3.8-2.8,4.8c0,0.1,0,0.3,0,0.4
		c-0.2,0.1-0.3,0.2-0.4,0.3c-0.9,0.9-2.4,4-2.3,5.1c0,0.1,0,0.3,0.1,0.4c-0.2,0.1-0.3,0.2-0.4,0.3c-0.8,1-2,4.2-1.9,5.3
		c0,0.1,0.1,0.2,0.1,0.3c-0.2,0.1-0.3,0.2-0.4,0.4c-0.8,1-1.6,4.4-1.4,5.4c0,0.1,0.1,0.2,0.1,0.3c-0.2,0.1-0.3,0.3-0.3,0.4
		c-0.7,1.1-1.2,4.5-0.9,5.5c0,0.1,0.1,0.2,0.2,0.3c-0.1,0.1-0.2,0.3-0.3,0.4c-0.6,1.1-0.8,4.6-0.4,5.6c0,0.1,0.1,0.2,0.2,0.3
		c-0.1,0.2-0.2,0.3-0.3,0.4c-0.2,0.6-0.3,1.7-0.3,2.8c0,1.2,0.1,2.3,0.4,2.8c0.1,0.1,0.1,0.2,0.2,0.3c-0.1,0.2-0.2,0.3-0.2,0.4
		c-0.4,1.2,0,4.7,0.5,5.6c0.1,0.1,0.2,0.2,0.3,0.3c-0.1,0.2-0.2,0.3-0.2,0.5c-0.3,1.3,0.4,4.6,1,5.5c0.1,0.1,0.2,0.2,0.3,0.2
		c-0.1,0.2-0.1,0.4-0.2,0.5c-0.1,1.3,0.8,4.6,1.5,5.4c0.1,0.1,0.2,0.2,0.3,0.2c-0.1,0.2-0.1,0.4-0.1,0.5c0,1.3,1.2,4.5,1.9,5.2
		c0.1,0.1,0.2,0.2,0.3,0.2c0,0.2-0.1,0.4-0.1,0.5c0.1,1.3,1.6,4.4,2.4,5c0.1,0.1,0.2,0.1,0.3,0.2c0,0.2,0,0.4,0,0.5
		c0.2,1.3,1.9,4.2,2.8,4.8c0.1,0.1,0.2,0.1,0.4,0.1c0,0.2,0,0.4,0,0.5c0.3,1.2,2.3,4,3.2,4.6c0.1,0.1,0.2,0.1,0.4,0.1
		c0,0.2,0,0.4,0.1,0.5c0.4,1.2,2.6,3.8,3.6,4.2c0.1,0.1,0.2,0.1,0.4,0.1c0,0.2,0.1,0.4,0.1,0.5c0.5,1.2,2.9,3.6,4,3.9
		c0.1,0,0.2,0,0.3,0c0,0,0,0,0.1,0c0,0.2,0.1,0.4,0.2,0.5c0.6,1.1,3.3,3.3,4.3,3.6c0.1,0,0.2,0,0.2,0c0,0,0.1,0,0.1,0
		c0.1,0.2,0.1,0.4,0.2,0.5c0.7,1.1,3.5,3,4.6,3.2c0.1,0,0.1,0,0.2,0c0.1,0,0.1,0,0.2,0c0.1,0.2,0.1,0.3,0.2,0.4
		c0.8,1,3.8,2.7,4.8,2.7c0,0,0,0,0.1,0c0.1,0,0.2,0,0.3-0.1c0.1,0.2,0.2,0.3,0.3,0.4c0.9,0.9,3.9,2.3,5,2.3h0c0.2,0,0.3,0,0.4-0.1
		c0.1,0.2,0.2,0.3,0.3,0.4c0.9,0.8,3.9,1.9,5.1,1.9h0.2c0.1,0,0.3-0.1,0.4-0.1c0.1,0.2,0.2,0.3,0.3,0.4c0.9,0.7,3.7,1.5,5,1.5
		c0.2,0,0.3,0,0.4,0c0.1,0,0.3-0.1,0.4-0.1c0.1,0.1,0.3,0.3,0.4,0.3c0.9,0.5,3.3,1,4.7,1c0.3,0,0.6,0,0.8-0.1c0.1,0,0.2-0.1,0.3-0.2
		c0.2,0.1,0.3,0.2,0.4,0.3c0.8,0.4,2.6,0.6,4,0.6c0.7,0,1.3-0.1,1.6-0.2c0.1-0.1,0.2-0.1,0.3-0.2c0.2,0.1,0.3,0.2,0.4,0.3
		c0.6,0.2,1.7,0.3,2.7,0.4h0.1c1.1,0,2.3-0.1,2.7-0.4c0.1-0.1,0.2-0.1,0.3-0.2c0.2,0.1,0.3,0.2,0.4,0.2c0.4,0.1,0.9,0.2,1.5,0.2
		c1.5,0,3.4-0.3,4-0.7c0.1-0.1,0.2-0.2,0.3-0.2c0.2,0.1,0.4,0.2,0.5,0.2c0.2,0,0.4,0,0.7,0c1.5,0,4-0.5,4.7-1
		c0.1-0.1,0.2-0.2,0.3-0.3c0.2,0.1,0.4,0.1,0.5,0.1c0.1,0,0.2,0,0.3,0c1.4,0,4.3-0.8,5.1-1.5c0.1-0.1,0.2-0.2,0.2-0.3
		c0.2,0.1,0.4,0.1,0.5,0.1h0.1c1.3,0,4.4-1.2,5.2-1.9c0.1-0.1,0.2-0.2,0.2-0.3c0.2,0,0.3,0.1,0.4,0.1c0,0,0,0,0.1,0
		c1.3-0.1,4.4-1.5,5-2.4c0.1-0.1,0.1-0.2,0.2-0.3c0.1,0,0.2,0,0.4,0h0.2c1.3-0.2,4.2-1.9,4.8-2.8c0.1-0.1,0.1-0.2,0.2-0.4
		c0.1,0,0.1,0,0.2,0c0.1,0,0.3,0,0.4,0c1.2-0.3,4-2.3,4.6-3.2c0.1-0.1,0.1-0.2,0.1-0.4c0.2,0,0.4,0,0.5-0.1c1.2-0.4,3.8-2.6,4.2-3.6
		c0.1-0.1,0.1-0.2,0.1-0.4c0.2,0,0.4-0.1,0.5-0.1c1.2-0.5,3.6-3,3.9-4c0-0.1,0.1-0.3,0-0.4c0.2,0,0.4-0.1,0.5-0.2
		c1.1-0.6,3.3-3.3,3.6-4.3c0-0.1,0-0.3,0-0.4c0.2-0.1,0.4-0.1,0.5-0.2c1.1-0.7,3-3.5,3.2-4.6c0-0.2,0-0.3,0-0.4
		c0.2-0.1,0.4-0.2,0.4-0.2c1-0.8,2.7-3.8,2.8-4.9c0-0.1,0-0.2,0-0.4c0.2-0.1,0.3-0.2,0.4-0.3c0.9-0.9,2.4-4,2.3-5.1
		c0-0.1,0-0.3-0.1-0.4c0.2-0.1,0.3-0.2,0.4-0.3c0.8-1,2-4.2,1.9-5.2c0-0.1,0-0.3-0.1-0.4c0.2-0.1,0.3-0.2,0.4-0.3
		c0.8-1,1.6-4.4,1.4-5.4c0-0.1-0.1-0.2-0.1-0.3c0.2-0.1,0.3-0.3,0.3-0.4c0.7-1.1,1.3-4.5,0.9-5.5c0-0.1-0.1-0.2-0.2-0.3
		c0.1-0.2,0.2-0.3,0.3-0.4c0.6-1.1,0.9-4.6,0.5-5.6c0-0.1-0.1-0.2-0.2-0.3c0.1-0.2,0.2-0.3,0.3-0.4
		C370.3,107.8,370.4,106.8,370.4,105.7 M368.8,97.1c0.3,0.6,0.7,3.7,0.4,4.7c-0.1,0.2-0.2,0.4-0.5,0.7c-0.5,0.6-1.3,1.3-2.1,2
		l-0.1,0.1c0,0,0,0,0,0c-0.8,0.7-1.6,1.4-2.2,1.8h0l0,0c-0.2,0.1-0.4,0.2-0.5,0.3c0-0.1-0.1-0.2-0.1-0.4c0-0.1,0-0.1,0-0.2
		c-0.4-1.4-0.7-2.7,0-4.2C364.7,101.6,367.4,98.9,368.8,97.1C368.8,97.1,368.8,97.1,368.8,97.1 M367.7,90.9
		C367.7,90.9,367.8,90.9,367.7,90.9c0.4,0.6,1.1,3.6,0.8,4.7c0,0.2-0.2,0.4-0.4,0.8c-0.4,0.6-1.1,1.4-1.9,2.2c0,0,0,0,0,0
		c0,0-0.1,0-0.1,0.1v0l-0.1,0.1c-0.7,0.7-1.4,1.5-2,1.9c0,0,0,0,0,0l0,0c-0.2,0.1-0.3,0.2-0.4,0.3c0-0.1-0.1-0.2-0.1-0.4
		c0,0,0-0.1-0.1-0.2c-0.5-1.3-1-2.7-0.3-4.2c0.5-0.3,1.4-1.1,2.3-2.2C366.3,93.1,367.1,91.9,367.7,90.9L367.7,90.9z M366.2,84.8
		c0.4,0.6,1.3,3.5,1.2,4.6c0,0.2-0.1,0.5-0.3,0.8c-0.4,0.6-1,1.5-1.7,2.3c0,0,0,0.1-0.1,0.1c0,0.1-0.1,0.1-0.1,0.2
		c-0.6,0.8-1.3,1.5-1.8,2l0,0c0,0,0,0,0,0h0c0,0,0,0,0,0c-0.2,0.1-0.3,0.3-0.4,0.4c0-0.1-0.1-0.2-0.2-0.4c0-0.1,0-0.1-0.1-0.2
		c-0.6-1.3-1.2-2.6-0.7-4.2C363,90,365.2,86.8,366.2,84.8L366.2,84.8z M364.1,78.9c0.5,0.5,1.6,3.4,1.6,4.5c0,0.2-0.1,0.5-0.3,0.8
		c-0.3,0.7-0.8,1.5-1.4,2.4c0,0,0,0,0,0c-0.6,1-1.3,1.9-1.9,2.5c-0.2,0.2-0.3,0.3-0.4,0.4c-0.1-0.1-0.1-0.2-0.2-0.3
		c0,0,0-0.1-0.1-0.2c-0.7-1.2-1.4-2.5-1-4.1v0C361.4,84.3,363.3,81,364.1,78.9C364.1,78.9,364.1,78.9,364.1,78.9 M361.6,73.2
		c0.5,0.5,1.9,3.2,2,4.3c0,0.2-0.1,0.5-0.2,0.9h0c-0.2,0.7-0.7,1.6-1.2,2.6c0,0,0,0,0,0c0,0,0,0,0,0c0,0,0,0,0,0
		c-0.5,1-1.1,1.9-1.6,2.6v0c-0.1,0.2-0.2,0.3-0.4,0.4c-0.1-0.1-0.1-0.2-0.2-0.3c0,0-0.1-0.1-0.1-0.1c-0.8-1.2-1.6-2.3-1.4-4
		C359.3,78.8,360.9,75.4,361.6,73.2C361.5,73.2,361.5,73.2,361.6,73.2 M358.5,67.8c0.6,0.4,2.2,3,2.4,4.1c0,0.2,0,0.5-0.1,0.9
		c-0.2,0.7-0.5,1.6-0.9,2.6c0,0,0,0,0,0.1c0,0,0,0.1-0.1,0.1c0,0,0,0,0,0.1c-0.4,1-0.9,2-1.3,2.7c0,0,0,0,0,0v0c0,0,0,0,0,0
		c-0.1,0.2-0.2,0.3-0.3,0.4c-0.1-0.1-0.2-0.2-0.2-0.3c0,0-0.1-0.1-0.1-0.1c-0.9-1.1-1.8-2.2-1.7-3.9C356.8,73.5,358.1,70,358.5,67.8
		L358.5,67.8z M354.9,62.6C355,62.6,355,62.6,354.9,62.6c0.6,0.4,2.5,2.8,2.7,3.9c0,0.2,0,0.5,0,0.9c-0.2,0.7-0.4,1.8-0.8,2.8
		c0,0,0,0,0,0c-0.3,1-0.7,2.1-1,2.7h0c-0.1,0.2-0.2,0.4-0.3,0.6c-0.1-0.1-0.2-0.2-0.3-0.3c0,0-0.1-0.1-0.1-0.1c-1-1-2-2-2.1-3.7
		C353.7,68.5,354.7,64.8,354.9,62.6 M351,57.8C351,57.8,351,57.8,351,57.8c0.6,0.3,2.7,2.6,3,3.6c0.1,0.2,0.1,0.5,0,0.9v0
		c-0.1,0.7-0.3,1.8-0.5,2.9c0,0,0,0,0,0c-0.2,1.1-0.6,2.1-0.8,2.9c0,0,0,0,0,0v0v0c0,0,0,0,0,0c-0.1,0.2-0.1,0.3-0.2,0.5
		c-0.1-0.1-0.2-0.2-0.3-0.2c0,0-0.1-0.1-0.1-0.1c-1.1-0.9-2.2-1.8-2.4-3.5C350.3,63.8,350.9,60,351,57.8 M346.6,53.3
		C346.6,53.3,346.6,53.3,346.6,53.3c0.7,0.2,2.9,2.3,3.4,3.4c0.1,0.2,0.1,0.5,0.1,0.9v0c0,0.7-0.1,1.7-0.2,2.7v0c0,0,0,0,0,0.1v0
		c0,0,0,0.1,0,0.1c-0.2,1.1-0.4,2.2-0.6,2.9v0c0,0,0,0,0,0v0v0c0,0,0,0,0,0c-0.1,0.2-0.1,0.4-0.2,0.5c-0.1-0.1-0.2-0.1-0.3-0.2
		c0,0-0.1-0.1-0.2-0.1c-1.1-0.8-2.3-1.7-2.7-3.3C346.5,59.3,346.8,55.5,346.6,53.3 M341.9,49.3C341.9,49.2,341.9,49.2,341.9,49.3
		c0.7,0.2,3.1,2,3.6,3c0.1,0.2,0.1,0.4,0.2,0.8c0.1,0.7,0.1,1.8,0,2.9v0c0,0,0,0,0,0.1v0c-0.1,1.1-0.2,2.2-0.3,2.9c0,0,0,0,0,0v0v0
		v0v0c0,0,0,0,0,0c0,0.2-0.1,0.3-0.1,0.5c-0.1-0.1-0.2-0.1-0.3-0.2c0,0-0.1-0.1-0.2-0.1c-1.2-0.7-2.5-1.5-2.9-3.1
		C342.2,55.2,342.2,51.4,341.9,49.3 M336.8,45.6c0.7,0.1,3.3,1.8,3.9,2.7c0.1,0.2,0.2,0.4,0.2,0.8c0.1,0.7,0.2,1.7,0.2,2.7v0.2
		c0,1.1,0,2.1-0.1,2.9v0v0v0v0c0,0.2,0,0.4-0.1,0.6c-0.1,0-0.2-0.1-0.4-0.2c0,0-0.1,0-0.2-0.1c-1.3-0.6-2.6-1.2-3.2-2.8v0
		C337.7,51.5,337.3,47.8,336.8,45.6L336.8,45.6z M331.4,42.4c0.7,0.1,3.4,1.5,4.1,2.4c0.1,0.1,0.2,0.4,0.3,0.8
		c0.2,0.8,0.4,1.9,0.5,3c0,0,0,0,0,0.1c0.1,1,0.2,2.1,0.2,2.8v0.1v0c0,0.2,0,0.4,0,0.6c-0.1,0-0.2-0.1-0.4-0.1c0,0-0.1,0-0.2-0.1
		c-1.3-0.5-2.7-1-3.4-2.5C332.8,48.2,332.1,44.5,331.4,42.4L331.4,42.4z M325.8,39.6c0.7,0,3.5,1.2,4.3,2.1c0.1,0.1,0.3,0.4,0.4,0.8
		v0c0.3,0.7,0.5,1.7,0.7,2.8c0,0,0,0.1,0,0.1c0,0,0,0,0,0c0.2,1.1,0.4,2.2,0.4,2.9c0,0,0,0,0,0c0,0.2,0,0.4,0,0.6
		c-0.1,0-0.3-0.1-0.4-0.1c-0.1,0-0.1,0-0.2,0c-1.4-0.4-2.7-0.8-3.6-2.2C327.7,45.4,326.7,41.7,325.8,39.6
		C325.8,39.7,325.8,39.7,325.8,39.6 M319.9,37.4c0.7,0,3.6,0.9,4.5,1.7c0.1,0.1,0.3,0.4,0.5,0.7c0.3,0.7,0.7,1.7,1,2.7c0,0,0,0,0,0
		c0,0,0,0,0,0.1c0,0,0,0.1,0,0.1c0.3,1,0.6,2.1,0.7,2.8v0v0c0,0,0,0,0,0c0,0.2,0,0.4,0,0.5c-0.1,0-0.2,0-0.4-0.1c0,0-0.1,0-0.2,0
		c-1.4-0.2-2.8-0.5-3.8-1.9C322.3,43,321,39.4,319.9,37.4L319.9,37.4z M313.9,35.8c0.7-0.1,3.7,0.6,4.6,1.3c0.2,0.1,0.3,0.4,0.5,0.7
		c0.4,0.6,0.8,1.5,1.1,2.5c0,0,0,0,0,0c0,0,0,0.1,0.1,0.2c0,0,0,0,0,0c0.4,1,0.8,2.1,1,2.8v0c0,0,0,0,0,0v0c0,0,0,0,0,0
		c0,0.2,0.1,0.3,0.1,0.5c-0.1,0-0.3,0-0.4,0c-0.1,0-0.1,0-0.2,0c-1.4-0.1-2.8-0.3-3.9-1.5C316.8,41.1,315.1,37.7,313.9,35.8
		L313.9,35.8z M312.4,35.5c0.1,0.1,0.3,0.3,0.6,0.6c0.4,0.6,0.9,1.5,1.4,2.5c0,0,0,0.1,0,0.1h0c0.5,1,1,2.1,1.2,2.8l0,0c0,0,0,0,0,0
		c0.1,0.2,0.1,0.3,0.1,0.5h-0.6c-1.4,0-2.8,0-4.1-1.1c-0.1-1.2-2.1-4.5-3.5-6.2c0,0,0,0,0,0C308.4,34.4,311.5,34.9,312.4,35.5
		 M306.3,34.4c0.2,0.1,0.4,0.3,0.6,0.6c0.5,0.6,1,1.4,1.6,2.2c0,0.1,0.1,0.2,0.1,0.3c0.6,1,1.1,1.9,1.4,2.6c0.1,0.2,0.1,0.4,0.2,0.5
		l-0.4,0c-0.1,0-0.1,0-0.2,0c-1.4,0.1-2.8,0.2-4.2-0.8h0c-0.3-1.1-2.4-4.3-4-5.9c0,0,0,0,0,0C302.2,33.8,305.2,33.9,306.3,34.4
		 M300,34c0.2,0.1,0.4,0.2,0.7,0.5c0.5,0.5,1.2,1.3,1.8,2.2c0,0,0,0,0,0c0.7,0.9,1.3,1.9,1.7,2.5c0,0,0,0,0,0
		c0.1,0.2,0.2,0.4,0.2,0.5c-0.1,0-0.2,0-0.4,0.1c-0.1,0-0.1,0-0.2,0c-1.4,0.2-2.8,0.5-4.2-0.4c-0.4-1.1-2.8-4-4.5-5.5h0c0,0,0,0,0,0
		C295.9,33.6,299,33.5,300,34 M293.8,34c0.2,0,0.4,0.2,0.7,0.5c0.6,0.5,1.3,1.2,2,2c0,0,0,0,0,0c0.8,0.8,1.5,1.8,1.9,2.4
		c0.1,0.2,0.2,0.4,0.3,0.5c-0.1,0-0.2,0.1-0.4,0.1c0,0-0.1,0-0.2,0c-1.4,0.3-2.8,0.7-4.2-0.1c-0.5-1.1-3.1-3.8-5-5.1c0,0,0,0,0,0
		C289.6,34.1,292.7,33.7,293.8,34 M287.5,34.6c0.2,0,0.4,0.2,0.8,0.4c0.6,0.4,1.4,1.1,2.2,1.9c0,0,0,0,0.1,0.1c0,0,0,0,0,0h0
		c0.8,0.7,1.5,1.5,2,2.1c0,0,0,0,0,0l0,0c0.1,0.2,0.2,0.3,0.3,0.4c-0.1,0-0.2,0.1-0.4,0.1c-0.1,0-0.1,0-0.2,0.1
		c-1.3,0.5-2.7,1-4.2,0.3c-0.5-1-3.5-3.5-5.4-4.6c0,0,0,0,0,0C283.5,35,286.4,34.4,287.5,34.6 M281.4,35.8c0.2,0,0.5,0.1,0.8,0.3
		l0,0c0.6,0.4,1.5,1,2.3,1.7c0,0,0,0,0,0c0.9,0.7,1.8,1.5,2.3,2c0.2,0.2,0.3,0.3,0.4,0.4c-0.1,0-0.2,0.1-0.4,0.2c0,0-0.1,0-0.2,0.1
		c-1.3,0.6-2.6,1.2-4.2,0.7c-0.6-1-3.8-3.2-5.8-4.2c0,0,0,0,0,0C277.4,36.5,280.3,35.6,281.4,35.8 M275.4,37.4
		c0.2,0,0.5,0.1,0.8,0.3v0c0.6,0.3,1.5,0.8,2.4,1.4c1,0.6,2,1.4,2.6,1.9c0.2,0.1,0.3,0.3,0.4,0.4c-0.1,0.1-0.2,0.1-0.3,0.2
		c-0.1,0-0.1,0.1-0.2,0.1c-1.2,0.7-2.5,1.4-4.1,1h0c-0.7-0.9-4-2.8-6.1-3.6l0,0c0,0,0,0,0,0C271.4,38.6,274.2,37.4,275.4,37.4
		 M269.5,39.6c0.2,0,0.5,0.1,0.9,0.2l0,0c0.8,0.3,1.9,0.8,2.9,1.4c0,0,0,0,0,0c0.9,0.5,1.7,1,2.3,1.4v0c0.2,0.1,0.3,0.2,0.5,0.4
		c-0.1,0.1-0.2,0.1-0.3,0.2c0,0-0.1,0.1-0.1,0.1c-1.2,0.8-2.4,1.6-4,1.4c-0.8-0.9-4.3-2.5-6.4-3.1c0,0,0,0,0,0
		C265.7,41.1,268.4,39.7,269.5,39.6 M263.9,42.3c0.2,0,0.5,0,0.8,0.1c0.7,0.2,1.7,0.6,2.6,1c1.1,0.5,2.2,1,2.9,1.4v0
		c0.2,0.1,0.3,0.2,0.4,0.3c-0.1,0.1-0.2,0.2-0.3,0.3c0,0-0.1,0.1-0.1,0.1c-1.1,0.9-2.2,1.8-3.9,1.7c-0.9-0.8-4.5-2.1-6.6-2.5h0
		C260.2,44.1,262.8,42.5,263.9,42.3 M258.5,45.5c0.2,0,0.5,0,0.8,0h0c0.7,0.1,1.8,0.4,2.8,0.8h0c1,0.3,2.1,0.7,2.7,1.1h0
		c0.2,0.1,0.4,0.2,0.6,0.3l-0.4,0.4c-1,1-2,2-3.7,2.1c-1-0.7-4.6-1.7-6.8-1.9c0,0,0,0,0,0C254.9,47.6,257.4,45.8,258.5,45.5
		 M253.4,49.1c0.2,0,0.5,0,0.9,0c0.8,0.1,1.8,0.3,2.9,0.5c1.1,0.3,2.1,0.6,2.9,0.8c0.2,0.1,0.4,0.2,0.6,0.2
		c-0.1,0.1-0.2,0.2-0.2,0.3c0,0-0.1,0.1-0.1,0.1c-0.9,1.1-1.8,2.2-3.5,2.4c-1-0.6-4.7-1.3-7-1.3c0,0,0,0,0,0
		C250.1,51.5,252.3,49.5,253.4,49.1 M248.6,53.2c0.2-0.1,0.5-0.1,0.9-0.1c0.7,0,1.8,0.1,2.8,0.3h0c1.2,0.2,2.3,0.4,3.1,0.6
		c0,0,0,0,0,0c0.2,0,0.4,0.1,0.5,0.2c-0.1,0.1-0.1,0.2-0.2,0.3c0,0-0.1,0.1-0.1,0.1c-0.8,1.2-1.7,2.3-3.3,2.7
		c-1.1-0.5-4.8-0.8-7.1-0.7c0,0,0,0,0,0C245.5,55.9,247.6,53.6,248.6,53.2 M244.3,57.7c0.2-0.1,0.5-0.1,0.9-0.2c0.8-0.1,1.9,0,3.1,0
		c1.1,0.1,2.2,0.2,2.9,0.3h0h0h0h0c0.2,0,0.4,0.1,0.5,0.1c-0.1,0.1-0.1,0.2-0.2,0.3c0,0-0.1,0.1-0.1,0.2c-0.7,1.2-1.4,2.5-3,2.9
		c-1.1-0.4-4.9-0.4-7.1-0.1c0,0,0,0,0,0C241.4,60.6,243.3,58.2,244.3,57.7 M240.3,62.5c0.2-0.1,0.5-0.2,0.8-0.2h0
		c0.7-0.1,1.8-0.2,2.9-0.2h0.1c1.1,0,2.1,0,2.9,0.1h0h0c0.3,0,0.5,0,0.7,0.1c-0.1,0.1-0.1,0.2-0.2,0.4c0,0,0,0.1-0.1,0.2
		c-0.6,1.3-1.2,2.6-2.8,3.2c-1.1-0.4-4.9,0-7.1,0.5c0,0,0,0,0,0C237.7,65.7,239.3,63.1,240.3,62.5 M236.7,67.6
		c0.1-0.1,0.4-0.2,0.8-0.3c0.8-0.2,1.9-0.4,3-0.5h0.1c1.1-0.1,2.1-0.2,2.9-0.2h0c0.2,0,0.4,0,0.6,0c0,0.1-0.1,0.2-0.1,0.4
		c0,0.1,0,0.1-0.1,0.2c-0.5,1.3-1,2.7-2.5,3.4c-1.2-0.2-4.9,0.4-7,1.2c0,0,0,0,0,0C234.4,71,235.9,68.3,236.7,67.6 M233.7,73.1
		c0.1-0.1,0.4-0.3,0.8-0.4c0.7-0.2,1.7-0.5,2.7-0.7c0,0,0,0,0,0c0,0,0,0,0,0h0c0,0,0.1,0,0.1,0c1.1-0.2,2.2-0.4,2.9-0.4h0
		c0.2,0,0.4,0,0.6,0c0,0.1-0.1,0.2-0.1,0.4c0,0,0,0.1,0,0.2c-0.4,1.4-0.8,2.7-2.2,3.6c-1.2-0.2-4.8,0.8-6.9,1.8h0
		C231.7,76.7,232.8,73.9,233.7,73.1 M231.1,78.8c0.1-0.1,0.4-0.3,0.7-0.4c0.7-0.3,1.7-0.7,2.8-1c0,0,0,0,0,0l0,0h0.1c0,0,0,0,0.1,0
		c0,0,0,0,0,0c0,0,0,0,0,0c1-0.3,1.9-0.5,2.6-0.6h0.1c0.2,0,0.4-0.1,0.6-0.1c0,0.1,0,0.2-0.1,0.4c0,0,0,0.1,0,0.2
		c-0.2,1.4-0.5,2.8-1.8,3.8c-1.2,0-4.8,1.3-6.7,2.4h0C229.4,82.5,230.3,79.6,231.1,78.8 M229,84.7c0.1-0.1,0.4-0.3,0.7-0.5
		c0.6-0.4,1.6-0.8,2.5-1.2h0l0,0c0,0,0,0,0.1,0c1.1-0.4,2.2-0.8,2.9-1c0,0,0,0,0.1,0c0.2,0,0.3-0.1,0.5-0.1c0,0.1,0,0.3,0,0.4
		c0,0,0,0.1,0,0.2c-0.1,1.4-0.3,2.9-1.5,4c-1.2,0.1-4.6,1.7-6.5,2.9h0C227.6,88.6,228.3,85.6,229,84.7 M227.4,90.7
		c0.1-0.2,0.3-0.4,0.7-0.6c0.6-0.4,1.5-0.9,2.5-1.4c0,0,0.1,0,0.1,0c0,0,0,0,0,0c0.1,0,0.2-0.1,0.2-0.1c0,0,0,0,0,0
		c0.9-0.4,1.7-0.8,2.4-1h0h0c0,0,0,0,0,0c0,0,0,0,0,0h0c0.2-0.1,0.4-0.1,0.5-0.2v0.6c0,1.4,0,2.8-1.1,4.1c-1.2,0.2-4.5,2.1-6.2,3.5
		h0C226.4,94.7,226.8,91.7,227.4,90.7 M226.4,96.9c0.1-0.2,0.3-0.4,0.6-0.6h0c0.5-0.5,1.4-1,2.2-1.6c0,0,0.1,0,0.1-0.1c0,0,0,0,0,0
		c1-0.6,1.9-1.1,2.6-1.5h0c0,0,0,0,0,0c0,0,0,0,0,0c0.2-0.1,0.4-0.2,0.5-0.2c0,0.1,0,0.3,0,0.4v0.2c0.1,1.4,0.2,2.8-0.8,4.2
		c-1.2,0.3-4.3,2.5-5.9,4c0,0,0,0,0,0C225.7,101,225.9,97.9,226.4,96.9 M225.9,103.2c0.1-0.2,0.2-0.4,0.5-0.7
		c0.5-0.5,1.4-1.2,2.3-1.9c0,0,0,0,0,0l0,0h0c0.9-0.7,1.8-1.3,2.5-1.7c0.2-0.1,0.4-0.2,0.5-0.3c0,0.1,0,0.3,0.1,0.4c0,0,0,0.1,0,0.2
		c0.2,1.4,0.5,2.8-0.4,4.2c-1.1,0.4-4,2.8-5.5,4.5v0h0C225.6,107.2,225.5,104.2,225.9,103.2 M226.4,114.1c-0.3-0.6-0.7-3.7-0.4-4.7
		c0-0.2,0.2-0.4,0.5-0.7v0c0.5-0.6,1.3-1.3,2.1-2.1c0,0,0.1-0.1,0.1-0.1c0.8-0.7,1.6-1.4,2.2-1.8c0,0,0,0,0,0
		c0.2-0.1,0.4-0.2,0.5-0.3c0,0.1,0.1,0.2,0.1,0.4c0,0.1,0,0.1,0,0.2c0.4,1.4,0.7,2.7-0.1,4.2C230.4,109.6,227.7,112.3,226.4,114.1
		C226.4,114.1,226.4,114.1,226.4,114.1 M227.4,120.3c-0.4-0.6-1-3.6-0.8-4.7c0-0.2,0.2-0.4,0.4-0.8c0.4-0.6,1.1-1.4,1.8-2.2l0.1-0.1
		c0.7-0.8,1.5-1.6,2.1-2l0,0l0,0c0,0,0,0,0,0v0l0,0c0,0,0,0,0,0c0.1-0.1,0.3-0.2,0.4-0.2c0,0.1,0.1,0.2,0.1,0.4c0,0,0,0.1,0.1,0.2
		c0.5,1.3,1,2.7,0.3,4.2c0,0,0,0,0,0C231,115.5,228.5,118.4,227.4,120.3C227.4,120.3,227.4,120.3,227.4,120.3 M228.9,126.4
		c-0.4-0.6-1.3-3.5-1.2-4.6c0-0.2,0.2-0.4,0.4-0.8c0.4-0.6,1-1.5,1.7-2.3c0,0,0,0,0,0l0,0c0,0,0,0,0,0c0,0,0,0,0,0
		c0.7-0.9,1.4-1.7,2-2.2v0c0,0,0,0,0,0c0.2-0.2,0.3-0.3,0.4-0.4l0.2,0.4c0,0,0,0.1,0.1,0.2c0.6,1.3,1.2,2.6,0.7,4.2
		C232.1,121.2,229.9,124.4,228.9,126.4C229,126.4,228.9,126.4,228.9,126.4 M231,132.3c-0.5-0.5-1.6-3.4-1.6-4.5
		c0-0.2,0.1-0.5,0.3-0.8c0.3-0.6,0.8-1.5,1.4-2.4v0c0.6-0.9,1.3-1.9,1.8-2.5v0c0,0,0,0,0,0c0.2-0.2,0.3-0.3,0.4-0.4
		c0,0.1,0.1,0.2,0.2,0.3c0,0,0.1,0.1,0.1,0.2c0.7,1.2,1.4,2.5,1,4.1v0C233.7,126.9,231.8,130.2,231,132.3
		C231,132.3,231,132.3,231,132.3 M233.6,138c-0.5-0.5-1.9-3.2-2-4.3c0-0.2,0.1-0.5,0.2-0.8c0.3-0.7,0.7-1.7,1.3-2.6c0,0,0,0,0,0
		c0,0,0,0,0,0c0.5-1,1.1-1.9,1.5-2.5v0c0.1-0.2,0.3-0.3,0.4-0.5c0.1,0.1,0.1,0.2,0.2,0.3c0,0,0.1,0.1,0.1,0.1c0.8,1.2,1.6,2.3,1.4,4
		C235.8,132.4,234.2,135.8,233.6,138L233.6,138z M236.6,143.4c-0.6-0.4-2.2-3-2.3-4.1c0-0.2,0-0.5,0.1-0.8v0c0.2-0.7,0.6-1.7,1-2.6
		c0,0,0,0,0,0c0-0.1,0-0.1,0.1-0.2c0.4-1,0.9-2,1.3-2.7c0,0,0,0,0,0v0v0c0,0,0,0,0,0v0c0,0,0,0,0,0c0.1-0.2,0.2-0.3,0.3-0.4
		c0.1,0.1,0.2,0.2,0.2,0.3c0,0,0.1,0.1,0.1,0.1c0.9,1.1,1.8,2.2,1.7,3.9C238.4,137.7,237.1,141.2,236.6,143.4
		C236.7,143.4,236.7,143.4,236.6,143.4 M240.2,148.6C240.2,148.6,240.2,148.6,240.2,148.6c-0.6-0.3-2.5-2.8-2.7-3.9
		c0-0.2,0-0.5,0-0.9c0.1-0.7,0.4-1.8,0.8-2.8c0,0,0,0,0,0c0,0,0,0,0,0c0,0,0,0,0-0.1c0.3-1,0.7-2,1.1-2.7c0.1-0.2,0.2-0.4,0.3-0.6
		c0.1,0.1,0.2,0.2,0.3,0.3c0,0,0.1,0.1,0.1,0.1c1,1,2,2,2.1,3.7C241.4,142.7,240.4,146.4,240.2,148.6 M244.2,153.4
		C244.2,153.4,244.2,153.4,244.2,153.4c-0.6-0.3-2.7-2.6-3-3.6c-0.1-0.2-0.1-0.5,0-0.9v0c0.1-0.8,0.3-1.8,0.5-2.9c0,0,0-0.1,0-0.1
		c0,0,0,0,0,0c0.2-1,0.5-2,0.8-2.7c0,0,0,0,0,0c0.1-0.2,0.1-0.4,0.2-0.5c0.1,0.1,0.2,0.2,0.3,0.3c0,0,0.1,0.1,0.1,0.1
		c1.1,0.9,2.2,1.8,2.4,3.5C244.9,147.5,244.2,151.2,244.2,153.4 M248.5,157.9C248.5,157.9,248.5,157.9,248.5,157.9
		c-0.7-0.2-2.9-2.3-3.4-3.3c-0.1-0.2-0.1-0.5-0.1-0.9c0-0.7,0.1-1.8,0.3-2.8c0,0,0-0.1,0-0.1c0,0,0,0,0-0.1v0c0,0,0,0,0,0
		c0.2-1,0.3-1.9,0.5-2.6c0,0,0,0,0-0.1v0v0c0,0,0,0,0-0.1v0c0.1-0.2,0.1-0.4,0.2-0.5c0.1,0.1,0.2,0.2,0.3,0.2c0,0,0.1,0.1,0.1,0.1
		c1.2,0.8,2.3,1.7,2.7,3.3C248.7,151.9,248.4,155.7,248.5,157.9 M253.3,162C253.3,162,253.3,162,253.3,162c-0.7-0.2-3.1-2.1-3.6-3.1
		c-0.1-0.2-0.1-0.5-0.2-0.9c-0.1-0.8-0.1-1.9,0-2.9v0c0,0,0-0.1,0-0.1c0.1-1.1,0.2-2.1,0.3-2.8v0v0v0v0v0c0,0,0,0,0,0
		c0-0.2,0.1-0.4,0.1-0.5c0.1,0.1,0.2,0.1,0.3,0.2c0,0,0.1,0.1,0.2,0.1c1.2,0.7,2.5,1.4,2.9,3C252.9,156,252.9,159.8,253.3,162
		 M258.3,165.6c-0.7-0.2-3.3-1.8-3.9-2.8c-0.1-0.1-0.2-0.4-0.2-0.9c-0.1-0.7-0.2-1.8-0.2-2.8v-0.4c0-1,0-1.9,0-2.5v0v0l0,0v0v0
		c0-0.3,0-0.5,0.1-0.6c0.1,0,0.2,0.1,0.4,0.2c0,0,0.1,0,0.2,0.1c1.3,0.6,2.6,1.2,3.2,2.8C257.5,159.7,257.8,163.4,258.3,165.6
		C258.4,165.6,258.4,165.6,258.3,165.6 M255,154.9c-0.3-0.1-0.5-0.2-0.8-0.4c-0.6-1.9-2.1-2.8-3.3-3.5c-0.3-0.2-0.5-0.3-0.7-0.4
		c-0.4-2-1.8-3-3-3.8c-0.2-0.2-0.5-0.3-0.7-0.5c-0.3-2-1.6-3.1-2.7-4c-0.2-0.2-0.4-0.4-0.7-0.6c-0.1-2-1.3-3.2-2.3-4.2
		c-0.2-0.2-0.4-0.4-0.6-0.6c0.1-2-1-3.3-1.9-4.4c-0.2-0.2-0.4-0.5-0.6-0.7c0.3-2-0.7-3.4-1.5-4.6c-0.2-0.2-0.3-0.5-0.5-0.7
		c0.4-1.9-0.4-3.4-1.1-4.7c-0.1-0.2-0.3-0.5-0.4-0.8c0.6-1.9-0.1-3.5-0.7-4.8c-0.1-0.3-0.2-0.6-0.4-0.8c0.8-1.8,0.2-3.5-0.3-4.8
		c-0.1-0.3-0.2-0.5-0.3-0.8c0.9-1.8,0.5-3.4,0.1-4.9c-0.1-0.3-0.2-0.6-0.2-0.8c1.1-1.7,0.8-3.4,0.5-4.8c-0.1-0.3-0.1-0.6-0.1-0.9
		c1.2-1.6,1.1-3.3,1-4.8c0-0.3-0.1-0.6-0.1-0.9c1.4-1.5,1.4-3.2,1.4-4.6c0-0.3,0-0.6,0-0.9c1.5-1.3,1.6-3.1,1.8-4.5
		c0-0.3,0-0.6,0.1-0.9c1.6-1.2,1.9-2.9,2.1-4.3c0.1-0.3,0.1-0.6,0.2-0.9c1.7-1.1,2.1-2.7,2.5-4.1c0.1-0.3,0.2-0.6,0.2-0.8
		c1.8-0.9,2.4-2.5,2.9-3.9c0.1-0.3,0.2-0.6,0.3-0.8c1.8-0.8,2.6-2.3,3.2-3.6c0.1-0.3,0.2-0.5,0.4-0.8c1.9-0.6,2.8-2.1,3.5-3.3
		c0.2-0.3,0.3-0.5,0.4-0.7c1.9-0.4,2.9-1.9,3.8-3c0.2-0.2,0.3-0.5,0.5-0.7c2-0.3,3.1-1.6,4-2.7c0.2-0.2,0.4-0.4,0.6-0.7
		c2-0.1,3.2-1.3,4.3-2.3c0.2-0.2,0.4-0.4,0.6-0.6h0.2c1.9,0,3.1-1,4.2-1.9c0.2-0.2,0.4-0.4,0.7-0.5c0.2,0,0.4,0,0.6,0
		c1.7,0,2.9-0.9,4-1.6c0.2-0.2,0.5-0.3,0.7-0.5h0c0.4,0.1,0.7,0.1,1,0.1c1.5,0,2.6-0.7,3.7-1.3c0.3-0.2,0.5-0.3,0.8-0.4
		c0.5,0.2,1,0.2,1.4,0.2c1.3,0,2.4-0.5,3.4-1c0.3-0.1,0.5-0.2,0.8-0.3c0.6,0.3,1.3,0.4,1.8,0.4c1.1,0,2.1-0.4,3-0.7
		c0.3-0.1,0.6-0.2,0.8-0.3c0.8,0.4,1.5,0.6,2.3,0.6c0.9,0,1.8-0.2,2.6-0.4c0.3-0.1,0.6-0.1,0.8-0.2c0.9,0.6,1.8,0.8,2.7,0.8
		c0.7,0,1.4-0.1,2.1-0.2c0.3-0.1,0.6-0.1,0.9-0.1c1.1,0.8,2.2,1,3.3,1c0.5,0,1,0,1.4-0.1c0.3,0,0.6-0.1,0.9-0.1
		c1.5,1.3,3.2,1.3,4.7,1.4c0.3,0,0.6,0,0.9,0c1.3,1.5,3.1,1.6,4.5,1.8c0.3,0,0.6,0.1,0.9,0.1c1.2,1.6,2.9,1.9,4.4,2.2
		c0.3,0,0.6,0.1,0.9,0.2c1.1,1.7,2.7,2.1,4.1,2.5c0.3,0.1,0.6,0.2,0.9,0.2c0.9,1.8,2.5,2.4,3.9,2.9c0.3,0.1,0.6,0.2,0.8,0.3
		c0.8,1.8,2.3,2.6,3.6,3.2c0.3,0.1,0.5,0.2,0.8,0.4c0.6,1.9,2.1,2.8,3.3,3.5c0.2,0.2,0.5,0.3,0.7,0.4c0.4,1.9,1.9,2.9,3,3.8
		c0.3,0.2,0.5,0.3,0.7,0.5c0.2,2,1.6,3.1,2.7,4c0.2,0.2,0.5,0.4,0.7,0.6c0.1,2,1.3,3.2,2.3,4.3c0.2,0.2,0.4,0.4,0.6,0.6
		c-0.1,2,1,3.3,1.9,4.4c0.2,0.2,0.4,0.4,0.6,0.7c-0.3,2,0.7,3.4,1.5,4.6c0.2,0.2,0.3,0.5,0.5,0.7c-0.4,1.9,0.4,3.4,1.1,4.7
		c0.1,0.3,0.3,0.5,0.4,0.8c-0.6,1.9,0.1,3.5,0.7,4.8c0.1,0.3,0.3,0.5,0.4,0.8c-0.8,1.8-0.2,3.5,0.3,4.8c0.1,0.3,0.2,0.6,0.3,0.8
		c-0.9,1.8-0.5,3.4-0.1,4.9c0.1,0.3,0.2,0.6,0.2,0.8c-1.1,1.7-0.8,3.4-0.5,4.8c0.1,0.3,0.1,0.6,0.1,0.9c-1.2,1.6-1.1,3.3-1,4.8
		c0,0.3,0,0.6,0.1,0.9c-1.3,1.5-1.4,3.2-1.4,4.7c0,0.3,0,0.6,0,0.9c-1.5,1.4-1.6,3.1-1.8,4.5c0,0.3-0.1,0.6-0.1,0.9
		c-1.6,1.2-1.9,2.9-2.1,4.4c-0.1,0.3-0.1,0.6-0.2,0.9c-1.7,1.1-2.1,2.7-2.5,4.1c-0.1,0.3-0.2,0.6-0.2,0.8c-1.8,0.9-2.4,2.5-2.9,3.9
		c-0.1,0.3-0.2,0.6-0.3,0.8c-1.8,0.8-2.6,2.3-3.2,3.6c-0.1,0.3-0.2,0.5-0.4,0.8c-1.9,0.6-2.8,2.1-3.5,3.3c-0.1,0.3-0.3,0.5-0.4,0.7
		c-1.9,0.4-2.9,1.8-3.8,3c-0.2,0.2-0.3,0.5-0.5,0.7c-2,0.2-3.1,1.6-4,2.7c-0.2,0.2-0.4,0.4-0.6,0.6c-2,0.1-3.2,1.3-4.2,2.3
		c-0.2,0.2-0.4,0.4-0.6,0.6c-2-0.1-3.3,1-4.4,2c-0.2,0.2-0.5,0.4-0.7,0.5c-2-0.3-3.4,0.7-4.6,1.6c-0.2,0.2-0.5,0.3-0.7,0.5
		c-1.9-0.4-3.4,0.4-4.7,1.1c-0.3,0.2-0.5,0.3-0.8,0.4c-1.9-0.6-3.5,0.1-4.8,0.7c-0.3,0.1-0.5,0.2-0.8,0.3c-1.8-0.8-3.5-0.2-4.8,0.3
		c-0.3,0.1-0.6,0.2-0.8,0.3c-1.8-0.9-3.4-0.5-4.8-0.1c-0.3,0.1-0.6,0.1-0.8,0.2c-1.7-1.1-3.4-0.8-4.8-0.5c-0.3,0-0.6,0.1-0.8,0.1
		c-1.6-1.2-3.3-1.1-4.8-1c-0.3,0-0.6,0.1-0.9,0.1c-1.5-1.3-3.2-1.3-4.7-1.4c-0.3,0-0.6,0-0.9,0c-1.3-1.5-3.1-1.6-4.5-1.8
		c-0.3,0-0.6-0.1-0.9-0.1c-1.2-1.6-2.9-1.9-4.4-2.2c-0.3,0-0.6-0.1-0.8-0.2c-1.1-1.7-2.7-2.1-4.2-2.5c-0.3-0.1-0.6-0.2-0.8-0.2
		c-0.9-1.8-2.5-2.4-3.9-2.9c-0.3-0.1-0.5-0.2-0.8-0.3C257.9,156.3,256.3,155.5,255,154.9 M263.7,168.8c-0.7-0.1-3.4-1.5-4.1-2.4
		c-0.1-0.1-0.2-0.4-0.3-0.8v0c-0.2-0.7-0.4-1.9-0.5-3c0,0,0-0.1,0-0.1c-0.1-1.1-0.2-2.1-0.2-2.9v0c0-0.2,0-0.4,0-0.6
		c0.1,0,0.2,0.1,0.4,0.1c0.1,0,0.1,0,0.2,0c1.3,0.5,2.7,1,3.4,2.5C262.3,162.9,263,166.7,263.7,168.8L263.7,168.8z M269.4,171.5
		c-0.7,0-3.5-1.2-4.3-2.1c-0.1-0.1-0.2-0.4-0.4-0.8v0c-0.2-0.7-0.5-1.7-0.7-2.8v-0.1c0,0,0,0,0,0c0,0,0,0,0,0v0
		c-0.2-1.1-0.4-2.1-0.4-2.8c0-0.2,0-0.5,0-0.6c0.1,0,0.2,0.1,0.4,0.1c0.1,0,0.1,0,0.2,0c1.3,0.4,2.7,0.8,3.6,2.2
		C267.5,165.8,268.5,169.5,269.4,171.5L269.4,171.5z M275.2,173.8c-0.7,0-3.6-0.9-4.5-1.7c-0.1-0.1-0.3-0.4-0.5-0.8
		c-0.3-0.7-0.7-1.8-1-2.8c0,0,0,0,0,0v0c-0.3-1-0.6-2-0.7-2.7v0c0,0,0,0,0,0c0,0,0,0,0,0c0-0.2-0.1-0.4-0.1-0.6c0.1,0,0.2,0,0.4,0.1
		l0.2,0c1.4,0.2,2.8,0.5,3.8,1.8C272.8,168.2,274.2,171.8,275.2,173.8L275.2,173.8z M281.3,175.4c-0.7,0.1-3.7-0.6-4.6-1.3
		c-0.2-0.1-0.3-0.3-0.5-0.7c-0.4-0.6-0.8-1.6-1.2-2.6c0,0,0,0,0,0v0c0,0,0,0,0-0.1v0c0,0,0,0,0,0c-0.4-1-0.8-2.1-1-2.8c0,0,0,0,0,0
		c-0.1-0.2-0.1-0.4-0.1-0.6c0.1,0,0.3,0,0.4,0c0,0,0.1,0,0.2,0c1.4,0.1,2.9,0.3,4,1.5C278.4,170.1,280,173.5,281.3,175.4
		L281.3,175.4z M287.4,176.6c-0.7,0.2-3.7-0.3-4.7-0.9c-0.1-0.1-0.4-0.3-0.6-0.6c-0.4-0.6-0.9-1.5-1.4-2.5c0,0,0-0.1,0-0.1
		c-0.1-0.1-0.1-0.3-0.2-0.4c-0.4-0.8-0.8-1.6-1-2.3c0,0,0,0,0,0v0l0,0v0c0,0,0,0,0,0c0,0,0,0,0,0c0,0,0,0,0,0c0,0,0,0,0,0
		c-0.1-0.2-0.1-0.3-0.1-0.5c0.1,0,0.3,0,0.4,0c0.1,0,0.1,0,0.2,0c1.4,0,2.8,0,4.1,1.2C284.1,171.5,286,174.8,287.4,176.6
		L287.4,176.6z M288.9,176.8c-0.2-0.1-0.4-0.3-0.6-0.6c-0.5-0.6-1-1.4-1.6-2.3c0,0,0-0.1,0-0.1c0,0,0-0.1-0.1-0.1
		c-0.6-0.9-1.1-1.9-1.4-2.6v0c0,0,0,0,0,0c0,0,0,0,0,0c-0.1-0.2-0.2-0.4-0.2-0.5l0.4,0c0.1,0,0.1,0,0.2,0c1.4-0.1,2.8-0.2,4.2,0.8
		c0.1,0.6,0.8,1.7,1.5,2.8c0.8,1.1,1.7,2.3,2.5,3.1c0,0,0,0,0,0C293,177.4,289.9,177.3,288.9,176.8 M295.1,177.2
		c-0.2-0.1-0.4-0.2-0.7-0.5l0,0c-0.5-0.5-1.2-1.3-1.8-2.2c0,0,0,0,0,0c0-0.1-0.1-0.1-0.2-0.2c0,0,0,0,0,0c-0.6-0.8-1.2-1.7-1.5-2.3
		c0,0,0,0,0,0c-0.1-0.2-0.2-0.4-0.3-0.5c0.1,0,0.2,0,0.4-0.1c0,0,0.1,0,0.2,0c1.4-0.2,2.8-0.5,4.2,0.4c0.3,1.1,2.8,4,4.5,5.5
		c0,0,0,0,0,0C299.2,177.6,296.2,177.7,295.1,177.2 M301.4,177.2c-0.2-0.1-0.4-0.2-0.7-0.5c-0.5-0.4-1.2-1.1-1.9-1.9
		c0,0,0-0.1-0.1-0.1c0-0.1-0.1-0.1-0.2-0.2l0,0c0,0,0-0.1-0.1-0.1c-0.7-0.8-1.3-1.6-1.8-2.2v0c0,0,0,0,0,0v0c0,0,0,0,0,0
		c0,0,0,0,0,0c-0.1-0.2-0.2-0.4-0.3-0.5c0.1,0,0.3-0.1,0.4-0.1c0.1,0,0.1,0,0.2,0c1.4-0.3,2.8-0.7,4.2,0.1c0.5,1.1,3.2,3.8,5,5.1
		c0,0,0,0,0,0C305.5,177.1,302.5,177.5,301.4,177.2 M307.6,176.6c-0.2,0-0.4-0.2-0.8-0.4c-0.6-0.4-1.4-1.1-2.2-1.9
		c0,0-0.1-0.1-0.1-0.1h0c0,0,0-0.1-0.1-0.1c0,0,0,0,0,0c0,0,0,0,0,0l0,0l0,0c-0.7-0.7-1.4-1.3-1.8-1.9l0,0c0,0,0,0,0,0c0,0,0,0,0,0
		c0,0,0,0,0,0c-0.1-0.2-0.2-0.3-0.3-0.4c0.1,0,0.3-0.1,0.4-0.1c0.1,0,0.1,0,0.2-0.1c1.3-0.5,2.7-1,4.2-0.3v0c0.6,1,3.5,3.5,5.4,4.6
		c0,0,0,0,0,0C311.7,176.2,308.7,176.8,307.6,176.6 M313.7,175.5c-0.2,0-0.4-0.2-0.8-0.4c-0.6-0.4-1.5-1-2.4-1.7c0,0,0,0,0,0
		c0,0,0,0,0,0c0,0,0,0,0,0c0,0-0.1-0.1-0.1-0.1c0,0,0,0-0.1,0v0c0,0,0,0,0,0c0,0,0,0-0.1,0l0,0c-0.8-0.6-1.4-1.2-1.9-1.7l0,0v0
		c-0.2-0.2-0.3-0.3-0.4-0.4l0.4-0.2c0.1,0,0.1,0,0.2-0.1c1.3-0.6,2.6-1.2,4.2-0.7c0.6,1,3.8,3.2,5.8,4.2c0,0,0,0,0,0
		C317.8,174.7,314.9,175.6,313.7,175.5 M324.3,172.2c-0.5,0.5-3.4,1.6-4.5,1.6c-0.2,0-0.5-0.1-0.8-0.3v0c-0.7-0.3-1.6-0.8-2.5-1.4
		c0,0,0,0-0.1,0c-0.9-0.6-1.8-1.3-2.4-1.8l0,0c-0.2-0.2-0.3-0.3-0.4-0.4c0.1-0.1,0.2-0.1,0.3-0.2c0,0,0.1-0.1,0.2-0.1
		c1.2-0.7,2.5-1.4,4.1-1c0.4,0.5,1.4,1.2,2.6,1.9C321.9,171.1,323.2,171.7,324.3,172.2L324.3,172.2z M325.6,171.6
		c-0.2,0-0.5-0.1-0.9-0.2c-0.7-0.3-1.7-0.8-2.7-1.3c0,0-0.1-0.1-0.2-0.1h0c0,0-0.1,0-0.1,0c-0.9-0.5-1.7-1-2.3-1.4c0,0,0,0,0,0
		c-0.2-0.1-0.4-0.2-0.5-0.4c0.1-0.1,0.2-0.1,0.3-0.2c0,0,0.1-0.1,0.2-0.1c1.2-0.8,2.3-1.6,4-1.4c0.8,0.9,4.3,2.5,6.4,3.1
		c0,0,0,0,0,0C329.5,170.1,326.8,171.5,325.6,171.6 M331.3,168.9c-0.2,0-0.5,0-0.8-0.1h0c-0.7-0.2-1.7-0.6-2.6-1
		c0,0-0.1-0.1-0.2-0.1c0,0-0.1,0-0.1,0c-1-0.4-1.9-0.9-2.5-1.3c0,0,0,0,0,0c0,0,0,0,0,0h0c-0.2-0.1-0.4-0.2-0.5-0.3
		c0.1-0.1,0.2-0.2,0.3-0.2c0,0,0.1-0.1,0.1-0.1c1.1-0.9,2.2-1.8,3.9-1.7c0.9,0.8,4.5,2.1,6.6,2.5c0,0,0,0,0,0
		C335,167.1,332.4,168.7,331.3,168.9 M336.7,165.7c-0.2,0-0.5,0-0.8,0c-0.8-0.1-1.8-0.4-2.9-0.8c0,0,0,0,0,0c-1-0.4-2.1-0.7-2.7-1.1
		h0c-0.2-0.1-0.4-0.2-0.6-0.3l0.3-0.3l0.1-0.1c1-1,2-2,3.7-2.1c0.9,0.7,4.6,1.7,6.9,1.9c0,0,0,0,0,0
		C340.2,163.6,337.8,165.4,336.7,165.7 M341.7,162.1c-0.2,0-0.5,0-0.9,0c-0.7-0.1-1.7-0.3-2.8-0.5c0,0-0.1,0-0.1,0l0,0h0
		c-1.1-0.3-2.1-0.6-2.8-0.8c0,0,0,0-0.1,0h0c-0.2-0.1-0.4-0.2-0.5-0.2c0.1-0.1,0.2-0.2,0.3-0.3c0,0,0.1-0.1,0.1-0.1
		c0.9-1.1,1.8-2.2,3.5-2.4c1,0.6,4.8,1.3,7,1.3h0C345.1,159.7,342.8,161.7,341.7,162.1 M346.5,158c-0.2,0.1-0.5,0.1-0.9,0.1
		c-0.7,0-1.7-0.1-2.7-0.2h-0.1c-1.1-0.2-2.3-0.4-3-0.6h0c0,0,0,0,0,0c0,0,0,0,0,0c-0.2,0-0.4-0.1-0.5-0.2l0.2-0.3
		c0,0,0.1-0.1,0.1-0.1c0.8-1.1,1.7-2.3,3.3-2.7c0.9,0.4,3.6,0.7,5.8,0.7c0.5,0,0.9,0,1.3,0l0,0C349.6,155.3,347.5,157.5,346.5,158
		 M350.9,153.5c-0.2,0.1-0.4,0.2-0.8,0.2c-0.7,0.1-1.8,0.1-2.9,0h0c0,0,0,0-0.1,0c-1.1-0.1-2.2-0.2-2.9-0.3c0,0,0,0,0,0h0h0h0h0h0
		c-0.2,0-0.4-0.1-0.5-0.1c0.1-0.1,0.1-0.2,0.2-0.3c0,0,0.1-0.1,0.1-0.1c0.7-1.2,1.4-2.5,3.1-2.9c0.6,0.2,1.9,0.3,3.3,0.3
		c1.3,0,2.7-0.1,3.8-0.3c0,0,0,0,0,0C353.8,150.6,351.9,153,350.9,153.5 M354.9,148.7c-0.2,0.1-0.4,0.2-0.8,0.3
		c-0.7,0.1-1.9,0.2-3,0.2H351c-1.1,0-2.1,0-2.8,0c-0.3,0-0.5,0-0.7-0.1c0.1-0.1,0.1-0.2,0.2-0.4c0,0,0.1-0.1,0.1-0.2
		c0.6-1.3,1.2-2.6,2.7-3.2c0.3,0.1,0.8,0.2,1.5,0.2c1.6,0,4-0.3,5.6-0.7c0,0,0,0,0.1,0C357.5,145.5,355.8,148.1,354.9,148.7
		 M358.4,143.5c-0.1,0.1-0.4,0.2-0.8,0.3c-0.7,0.2-1.8,0.4-2.9,0.5l0,0h0h0h-0.1c-1.1,0.1-2.1,0.2-2.8,0.2h-0.1c-0.2,0-0.4,0-0.6,0
		c0-0.1,0.1-0.2,0.1-0.4c0-0.1,0-0.1,0.1-0.2c0.5-1.3,1-2.7,2.5-3.4c0.2,0,0.4,0,0.6,0c1.6,0,4.6-0.6,6.4-1.2h0
		C360.7,140.1,359.3,142.8,358.4,143.5 M361.5,138.1c-0.1,0.1-0.4,0.3-0.8,0.4h0c-0.7,0.2-1.7,0.5-2.8,0.7c-0.1,0-0.1,0-0.2,0
		c0,0,0,0-0.1,0c-1,0.2-2.1,0.4-2.8,0.4h0c-0.2,0-0.4,0-0.6,0c0-0.1,0.1-0.2,0.1-0.4c0,0,0-0.1,0-0.2c0.4-1.4,0.8-2.7,2.2-3.6
		c0.1,0,0.2,0,0.3,0c1.4,0,4.7-0.9,6.6-1.8h0C363.5,134.5,362.3,137.3,361.5,138.1 M364.1,132.4c-0.1,0.1-0.4,0.3-0.7,0.4
		c-0.7,0.3-1.7,0.7-2.7,1l0,0h0c0,0-0.1,0-0.1,0c-1,0.3-2.1,0.6-2.8,0.7h0h0c-0.2,0-0.4,0.1-0.6,0.1c0-0.1,0-0.2,0.1-0.4
		c0,0,0-0.1,0-0.2c0.2-1.4,0.5-2.8,1.8-3.8h0.1c1.2,0,4.8-1.3,6.7-2.3h0C365.8,128.7,364.8,131.6,364.1,132.4 M366.1,126.5
		c-0.1,0.1-0.4,0.3-0.7,0.5c-0.6,0.4-1.6,0.8-2.7,1.2c0,0,0,0,0,0c-1,0.4-2.1,0.8-2.8,1h0c-0.2,0.1-0.4,0.1-0.6,0.1
		c0-0.1,0-0.2,0-0.4c0-0.1,0-0.1,0-0.2c0.1-1.4,0.3-2.9,1.5-4c1.2-0.1,4.6-1.7,6.5-2.9h0C367.5,122.6,366.8,125.6,366.1,126.5
		 M367.7,120.5c-0.1,0.2-0.3,0.3-0.6,0.6c-0.6,0.4-1.6,1-2.6,1.5c0,0-0.1,0-0.1,0c-1,0.5-2,0.9-2.7,1.2c0,0,0,0,0,0c0,0,0,0,0,0
		c-0.2,0.1-0.3,0.1-0.5,0.1c0-0.1,0-0.3,0-0.4v-0.2c0-1.4,0-2.8,1.1-4.1c1.2-0.2,4.5-2.1,6.2-3.5c0,0,0,0,0,0
		C368.7,116.5,368.3,119.5,367.7,120.5 M368.7,114.3c-0.1,0.2-0.3,0.4-0.6,0.6c-0.5,0.4-1.3,1-2.2,1.5c0,0,0,0,0,0c0,0,0,0,0,0
		c0,0-0.1,0.1-0.1,0.1c-1,0.6-1.9,1.1-2.6,1.5c0,0,0,0,0,0c0,0,0,0,0,0c-0.2,0.1-0.4,0.2-0.5,0.2l0-0.4c0,0,0-0.1,0-0.2
		c-0.1-1.4-0.2-2.9,0.8-4.2c0.6-0.1,1.6-0.7,2.8-1.5c1.1-0.8,2.3-1.7,3.1-2.5c0,0,0,0,0,0C369.4,110.2,369.2,113.3,368.7,114.3
		 M369.2,108c-0.1,0.2-0.3,0.4-0.5,0.7l0,0c-0.5,0.5-1.4,1.2-2.3,1.9c0,0,0,0,0,0c0,0-0.1,0-0.1,0c0,0,0,0-0.1,0
		c-0.8,0.6-1.7,1.2-2.3,1.5c0,0,0,0,0,0c0,0,0,0,0,0c-0.2,0.1-0.4,0.2-0.5,0.3c0-0.1,0-0.3-0.1-0.4c0,0,0-0.1,0-0.2
		c-0.2-1.4-0.5-2.8,0.4-4.2c1.1-0.4,4-2.8,5.5-4.5c0,0,0,0,0,0C369.5,103.9,369.6,107,369.2,108"/>
	<path class="st0" d="M312.3,92l3.6,2.1v4.1l-14.1,8.2c-0.2,0.1-0.3,0.3-0.3,0.5v8.6c0,0.1,0.1,0.1,0.2,0.1l10.6-6.1l3.6,2.1v4.3
		L298.2,126c-0.2,0.1-0.4,0.2-0.6,0.2c-0.2,0-0.4,0-0.6-0.2l-17.7-10.2v-4.3l3.6-2.1l10.6,6.1c0.1,0,0.2,0,0.2-0.1v-8.6
		c0-0.2-0.1-0.4-0.3-0.5l-14.1-8.2v-4.1l3.6-2.1l14,8.1c0.2,0.1,0.4,0.2,0.7,0.2c0.2,0,0.5-0.1,0.7-0.2L312.3,92z"/>
	<path class="st0" d="M295.9,140.8c-0.1-0.1-0.2-0.1-0.3-0.1c-0.1,0-0.2,0-0.3,0.1c-0.1,0.1-0.1,0.2-0.1,0.4v1.1
		c0,0.3,0.1,0.5,0.4,0.5c0.3,0,0.4-0.2,0.4-0.5v-1.1C296,141,295.9,140.8,295.9,140.8 M295.9,140.8c-0.1-0.1-0.2-0.1-0.3-0.1
		c-0.1,0-0.2,0-0.3,0.1c-0.1,0.1-0.1,0.2-0.1,0.4v1.1c0,0.3,0.1,0.5,0.4,0.5c0.3,0,0.4-0.2,0.4-0.5v-1.1
		C296,141,295.9,140.8,295.9,140.8 M297.6,63.5c-23.2,0-42.1,18.9-42.1,42.1c0,23.2,18.9,42.1,42.1,42.1c23.2,0,42.1-18.9,42.1-42.1
		C339.7,82.4,320.8,63.5,297.6,63.5 M289,78.6l7.7-4.4c0.6-0.3,1.3-0.3,1.9,0l7.7,4.4c0.2,0.1,0.2,0.4,0,0.5l-7.4,4.3
		c-0.7,0.4-1.7,0.4-2.4,0l-7.4-4.3C288.7,79.1,288.7,78.7,289,78.6 M293,143.7h-3.1v-1l1.5-1.2c0.3-0.2,0.5-0.5,0.5-0.6
		c0-0.3-0.2-0.4-0.4-0.4c-0.3,0-0.4,0.2-0.4,0.5h-1.1c0-0.4,0.2-0.8,0.5-1.1c0.3-0.2,0.6-0.4,1.1-0.4c0.4,0,0.8,0.1,1.1,0.4
		c0.3,0.2,0.4,0.6,0.4,1c0,0.2-0.1,0.5-0.3,0.7c-0.1,0.2-0.4,0.4-0.7,0.6l-0.6,0.4h1.6V143.7z M297.1,142.2c0,0.5-0.2,0.8-0.5,1.1
		c-0.3,0.2-0.6,0.4-1.1,0.4c-0.4,0-0.8-0.1-1.1-0.4c-0.3-0.3-0.5-0.6-0.5-1.1v-1.1c0-0.5,0.2-0.8,0.5-1.1c0.3-0.2,0.6-0.4,1.1-0.4
		c0.4,0,0.8,0.1,1.1,0.4c0.3,0.3,0.5,0.6,0.5,1.1V142.2z M301.1,143.7H298v-1l1.5-1.2c0.3-0.2,0.5-0.5,0.5-0.6
		c0-0.3-0.1-0.4-0.4-0.4c-0.3,0-0.4,0.2-0.4,0.5H298c0-0.4,0.2-0.8,0.5-1.1c0.3-0.2,0.6-0.4,1.1-0.4c0.4,0,0.8,0.1,1.1,0.4
		c0.3,0.2,0.4,0.6,0.4,1c0,0.2-0.1,0.5-0.3,0.7c-0.1,0.2-0.4,0.4-0.7,0.6l-0.6,0.4h1.6V143.7z M305.3,143.7h-3.1v-1l1.5-1.2
		c0.3-0.2,0.5-0.5,0.5-0.6c0-0.3-0.1-0.4-0.4-0.4c-0.3,0-0.4,0.2-0.4,0.5h-1.1c0-0.4,0.2-0.8,0.5-1.1c0.3-0.2,0.6-0.4,1.1-0.4
		c0.4,0,0.8,0.1,1.1,0.4c0.3,0.2,0.4,0.6,0.4,1c0,0.2-0.1,0.5-0.3,0.7c-0.1,0.2-0.4,0.4-0.7,0.6l-0.6,0.4h1.6V143.7z M323.5,120.1
		c0,0.5-0.3,1-0.7,1.3l-24.5,14.2c-0.2,0.1-0.5,0.2-0.7,0.2c-0.2,0-0.5,0-0.7-0.2l-24.5-14.2c-0.5-0.3-0.7-0.7-0.7-1.3V89.7
		c0-0.5,0.3-1,0.7-1.3l9.5-5.5c0.2-0.1,0.5-0.1,0.7,0l14.4,8.3c0.2,0.1,0.4,0.2,0.6,0.2c0.2,0,0.4-0.1,0.6-0.2l14.4-8.3
		c0.2-0.1,0.5-0.1,0.7,0l9.5,5.5c0.4,0.3,0.7,0.7,0.7,1.3V120.1z M295.5,140.6c-0.1,0-0.2,0-0.3,0.1c-0.1,0.1-0.1,0.2-0.1,0.4v1.1
		c0,0.3,0.1,0.5,0.4,0.5c0.3,0,0.4-0.2,0.4-0.5v-1.1c0-0.2,0-0.3-0.1-0.4C295.8,140.7,295.7,140.6,295.5,140.6 M295.9,140.8
		c-0.1-0.1-0.2-0.1-0.3-0.1c-0.1,0-0.2,0-0.3,0.1c-0.1,0.1-0.1,0.2-0.1,0.4v1.1c0,0.3,0.1,0.5,0.4,0.5c0.3,0,0.4-0.2,0.4-0.5v-1.1
		C296,141,295.9,140.8,295.9,140.8 M295.9,140.8c-0.1-0.1-0.2-0.1-0.3-0.1c-0.1,0-0.2,0-0.3,0.1c-0.1,0.1-0.1,0.2-0.1,0.4v1.1
		c0,0.3,0.1,0.5,0.4,0.5c0.3,0,0.4-0.2,0.4-0.5v-1.1C296,141,295.9,140.8,295.9,140.8"/>
	<path class="st0" d="M254.1,83.3l-1.3-0.5l-1.8,4.8l-0.6-0.2l1.3-3.6l-4.8-1.8l-1.4,3.8l-0.6-0.2l1.7-4.5l-1.3-0.5l-1.7,4.5
		l-0.8-0.3l-0.6,1.5l2.6,1l-1.3,3.4l4.9,1.8l1.3-3.6l0.6,0.2l-1.7,4.8l1.3,0.5l1.7-4.8l1.7,0.6l0.6-1.5l-1.7-0.6L254.1,83.3z
		 M245.5,89.7l2.1-5.7l0.5,0.2l-2.1,5.7L245.5,89.7z M247.8,90.6l-0.5-0.2l2.1-5.7l0.5,0.2L247.8,90.6z M266.7,67.9l-3.3,3.5
		c0-0.8,0-1.6,0-2.3c1.2,0.4,1.8,0.2,2.2-0.2c0.5-0.5,0.4-1-0.2-1.9c-0.2-0.4-0.7-1-0.9-1.3l-1.2,0.6c0.2,0.2,0.6,0.7,0.7,0.9
		c0.2,0.2,0.2,0.4,0.2,0.4c0,0-0.2,0.1-0.5-0.1c-0.2-0.1-0.4-0.2-0.6-0.3c-0.2-1.1-0.6-2.1-1.3-3.3l-1.1,0.6
		c0.3,0.6,0.6,1.2,0.8,1.7c-0.5-0.4-1.1-0.8-1.7-1.3l1.6-1.7l-1-0.9l-0.7,0.8l0-1c-0.4,0-1.4,0-1.8,0.1v1.3l-0.5-0.5l-1,1.1l1.4,1.2
		l-1.6,1.7l3.6,3.4c0.3,0.3,0.4,0.4,0.4,0.7l-0.5-0.4l-0.9,0.9l-1.1-1l0.9-1l-1-0.9l-1.1,1.1l-0.9-0.9l1-1.1l-1-1l-1,1.1l-1-0.9
		l-1,1.1l1,0.9l-1.2,1.3l1,1l1.2-1.3l0.9,0.9l-1.5,1.6l1,0.9l1.7-1.8l2.7,2.5c-0.4,0-0.9-0.2-1.4-0.5c-0.4-0.4-0.8-0.8-1.3-1.2
		l-0.9,1c1.8,1.7,2.5,2.6,3.2,4.4l1.3-0.7c-0.3-0.6-0.6-1.2-0.8-1.7c1.3,0.2,2.5-0.4,3.8-1.8l4.3-4.7L266.7,67.9z M259.4,63.5
		l-0.6,0.7l-0.8-0.7C258.3,63.5,258.9,63.5,259.4,63.5 M262.2,72.6c-0.4,0.4-0.8,0.8-1.2,1.1l-1.2-1.2l0.9-0.9l-0.4-0.4l1.1,0.1
		c0-0.7,0.2-2.6,0.2-2.8l-1.3-0.6l-0.1,1l-2.2-2l0.7-0.7c1.1,1,2.2,1.7,3.2,2.3c0.1,0.9,0.1,1.8,0,3.1l1.3,0L262.2,72.6z
		 M283.6,58.1l-4.5,2.1l-3-6.5l3.8-1.8l-0.7-1.5l-9.2,4.3l0.7,1.5l3.8-1.8l3,6.5l-4.5,2.1l0.7,1.5l10.7-5L283.6,58.1z M300.4,57.1
		l0-0.9l2.4,0.1l0-1.4l-2.4-0.1l0-0.9l2.7,0.1l0-1.5l-6.9-0.2l0,1.5l2.6,0.1l0,0.9l-2.4-0.1l0,1.4l2.4,0.1l0,0.9l-3.3-0.1l0,1.6
		l8,0.2l0-1.5L300.4,57.1z M295.2,52.5l-0.3,0.2l0-0.9l1.4,0l0.1-1.5l-1.4,0l0-1.4c0.6-0.1,1.2-0.2,1.6-0.3l-0.3-1.5
		c-1.2,0.3-3.1,0.6-4.2,0.7l0.1,1.5c0.4,0,0.9-0.1,1.4-0.2l0,1.2l-1.6,0l0,1.5l1.4,0c-0.5,1.1-1.1,2.4-1.9,3.5l0.9,1.3
		c0.4-0.5,0.8-1.2,1.1-1.8l-0.1,4l1.5,0l0.1-4.5l0.8,1l1.1-0.9C296.3,53.9,295.5,52.9,295.2,52.5 M296.7,47.5l-0.1,4l6.5,0.2
		l0.1-4.1L296.7,47.5z M301.6,50.3l-3.4-0.1l0-1.3l3.4,0.1L301.6,50.3z M325.4,56.1l0.6-1.3l-6.6-2.9l-0.6,1.3l2.5,1.1l-0.5,1.1
		l-2.4-1l-2.8,6.2l1.3,0.6l2.1-4.8l1.1,0.5l-2.9,6.5l1.3,0.6l1.2-2.6l-0.3,1.3l0.8,0.4c1.1,0.5,1.5,0.3,1.9-0.8l2.3-5.1l-2.4-1.1
		l0.5-1.1L325.4,56.1z M322.7,57.8l-1.4,3.2c-0.2,0.5-0.3,0.5-0.7,0.3l-0.6-0.3l1.6-3.7L322.7,57.8z M317.8,50.6l-2.1,4.6
		c-1.3,3-1.9,3.7-4.7,4.4l0.7,1.5c2.8-0.9,3.9-2.1,5.4-5.4l2-4.5L317.8,50.6z M315.4,50.5l-3.2,7.2l1.3,0.6l3.2-7.2L315.4,50.5z
		 M342.9,69.4l-0.5-1.6c-0.6,0.2-1.7,0.4-2.5,0.4l-0.6-0.6l0.2,0.1c0.1-0.4,0.7-2.1,0.8-2.4l-1.4-0.6l-0.6,1.7l-1.1-1.2l0.3,0.1
		c0.1-0.4,0.5-2,0.6-2.4l-1.5-0.6c-0.1,0.4-0.3,1.1-0.5,1.7l-1.3-1.3l-2.1,1.9l1.1,1.2l1-0.9l5.6,6l-0.6,0.5l-5.3-5.7l-1.1,1
		l3.5,3.7c-0.4-0.3-1.7-0.7-2-0.8l-0.4,0.3l-3.5-3.8l-1.1,1.1l3.5,3.8l-0.7,0.6c-0.4,0.4-0.5,0.4-1-0.1l-1.1-1.2l-0.9,1.3l1.1,1.2
		c1.1,1.2,1.7,1.3,2.7,0.3l1-0.9l3.3,3.5l1.1-1.1l-3.1-3.3c1,0.3,2.7,0.9,3,1.2l0.7-0.6l1,1l2.1-1.9l-1.3-1.4
		C341.8,69.5,342.5,69.4,342.9,69.4 M350.4,80.5l-10.7,3.7l0.5,1.4l2.8-1l-0.8,0.4l0.2,0.6c0.4,1.3,1.1,1.6,2.6,1.1
		c1-0.3,1.7-1,2.6-2l2.7,0l1.4-0.5L350.4,80.5z M346.8,83.5c-0.7,1-1.3,1.5-1.9,1.7c-0.7,0.2-1,0.2-1.2-0.4l-0.1-0.3l5.9-2.1
		l0.4,1.1L346.8,83.5z M353.6,87.8l-0.8-1.3l-0.8,0.8l-0.9-2.7l-2.7,1l0.3,0.9l-1,0.4l1.8,5l1-0.4l0.3,1l2.7-1l-0.9-2.6
		C352.9,88.5,353.4,88,353.6,87.8 M350.6,91l-1.5-4.2l1-0.4l1.5,4.2L350.6,91z M346.3,86.5l-1.4,0.5l0.4,1.1c-1.6,0.5-2.3,0.3-4-1.1
		l-0.7,1.4c2,1.6,3.1,1.8,5.1,1.1l0,0l0.3,0.9l-2.5,0.8c-1.1,0.4-1.3,0.8-0.9,1.9l0.3,0.8c0.4,1,0.8,1.4,2,1
		c0.4-0.1,1.1-0.3,1.5-0.4l-0.2-1.3c-0.3,0.1-0.8,0.3-1.2,0.4c-0.4,0.1-0.5,0.1-0.6-0.2l-0.1-0.3c-0.1-0.3-0.1-0.4,0.3-0.6l2.1-0.7
		l0.7,1.9l1.4-0.5L346.3,86.5z"/>
	<path class="st0" d="M242.8,103.8c1,0,1.8,0.8,1.8,1.8c0,1-0.8,1.8-1.8,1.8c-1,0-1.8-0.8-1.8-1.8
		C241,104.6,241.8,103.8,242.8,103.8"/>
	<path class="st0" d="M351.7,103.8c1,0,1.8,0.8,1.8,1.8c0,1-0.8,1.8-1.8,1.8c-1,0-1.8-0.8-1.8-1.8
		C349.8,104.6,350.7,103.8,351.7,103.8"/>
	<polygon class="st0" points="245.3,114.9 239,116.2 239.9,120.1 240.9,119.9 240.3,117.2 242,116.9 242.5,119 243.5,118.8 
		243.1,116.6 244.5,116.3 245.1,118.9 246.1,118.7 	"/>
	<polygon class="st0" points="246.9,121.3 246.5,120.1 240.4,122.1 241.6,125.7 242.6,125.4 241.8,123 	"/>
	<polygon class="st0" points="248.2,125 242.2,127.4 242.7,128.6 248.7,126.2 	"/>
	<polygon class="st0" points="249.1,127.3 248.1,127.8 248.9,129.4 244.2,131.8 244.8,132.9 249.5,130.5 250.3,132.1 251.3,131.7 	
		"/>
	<polygon class="st0" points="251.9,132.6 246.5,136.1 248.7,139.5 249.6,138.9 248.1,136.6 249.5,135.7 250.7,137.6 251.6,137 
		250.4,135.1 251.7,134.3 253.1,136.5 254,135.9 	"/>
	<polygon class="st0" points="256.3,138.9 251.4,143 252.2,144 257.1,139.9 	"/>
	<path class="st0" d="M260.8,143.8l-1.8,1.8c-0.5,0.5-1,1.2-1.5,1.7l0,0l0.5-1.4l1.1-3.7l-0.9-0.9l-4.5,4.5l0.8,0.9l1.8-1.8
		c0.5-0.5,1-1.2,1.5-1.7l0,0l-0.5,1.4l-1.1,3.7l0.9,0.9l4.5-4.5L260.8,143.8z"/>
	<path class="st0" d="M264.5,147c-1-0.8-2.2-0.8-2.9,0c-0.6,0.7-0.4,1.5-0.1,2.2l0.4,0.8c0.3,0.5,0.5,0.9,0.2,1.3
		c-0.3,0.4-0.7,0.4-1.3-0.1c-0.4-0.4-0.7-1-0.8-1.6l-1.1,0.2c0.1,0.8,0.6,1.7,1.2,2.2c1.1,0.9,2.4,0.8,3,0c0.6-0.7,0.5-1.4,0.1-2.1
		l-0.4-0.8c-0.3-0.5-0.5-0.9-0.2-1.3c0.3-0.3,0.7-0.3,1.1,0c0.4,0.3,0.6,0.7,0.7,1.3l1-0.2C265.5,148.1,265.1,147.4,264.5,147"/>
	<polygon class="st0" points="266.6,148.7 266,149.6 267.5,150.6 264.6,155.1 265.7,155.8 268.6,151.3 270.1,152.3 270.7,151.4 	"/>
	<polygon class="st0" points="271.7,152 268.7,157.6 269.8,158.2 272.9,152.6 	"/>
	<polygon class="st0" points="273.9,153.2 273.5,154.1 275.1,154.9 273,159.7 274.1,160.2 276.3,155.4 277.9,156.1 278.4,155.1 	"/>
	<path class="st0" d="M282.9,156.6l-1.1,3.5c-0.4,1.3-1,1.6-1.7,1.3c-0.7-0.2-1-0.8-0.6-2.1l1.1-3.5l-1.2-0.4l-1.1,3.3
		c-0.6,2,0,3.1,1.5,3.6c1.5,0.5,2.6-0.1,3.3-2.1l1-3.3L282.9,156.6z"/>
	<polygon class="st0" points="285.2,157.3 285,158.3 286.7,158.6 285.7,163.9 287,164.1 288,158.9 289.8,159.2 290,158.2 	"/>
	<polygon class="st0" points="294.9,159.7 295,158.6 291.1,158.3 290.6,164.7 294.6,165 294.7,164 291.9,163.7 292.1,162 
		294.3,162.2 294.4,161.1 292.2,160.9 292.3,159.5 	"/>
	<path class="st0" d="M301.2,158.4c-1.7,0.1-2.8,1.4-2.6,3.5c0.1,2.1,1.4,3.2,3.1,3.1c1.7-0.1,2.8-1.5,2.6-3.5
		C304.1,159.4,302.9,158.3,301.2,158.4 M301.6,163.9c-0.9,0.1-1.6-0.8-1.7-2.1c-0.1-1.4,0.4-2.2,1.4-2.3c0.9-0.1,1.6,0.7,1.7,2.1
		C303.1,162.9,302.5,163.9,301.6,163.9"/>
	<polygon class="st0" points="309.5,161.2 309.4,160.2 307.1,160.6 306.8,158.9 309.5,158.5 309.3,157.4 305.4,158.1 306.5,164.4 
		307.8,164.2 307.3,161.6 	"/>
	<polygon class="st0" points="318.1,160.3 315.5,161.2 314.9,159.6 317.1,158.9 316.7,157.8 314.6,158.5 314.1,157.1 316.6,156.3 
		316.3,155.3 312.6,156.5 314.6,162.6 318.4,161.3 	"/>
	<path class="st0" d="M320.5,156.7l3.1,2.3l1.2-0.5l-2.7-5.8l-1.1,0.5l1.1,2.3c0.3,0.6,0.7,1.4,1.1,2l0,0l-1.2-1l-3.1-2.3l-1.2,0.6
		l2.7,5.8l1.1-0.5l-1.1-2.3c-0.3-0.7-0.7-1.3-1.1-1.9l0,0L320.5,156.7z"/>
	<path class="st0" d="M329.1,151.8l-1.9,1.2l0.6,0.9l1-0.6l0.7,1.1c-0.1,0.2-0.3,0.5-0.6,0.6c-1.1,0.7-2.1,0.3-2.8-0.9
		c-0.7-1.2-0.5-2.3,0.4-2.8c0.5-0.3,0.9-0.3,1.3-0.2l0.2-1.1c-0.6-0.2-1.3-0.2-2.1,0.3c-1.4,0.9-1.9,2.7-0.8,4.5
		c1.1,1.8,2.9,2.1,4.3,1.2c0.8-0.5,1.2-1.2,1.4-1.7L329.1,151.8z"/>
	<polygon class="st0" points="329.9,147.7 328.8,148.5 332.7,153.6 333.7,152.8 	"/>
	<path class="st0" d="M334.5,147.7l3.7,1.3l1-0.9l-4.3-4.8l-0.9,0.8l1.7,1.9c0.5,0.5,1.1,1.1,1.6,1.5l0,0l-1.4-0.6l-3.7-1.3l-1,0.9
		l4.3,4.8l0.9-0.8l-1.7-1.9c-0.5-0.5-1.1-1.1-1.6-1.5l0,0L334.5,147.7z"/>
	<polygon class="st0" points="342.7,142.8 340.8,144.8 339.6,143.7 341,142 340.2,141.3 338.7,143 337.7,142 339.4,140 338.6,139.3 
		336,142.2 340.8,146.5 343.5,143.5 	"/>
	<polygon class="st0" points="346.2,138 344.6,140.2 343.2,139.2 344.5,137.4 343.7,136.7 342.3,138.6 341.2,137.7 342.7,135.6 
		341.8,134.9 339.5,138.1 344.7,141.9 347.1,138.6 	"/>
	<path class="st0" d="M349.9,133.8l0.7-1.3h-3c0.1-0.8-0.2-1.5-1-2c-1.3-0.7-2.2,0-2.9,1.1l-1.1,1.9l5.6,3.2l0.6-1.1l-2.1-1.2
		l0.4-0.8L349.9,133.8z M346.3,133.3l-0.4,0.7l-1.7-1l0.4-0.7c0.4-0.7,0.8-1,1.4-0.6C346.6,132,346.7,132.6,346.3,133.3"/>
	<polygon class="st0" points="346,127.2 345.5,128.4 351.3,131.1 351.8,129.9 	"/>
	<path class="st0" d="M350.1,125l3.8-0.6l0.4-1.2l-6-2.1l-0.4,1.1l2.4,0.8c0.7,0.2,1.5,0.4,2.2,0.6l0,0l-1.5,0.1l-3.8,0.6l-0.4,1.2
		l6,2.1l0.4-1.1l-2.4-0.9c-0.7-0.2-1.5-0.4-2.1-0.6l0,0L350.1,125z"/>
	<path class="st0" d="M355.5,116.1l-2.8-0.6l-0.5,2.2l1,0.2l0.2-1.1l1.2,0.3c0.1,0.2,0.1,0.5,0.1,0.8c-0.3,1.2-1.2,1.7-2.6,1.4
		c-1.3-0.3-2-1.2-1.8-2.2c0.1-0.6,0.4-0.9,0.8-1.1l-0.6-0.8c-0.5,0.3-1,0.8-1.2,1.7c-0.4,1.7,0.5,3.3,2.6,3.7
		c2.1,0.5,3.5-0.6,3.9-2.3C356,117.4,355.8,116.6,355.5,116.1"/>
	<path class="st1" d="M403.8,62.7l-0.8-4.3c15.2,0,29-0.3,41.4-1l0.8,4.3c-3.7,0.1-9.6,0.3-17.7,0.6v3.1h21.6v4.1h-21.6v3.1h16.7V90
		h-16.7v2.9h18.1v3.7h-18.1v2.7h21.6v4.1h-49.6v-4.1h21.8v-2.7H403v-3.7h18.3V90h-16.9V72.5h16.9v-3.1h-21.6v-4.1h21.6v-2.9
		c-2.2,0-5.4,0.1-9.5,0.2H403.8z M410.4,79.3h10.9V76h-10.9V79.3z M410.4,86.3h10.9V83h-10.9V86.3z M438.4,76h-10.9v3.3h10.9V76z
		 M427.5,86.3h10.9V83h-10.9V86.3z"/>
	<path class="st1" d="M459.6,105.2c-0.4-0.3-1-0.8-1.6-1.4c-0.5-0.6-1.7-1.6-3.5-3.1c3.6-4.7,5.2-12,4.9-22V62.2h20.2
		c-0.4-0.7-1-1.9-1.6-3.7c-0.3-0.8-0.5-1.4-0.6-1.6l7.2-0.8c1,2.6,1.8,4.7,2.5,6.2h17.3v5.6h-38.7v11.3
		C465.8,90.2,463.8,98.9,459.6,105.2 M467.6,83v-5.8H481c0.1-2.2,0.2-4.8,0.2-7.8h6.4c0,3-0.1,5.6-0.2,7.8H503V83h-15.2
		c1.9,7.4,7.5,12.8,16.7,16.1c-1.4,2.3-2.4,4.2-3.1,5.6c-9.1-3.6-14.7-8.6-16.9-15.2c-1.6,6.2-7.1,11.5-16.5,16
		c-1.1-1.9-2.4-3.8-3.9-5.8c10.2-3.8,15.6-9.4,16.5-16.7H467.6z"/>
	<path class="st1" d="M511.4,75.2V69h20.2c0.1-3,0.2-7.3,0.2-12.8h6.8L538.3,69h20.4v6.2h-20.4c2.2,11.7,9.3,19.5,21.4,23.5
		c-0.8,0.7-1.9,2.1-3.3,4.1c-0.6,0.8-1,1.4-1.2,1.6C544.5,99.9,537.8,93,535,83.6c-2.1,8.8-8.8,15.9-20.4,21.4
		c-0.5-0.7-1.4-1.9-2.7-3.5c-0.8-1-1.4-1.7-1.9-2.3c13-5.4,20-13.4,20.8-24.1H511.4z"/>
	<path class="st1" d="M566.1,92.5v-5.6h22.6v-1.2l7.6-4.7h-21.8v-5.6h31.3v5.4l-9.9,6.2h18.9v5.6h-19.8V98c0.1,4.5-2.3,6.8-7.2,6.8
		c-1.2,0-2.8,0.1-4.7,0.2h-3.7c-0.4-2.3-0.8-4.3-1.2-5.8h6.8c2.7,0.1,4-1,3.7-3.3v-3.5H566.1z M567.1,77.5V65.7h29.8
		c2.3-3.4,4.5-6.6,6.4-9.5l6.8,1.6c-1.8,2.7-3.7,5.3-5.8,7.8h9.1v11.7h-6v-6.2h-34.2v6.2H567.1z M574.9,65.5
		c-1.5-2.5-3.1-4.9-4.7-7.4l6.4-1.6c0.1,0.3,0.4,0.7,0.8,1.2c1.9,2.6,3.3,4.5,4.1,5.8L574.9,65.5z M588.5,64.7
		c-0.7-1.2-1.8-3.1-3.3-5.6c-0.5-1.1-1-1.9-1.2-2.3l6.4-1c0.7,0.8,1.6,2.3,2.7,4.3c1,1.4,1.6,2.4,2.1,3.1L588.5,64.7z"/>
	<path class="st1" d="M622.8,105.2V57.9h45.5v47.3h-6.4v-2.5H629v2.5H622.8z M629,97.8h32.9V63.3H629V97.8z M631.7,72.1V67h27.8v5.1
		h-11.3v4.5h10.3v5.1h-4.9c0.4,0.4,1.2,1.2,2.3,2.3c1.2,1.1,2.1,1.9,2.7,2.5l-2.9,2.5h4.3v5.1h-28.6V89h10.9v-7.2h-9.7v-5.1h9.7
		v-4.5H631.7z M650.2,84.5l3.1-2.7h-5.1V89h6.2C652.8,87.2,651.4,85.7,650.2,84.5"/>
	<path class="st1" d="M685.3,74.2v-4.5h31.1v4.5h-10.7c-1.8,1-3.5,2-5.1,3.1c1.5,1.6,2.7,3.4,3.7,5.1c4.9-2.1,9.8-4.5,14.6-7.2
		l3.1,4.7c-0.7,0.3-1.8,0.8-3.3,1.6c-2.2,1-3.8,1.7-4.9,2.3c2.1,6.2,6,10.7,11.9,13.6c-0.3,0.4-0.8,1-1.6,1.9
		c-1,1.2-1.7,2.2-2.3,2.9c-6.4-3.8-10.7-9.2-12.8-16l-2.7,1c0.8,2.6,1.2,5.3,1.2,8c0.1,6.3-2.5,9.5-8,9.5h-7.2
		c-0.4-1.6-0.9-3.4-1.4-5.1h6c3.4,0.3,5-1.2,4.7-4.3c0-1-0.1-1.9-0.2-2.7c-5.9,4.5-13.5,8.2-22.8,11.1c-0.1-0.3-0.3-0.6-0.4-1
		c-1-1.8-1.7-3-2.3-3.7c9.7-2.5,17.8-6.2,24.3-11.3c0-0.1-0.1-0.4-0.2-0.8c-0.3-0.5-0.5-1-0.6-1.4c-6.3,4-13.1,7.1-20.4,9.5
		c-0.8-1.6-1.6-3.4-2.5-5.1c8-1.6,14.8-4.3,20.6-8c-0.5-0.7-1-1.3-1.4-1.9c-4.1,2.1-9.6,4-16.5,5.8c-0.4-0.7-1-1.8-1.6-3.3
		c-0.4-0.7-0.7-1.2-0.8-1.6c8.6-1.4,15.5-3.5,20.6-6.4H685.3z M677.5,71.7V60.8h20.8l-1.9-4.7l7.2-0.6c0.3,0.7,0.8,2,1.4,3.9
		c0.1,0.7,0.3,1.2,0.4,1.4h18.7v10.9H718v-5.8h-34.6v5.8H677.5z"/>
	<path class="st1" d="M736.9,89.2V67.6h14.8V55.9h6.4v3.5h21v4.9h-21v3.3h17.3v21.6h-16.1v3.7H781V98h-21.6v7.2H753V98h-21.4v-5.1
		H753v-3.7H736.9z M743.3,76.2h25.9v-3.7h-25.9V76.2z M743.3,84.5h25.9v-3.9h-25.9V84.5z"/>
	<path class="st1" d="M788.5,67.4v-4.9h7.4v-6.4h5.6v6.4h6.4v4.9h-6.4v6.2h7.2v4.9h-5.6v7h4.9v5.1h-4.9v7.6c2.1,0.6,4.7,0.8,8,0.8
		c3.6,0.1,8.1,0.1,13.6,0c6,0,9.9-0.1,11.7-0.2c-0.4,0.8-0.9,2.3-1.4,4.5c-0.1,0.3-0.2,0.5-0.2,0.6h-6.6c-7.8,0.1-13.7,0.1-17.5,0
		c-9.2,0.1-15-2.2-17.5-7c-0.6,2.9-1.6,5.6-3.1,8.2c-1.5-1.2-2.8-2.5-3.9-3.9c2.2-4.1,3.2-10.8,3.1-20l5.1,0.2c0,3.3-0.1,6-0.4,8.2
		c0.8,2.2,2.1,4,3.7,5.6V78.5h-10.9v-4.9h9.1v-6.2H788.5z M811.8,91.3l-2.9-4.1c1-1,1.4-2.3,1.4-4.1V64.5h9.5v-3.9
		c-0.1-1.9-0.2-3.4-0.2-4.5h5.1c0,2.9,0.1,5.7,0.2,8.4h10.9v5.1h-10.7c0.3,4.1,0.6,7.5,1,10.1c1.4-2.3,2.7-4.8,3.9-7.4l4.3,1.9
		c-2.1,4.5-4.3,8.4-6.6,11.7c0.4,1.2,1,2.4,1.6,3.5c0.4,1,0.9,1.4,1.4,1.4c0.4,0,0.8-0.5,1-1.6c0-0.1,0.1-0.5,0.2-1
		c0.3-2.3,0.4-4.2,0.4-5.6c0.1,0.1,0.5,0.3,1,0.4c1.2,0.8,2.2,1.3,2.9,1.4c0,0.1-0.1,0.4-0.2,0.8c-0.4,3.3-0.8,5.6-1.2,7
		c-0.6,2.7-1.9,4.2-4.1,4.3c-2.6-0.1-4.9-2.1-6.8-6c-2.2,2.9-4.9,5.6-8,8.2l-3.9-3.5c4.5-3.8,7.9-7.2,10.1-10.1
		c-1.1-4.4-1.9-9.6-2.3-15.6h-4.7v12.1c0.3-0.3,0.9-0.8,1.8-1.6c1-0.8,1.6-1.4,1.9-1.6c0.1,0.8,0.3,2,0.6,3.5
		c0.1,0.7,0.2,1.2,0.2,1.6c-2.5,2.2-4.5,4-6,5.6C813,90,812.3,90.7,811.8,91.3 M830.7,64.3c-1.1-1.9-2.5-3.9-4.3-6l3.3-2.1
		c1.9,1.9,3.5,3.8,4.7,5.8L830.7,64.3z"/>
	<polygon class="st1" points="845.3,66.4 845.3,60 888.3,60 888.3,66.4 870.2,66.4 870.2,96 891,96 891,101.8 842.6,101.8 842.6,96 
		863.4,96 863.4,66.4 	"/>
	<path class="st1" d="M897.7,76.2v-5.8h6.4v-6.4c-1.8,0.1-3.6,0.2-5.6,0.2c-0.1-2.1-0.4-3.8-0.8-5.3c4.7-0.1,10.4-0.5,17.3-1
		l0.8,5.1c-2.1,0.1-4.1,0.3-6.2,0.6v6.8h6v5.8h-6v3.9c2.7,1.9,5.1,3.7,7.2,5.3l-2.9,4.7c-0.7-0.7-1.9-1.8-3.7-3.3
		c1.2,1,1,0.8-0.6-0.6v18.9h-5.6V87.6c-1.4,3.4-3.1,6.4-5.1,8.8c-0.1-0.7-0.5-1.7-1-3.1c-0.4-1.4-0.8-2.4-1-3.1
		c3-4.2,5.4-8.9,7.2-14H897.7z M916.7,83.2v-4.9h29v4.9h-11.7v5.4h10.7v4.7h-10.7v5.3h13.2v4.5h-32.9v-4.5H928v-5.3h-10.7v-4.7H928
		v-5.4H916.7z M918.1,58.5H944v15.8h-25.9V58.5z M923.9,69.4h14.4v-6h-14.4V69.4z"/>
	<path class="st1" d="M954.7,60.6h4.7v30.2h-4.7V60.6z M960.2,105.7c-0.6-0.4-1.4-1-2.7-1.6c-1.1-0.8-2-1.4-2.7-1.9
		c3.6-3.2,5.9-6.4,7-9.7c1.2-3.2,1.9-7.9,1.9-14.2v-22h5.6v21.8C969.8,90.8,966.8,100,960.2,105.7 M972.2,63.9v-5.6h30.2v5.6h-12.6
		v6.4h10.9v22c0.1,3.7-1.5,5.6-4.9,5.8c-1,0.1-2.4,0.2-4.3,0.2c-0.1-1.1-0.4-2.6-0.8-4.5c-0.1-0.4-0.2-0.7-0.2-0.8h2.9
		c1.4,0,2.1-0.7,2.1-2.1V75.6h-5.6v29.6h-5.8V75.6h-5.6v22.8h-5.1V70.3h10.7v-6.4H972.2z"/>
	<path class="st1" d="M1008.5,92.5v-5.6h22.6v-1.2l7.6-4.7H1017v-5.6h31.3v5.4l-9.9,6.2h18.9v5.6h-19.8V98c0.1,4.5-2.3,6.8-7.2,6.8
		c-1.2,0-2.8,0.1-4.7,0.2h-3.7c-0.4-2.3-0.8-4.3-1.2-5.8h6.8c2.7,0.1,4-1,3.7-3.3v-3.5H1008.5z M1009.6,77.5V65.7h29.8
		c2.3-3.4,4.5-6.6,6.4-9.5l6.8,1.6c-1.8,2.7-3.7,5.3-5.8,7.8h9.1v11.7h-6v-6.2h-34.2v6.2H1009.6z M1017.4,65.5
		c-1.5-2.5-3.1-4.9-4.7-7.4l6.4-1.6c0.1,0.3,0.4,0.7,0.8,1.2c1.9,2.6,3.3,4.5,4.1,5.8L1017.4,65.5z M1031,64.7
		c-0.7-1.2-1.8-3.1-3.3-5.6c-0.5-1.1-1-1.9-1.2-2.3l6.4-1c0.7,0.8,1.6,2.3,2.7,4.3c1,1.4,1.6,2.4,2.1,3.1L1031,64.7z"/>
	<path class="st1" d="M1065.1,105.2V58.1h15.4v5.6l-3.7,13.6c2.7,4,4,8,3.9,11.9c0.1,5.5-1.7,8.4-5.6,8.8c-0.8,0.1-1.9,0.2-3.3,0.2
		c-0.3-1.9-0.8-3.8-1.6-5.6v12.6H1065.1z M1070.2,63.7v28.4c1,0.1,1.9,0.2,2.7,0.2c1.8,0,2.7-1.4,2.7-4.3c0-2.9-1.3-6.3-3.9-10.3
		l3.7-14H1070.2z M1081.6,86.9v-5.3h30.7v5.3h-9.1v10.5c0,1.2,0.5,1.9,1.4,1.9h1.2c1.1,0,1.7-0.7,1.9-2.1c0.4-1.6,0.7-3.6,0.8-6
		c0.5,0.3,1.4,0.6,2.7,1c1,0.3,1.6,0.5,2.1,0.6c-0.1,0.5-0.3,1.4-0.4,2.5c0,1-0.2,2.3-0.6,3.9c-0.5,3.2-2.7,4.7-6.4,4.7h-2.1
		c-4.1,0-6.2-1.8-6.2-5.4V86.9h-4.3v0.6c-0.1,0.4-0.2,0.7-0.2,0.8c0.3,7.4-3.6,13.1-11.5,17.1c-0.1-0.1-0.3-0.4-0.6-0.8
		c-1.5-1.8-2.6-3-3.3-3.7c6.7-2.7,10-6.9,9.9-12.6v-1.4H1081.6z M1081.8,71.3v-9.9h11.9c-0.1-0.4-0.3-1-0.6-1.9
		c-0.1-0.7-0.5-1.7-1-3.1l6.6-0.6l1.9,5.6h11.1v9.9h-5.3v-4.7h-19.1v4.7H1081.8z M1084.4,71.7h24.7v5.1h-24.7V71.7z"/>
	<path class="st1" d="M399.5,118.4h2.9c4.1,6.5,6.2,9.8,6.3,10.1c0.1,0.2,0.4,0.7,0.9,1.5h0.1c0-0.2-0.1-0.9-0.1-2.1v-9.4h2.4V133
		h-2.8c-4.2-6.6-6.3-10-6.4-10.2c-0.5-0.8-0.8-1.3-0.8-1.5h-0.1c0,0.3,0.1,1.1,0.1,2.5v9.2h-2.4V118.4z"/>
	<path class="st1" d="M425.3,132.9h-2.3c-0.3-0.4-0.4-1-0.5-1.7c-0.9,1.2-2.4,1.9-4.6,1.9c-2.2-0.1-3.3-1.1-3.4-2.9
		c0-1.9,1.3-3,3.9-3.3c2.2-0.4,3.5-0.8,4-1.1c0.1-1.3-0.7-1.9-2.4-1.8c-1.6,0-2.5,0.6-2.8,1.8l-2.3-0.4c0.5-2.1,2.2-3.2,5.1-3.1
		c3.4-0.1,5,1.3,4.8,4.3v4.3C424.7,131.6,424.9,132.4,425.3,132.9 M422.4,128.4v-1.1c-0.6,0.5-1.6,0.8-3,1c-1.7,0.3-2.6,0.9-2.5,1.9
		c0,0.9,0.6,1.4,2.1,1.3C421.1,131.4,422.2,130.3,422.4,128.4"/>
	<path class="st1" d="M430.2,118.4v4h2.4v1.8h-2.4v5.5c0,1.1,0.4,1.7,1.3,1.6c0.4,0,0.7-0.1,1-0.3l0.5,1.5c-0.6,0.3-1.3,0.5-2.3,0.5
		c-1.9,0-2.9-0.9-2.8-2.8v-6h-1.7v-1.8h1.7V119L430.2,118.4z"/>
	<path class="st1" d="M434.3,118.2h2.5v2.4h-2.5V118.2z M434.4,122.4h2.4v10.5h-2.4V122.4z"/>
	<path class="st1" d="M444.3,122.2c3.4,0.1,5.2,2,5.4,5.5c-0.1,3.5-1.9,5.4-5.5,5.5c-3.4-0.2-5.2-2-5.4-5.4
		C438.9,124.2,440.8,122.4,444.3,122.2 M444.2,131.4c1.9,0,2.9-1.3,2.9-3.6c0-2.4-1-3.6-2.9-3.7c-1.9,0-2.9,1.3-2.9,3.7
		C441.3,130.1,442.3,131.3,444.2,131.4"/>
	<path class="st1" d="M461.8,132.9h-2.4v-6.1c0-1.8-0.7-2.7-2.3-2.7c-1.6,0.1-2.5,1-2.6,2.8v6H452v-10.5h2.4v1.8
		c0.8-1.3,2-2,3.5-2.1c2.6,0,3.9,1.3,3.8,4.2V132.9z"/>
	<path class="st1" d="M474.6,132.9h-2.3c-0.3-0.4-0.4-1-0.5-1.7c-0.9,1.2-2.4,1.9-4.6,1.9c-2.2-0.1-3.3-1.1-3.4-2.9
		c0-1.9,1.3-3,3.9-3.3c2.2-0.4,3.5-0.8,4-1.1c0.1-1.3-0.7-1.9-2.4-1.8c-1.6,0-2.5,0.6-2.8,1.8l-2.3-0.4c0.5-2.1,2.2-3.2,5.1-3.1
		c3.4-0.1,5,1.3,4.8,4.3v4.3C474.1,131.6,474.3,132.4,474.6,132.9 M471.8,128.4v-1.1c-0.6,0.5-1.6,0.8-3,1c-1.7,0.3-2.6,0.9-2.5,1.9
		c0,0.9,0.6,1.4,2.1,1.3C470.4,131.4,471.6,130.3,471.8,128.4"/>
	<rect x="476.6" y="117.8" class="st1" width="2.5" height="15.2"/>
	<polygon class="st1" points="498.2,132.9 486.9,132.9 486.9,118.3 497.9,118.3 497.9,120.5 489.5,120.5 489.5,124.5 497.4,124.5 
		497.4,126.5 489.5,126.5 489.5,131 498.2,131 	"/>
	<rect x="500.6" y="117.8" class="st1" width="2.5" height="15.2"/>
	<path class="st1" d="M505.6,118.2h2.5v2.4h-2.5V118.2z M505.7,122.4h2.4v10.5h-2.4V122.4z"/>
	<path class="st1" d="M513.7,118.4v4h2.4v1.8h-2.4v5.5c0,1.1,0.4,1.7,1.3,1.6c0.4,0,0.7-0.1,1-0.3l0.5,1.5c-0.6,0.3-1.3,0.5-2.3,0.5
		c-1.9,0-2.9-0.9-2.8-2.8v-6h-1.7v-1.8h1.7V119L513.7,118.4z"/>
	<path class="st1" d="M525.5,129.7l2.6,0.4c-0.8,2-2.5,3-5.3,3c-3.6-0.1-5.5-1.9-5.6-5.2c0.1-3.7,1.9-5.6,5.4-5.7
		c3.6,0,5.4,2,5.5,5.7v0.6h-8.4c0.1,1.9,1.1,2.9,3,3C524.3,131.5,525.2,130.9,525.5,129.7 M519.7,126.9h5.9c-0.1-1.9-1.1-2.9-2.9-3
		C520.8,124,519.8,125,519.7,126.9"/>
	<rect x="535.6" y="118.3" class="st1" width="2.5" height="14.7"/>
	<path class="st1" d="M550.8,132.9h-2.4v-6.1c0-1.8-0.7-2.7-2.3-2.7c-1.6,0.1-2.5,1-2.6,2.8v6H541v-10.5h2.4v1.8
		c0.8-1.3,2-2,3.5-2.1c2.6,0,3.9,1.3,3.8,4.2V132.9z"/>
	<path class="st1" d="M562.1,125l-2.5,0.4c-0.2-1-0.9-1.5-2.1-1.5c-1.3,0-1.9,0.4-2,1.3c-0.1,0.7,0.6,1.1,2.2,1.4
		c0.2,0,0.5,0.1,0.9,0.2c0.4,0.1,0.7,0.2,0.8,0.2c2.1,0.5,3.1,1.5,3,3c0,2.1-1.5,3.1-4.5,3.1c-3.1,0.1-4.8-0.9-5.2-3.2l2.4-0.4
		c0.2,1.2,1.1,1.8,2.7,1.8c1.5,0,2.2-0.5,2.3-1.5c0.1-0.7-0.6-1.2-2.2-1.5c-0.2,0-0.5-0.1-1-0.2c-0.3-0.1-0.6-0.2-0.8-0.2
		c-2-0.5-3-1.4-3-2.8c0.1-2,1.5-3.1,4.3-3.2C560,122.1,561.6,123.1,562.1,125"/>
	<path class="st1" d="M567.7,118.4v4h2.4v1.8h-2.4v5.5c0,1.1,0.4,1.7,1.3,1.6c0.4,0,0.7-0.1,1-0.3l0.5,1.5c-0.6,0.3-1.3,0.5-2.3,0.5
		c-1.9,0-2.9-0.9-2.8-2.8v-6h-1.7v-1.8h1.7V119L567.7,118.4z"/>
	<path class="st1" d="M571.8,118.2h2.5v2.4h-2.5V118.2z M571.8,122.4h2.4v10.5h-2.4V122.4z"/>
	<path class="st1" d="M579.8,118.4v4h2.4v1.8h-2.4v5.5c0,1.1,0.4,1.7,1.3,1.6c0.4,0,0.7-0.1,1-0.3l0.5,1.5c-0.6,0.3-1.3,0.5-2.3,0.5
		c-1.9,0-2.9-0.9-2.8-2.8v-6h-1.7v-1.8h1.7V119L579.8,118.4z"/>
	<path class="st1" d="M593.7,132.9h-2.4v-1.7c-0.8,1.2-1.9,1.9-3.5,1.9c-2.6,0-3.9-1.4-3.9-4.1v-6.6h2.4v6.3c0,1.8,0.8,2.7,2.4,2.7
		c1.6-0.1,2.5-1.1,2.5-2.9v-6.1h2.4V132.9z"/>
	<path class="st1" d="M599.4,118.4v4h2.4v1.8h-2.4v5.5c0,1.1,0.4,1.7,1.3,1.6c0.4,0,0.7-0.1,1-0.3l0.5,1.5c-0.6,0.3-1.3,0.5-2.3,0.5
		c-1.9,0-2.9-0.9-2.8-2.8v-6h-1.7v-1.8h1.7V119L599.4,118.4z"/>
	<path class="st1" d="M611.2,129.7l2.6,0.4c-0.8,2-2.5,3-5.3,3c-3.6-0.1-5.5-1.9-5.6-5.2c0.1-3.7,1.9-5.6,5.4-5.7
		c3.6,0,5.4,2,5.5,5.7v0.6h-8.4c0.1,1.9,1.1,2.9,3,3C610,131.5,610.9,130.9,611.2,129.7 M605.4,126.9h5.9c-0.1-1.9-1.1-2.9-2.9-3
		C606.5,124,605.5,125,605.4,126.9"/>
	<path class="st1" d="M625.7,122.2c3.4,0.1,5.2,2,5.4,5.5c-0.1,3.5-1.9,5.4-5.5,5.5c-3.4-0.2-5.2-2-5.4-5.4
		C620.4,124.2,622.3,122.4,625.7,122.2 M625.7,131.4c1.9,0,2.9-1.3,2.9-3.6c0-2.4-1-3.6-2.9-3.7c-1.9,0-2.9,1.3-2.9,3.7
		C622.8,130.1,623.8,131.3,625.7,131.4"/>
	<path class="st1" d="M636.4,121.1v1.3h2.3v1.8h-2.3v8.6H634v-8.6h-1.8v-1.8h1.8v-1.3c-0.1-2.5,1-3.6,3.3-3.5c0.9,0,1.7,0.1,2.5,0.4
		l-0.7,1.8c-0.5-0.2-0.9-0.3-1.3-0.3C636.8,119.4,636.3,120,636.4,121.1"/>
	<polygon class="st1" points="656.7,132.9 645.4,132.9 645.4,118.3 656.4,118.3 656.4,120.5 647.9,120.5 647.9,124.5 655.9,124.5 
		655.9,126.5 647.9,126.5 647.9,131 656.7,131 	"/>
	<path class="st1" d="M668.9,132.9h-2.4v-6.1c0-1.8-0.7-2.7-2.3-2.7c-1.6,0.1-2.5,1-2.6,2.8v6h-2.4v-10.5h2.4v1.8
		c0.8-1.3,2-2,3.5-2.1c2.6,0,3.9,1.3,3.8,4.2V132.9z"/>
	<path class="st1" d="M678.7,122.4h2.5v9c0.2,3.9-1.6,5.7-5.5,5.5c-2.7,0-4.3-1.1-4.7-3.1l2.5-0.1c0.4,0.9,1.2,1.4,2.5,1.4
		c1.8,0,2.7-1,2.7-3v-1.3c-0.7,1.2-1.8,1.8-3.5,1.8c-2.8-0.1-4.3-1.8-4.4-5.1c0.1-3.4,1.6-5.2,4.6-5.3c1.6,0,2.7,0.6,3.3,1.8V122.4z
		 M678.8,127.7v-0.8c-0.1-1.7-1-2.7-2.7-2.8c-1.8,0-2.8,1.2-2.8,3.3c0,2.2,1,3.3,2.8,3.4C677.9,130.8,678.8,129.7,678.8,127.7"/>
	<path class="st1" d="M683.8,118.2h2.5v2.4h-2.5V118.2z M683.8,122.4h2.4v10.5h-2.4V122.4z"/>
	<path class="st1" d="M698.6,132.9h-2.4v-6.1c0-1.8-0.7-2.7-2.3-2.7c-1.6,0.1-2.5,1-2.6,2.8v6h-2.4v-10.5h2.4v1.8
		c0.8-1.3,2-2,3.5-2.1c2.6,0,3.9,1.3,3.8,4.2V132.9z"/>
	<path class="st1" d="M708.9,129.7l2.6,0.4c-0.8,2-2.5,3-5.3,3c-3.6-0.1-5.5-1.9-5.6-5.2c0.1-3.7,1.9-5.6,5.4-5.7
		c3.6,0,5.4,2,5.5,5.7v0.6h-8.4c0.1,1.9,1.1,2.9,3,3C707.7,131.5,708.6,130.9,708.9,129.7 M703.1,126.9h5.9c-0.1-1.9-1.1-2.9-2.9-3
		C704.2,124,703.2,125,703.1,126.9"/>
	<path class="st1" d="M721.2,129.7l2.6,0.4c-0.8,2-2.5,3-5.3,3c-3.6-0.1-5.5-1.9-5.6-5.2c0.1-3.7,1.9-5.6,5.4-5.7
		c3.6,0,5.4,2,5.5,5.7v0.6h-8.4c0.1,1.9,1.1,2.9,3,3C720,131.5,720.9,130.9,721.2,129.7 M715.4,126.9h5.9c-0.1-1.9-1.1-2.9-2.9-3
		C716.5,124,715.5,125,715.4,126.9"/>
	<path class="st1" d="M728,127.5v5.4h-2.4v-10.5h2.4v2h0.1c0.5-1.5,1.4-2.2,2.8-2.3c0.7,0,1.3,0.2,1.8,0.6l-0.9,2.1
		c-0.4-0.3-0.8-0.5-1.4-0.5C728.9,124.4,728.1,125.5,728,127.5"/>
	<path class="st1" d="M733.9,118.2h2.5v2.4h-2.5V118.2z M734,122.4h2.4v10.5H734V122.4z"/>
	<path class="st1" d="M748.8,132.9h-2.4v-6.1c0-1.8-0.7-2.7-2.3-2.7c-1.6,0.1-2.5,1-2.6,2.8v6H739v-10.5h2.4v1.8
		c0.8-1.3,2-2,3.5-2.1c2.6,0,3.9,1.3,3.8,4.2V132.9z"/>
	<path class="st1" d="M758.6,122.4h2.5v9c0.2,3.9-1.6,5.7-5.5,5.5c-2.7,0-4.3-1.1-4.7-3.1l2.5-0.1c0.4,0.9,1.2,1.4,2.5,1.4
		c1.8,0,2.7-1,2.7-3v-1.3c-0.7,1.2-1.8,1.8-3.5,1.8c-2.8-0.1-4.3-1.8-4.4-5.1c0.1-3.4,1.6-5.2,4.6-5.3c1.6,0,2.7,0.6,3.3,1.8V122.4z
		 M758.7,127.7v-0.8c-0.1-1.7-1-2.7-2.7-2.8c-1.8,0-2.8,1.2-2.8,3.3c0,2.2,1,3.3,2.8,3.4C757.8,130.8,758.7,129.7,758.7,127.7"/>
	<path class="st2" d="M100.1,72.5c2.1-0.2,4.2-0.2,6.3,0l1.4-4.1l0.1,0c3.4,0.4,6.7,1.3,9.9,2.6l0.1,0l-0.8,4.3
		c1.9,0.9,3.8,1.9,5.5,3.2l3.3-2.8l0.1,0c2.7,2,5,4.4,7.1,7l0.1,0.1h-3l0.1-0.1c-1.2-1.5-2.6-2.8-4-4l-3.3,2.8l-0.1,0
		c-2.5-2-5.4-3.7-8.4-4.9l-0.1,0l0.8-4.2c-1.8-0.6-3.6-1.1-5.5-1.5l-1.4,4l-0.1,0c-1.6-0.3-3.2-0.4-4.9-0.4c-1.6,0-3.3,0.1-4.9,0.4
		l-0.1,0l-1.4-4c-1.9,0.3-3.7,0.8-5.5,1.5l0.8,4.2l-0.1,0c-3,1.2-5.9,2.8-8.4,4.9l-0.1,0l-3.3-2.8c-1.4,1.2-2.8,2.6-4,4l0.1,0.1h-3
		l0.1-0.1c2-2.6,4.4-5,7.1-7l0.1,0l3.3,2.8c1.7-1.2,3.6-2.3,5.5-3.2l-0.8-4.3l0.1,0c3.2-1.3,6.5-2.2,9.9-2.6l0.1,0L100.1,72.5z"/>
	<path class="st2" d="M103.3,76.7c6.7,0,12.9,2.3,17.8,6.1h-1.8c-4.5-3.2-10-5-15.9-5c-5.9,0-11.4,1.9-15.9,5h-1.8
		C90.4,79,96.6,76.7,103.3,76.7"/>
	<path class="st2" d="M134.1,131.8c0,0.5,0.1,0.9,0.1,1.1c-1.2,0.3-2.3,0.8-3.4,1.5c1.7-2.2,2.3-5.5,2-7.9
		c-2.8,3.9-6.6,6.9-6.2,11.2c0,0.3,0,0.8,0,1.1c-1.4,0.4-2.6,1-3.9,2c-0.2,0.2-0.5,0.6-0.6,0.5c-0.1-0.1,0.3-0.4,0.5-0.7
		c1.6-2,2.6-4.7,3.4-6.8c-5.9,4.5-7.4,4.3-10.5,8.2c-0.9,1.1-4.8,1.9-6,2.2c-0.3,0.1-0.3,0.5,0,0.4c1.4-0.1,4,0,5,0.4
		c5.1,2,9.1,0.9,14.5-1.9c-2.8,0.2-5.6,0.1-8.5-0.7c0.5-0.2,0.9-0.6,1.4-0.5c6.1,1.4,10.4-0.9,14.6-5.3c-3.6,0.9-6.5,1.3-9.3,2l0,0
		c0.2-0.5,1-0.9,1-0.9c4.2-1.8,8.8-0.2,13.1-7.2c-2.2,1.4-4.4,1.7-6.7,2.3c0-0.3,0-0.8,0.2-1.2c3.2-3.1,7.2-1.8,11.2-10.5
		c-2,0.3-4.1,2-5.8,3.3c0.1-0.4,0.4-1,0.6-1.6c3.4-3.1,6.8-5.3,7.3-10.2c-1.1,1.1-3,2.2-4.3,3c2.5-3.7,4.8-8,4.3-13.4
		c-1,4.5-3.7,5-5.3,8.4c-0.9-2.6-1.9-4-3.3-5.7c-0.4,7.6,2.5,7.3,2.8,12.8l-1.1,0.9c0-2.6-0.9-5.4-2.3-7.6c-0.2,4-1.7,8.8,0.7,12.2
		c0.2,0.7,0.2,1.2,0.1,1.5c-0.9,0.7-1.7,1.2-2.4,1.2c0.4-2.3,0.4-5-0.5-7.3C136.3,122.9,133.4,126.4,134.1,131.8 M140.3,91.7
		c2.2,2.4,3.6,5.4,3.6,9.6c1.1-0.9,1.5-4.5,3.5-5.9c0.5,5.2-1.5,8.9-4.7,12.2c-0.2-3.3-2.8-1.2-3.5-9.4c1.3,0.8,1.4,2.8,3.4,3.9
		C140.1,97.9,140.4,95.9,140.3,91.7"/>
	<path class="st2" d="M72.5,131.8c0,0.5-0.1,0.9-0.1,1.1c1.2,0.3,2.3,0.8,3.4,1.5c-1.7-2.2-2.3-5.5-2-7.9c2.8,3.9,6.6,6.9,6.2,11.2
		c0,0.3,0,0.8,0,1.1c1.4,0.4,2.6,1,3.9,2c0.2,0.2,0.5,0.6,0.6,0.5c0.1-0.1-0.3-0.4-0.5-0.7c-1.6-2-2.6-4.7-3.4-6.8
		c5.9,4.5,7.4,4.3,10.5,8.2c0.9,1.1,4.8,1.9,6,2.2c0.3,0.1,0.3,0.5,0,0.4c-1.4-0.1-4,0-5,0.4c-5.1,2-9.1,0.9-14.5-1.9
		c2.8,0.2,5.6,0.1,8.5-0.7c-0.5-0.2-0.9-0.6-1.4-0.5c-6.1,1.4-10.4-0.9-14.6-5.3c3.6,0.9,6.5,1.3,9.3,2l0,0c-0.2-0.5-1-0.9-1-0.9
		c-4.2-1.8-8.8-0.2-13.1-7.2c2.2,1.4,4.4,1.7,6.7,2.3c0-0.3,0-0.8-0.2-1.2c-3.2-3.1-7.2-1.8-11.2-10.5c2,0.3,4.1,2,5.8,3.3
		c-0.1-0.4-0.4-1-0.6-1.6c-3.4-3.1-6.8-5.3-7.3-10.2c1.1,1.1,3,2.2,4.3,3c-2.5-3.7-4.8-8-4.3-13.4c1,4.5,3.7,5,5.3,8.4
		c0.9-2.6,1.9-4,3.3-5.7c0.4,7.6-2.5,7.3-2.8,12.8l1.1,0.9c0-2.6,0.9-5.4,2.2-7.6c0.2,4,1.7,8.8-0.7,12.2c-0.2,0.7-0.2,1.2-0.1,1.5
		c0.9,0.7,1.7,1.2,2.4,1.2c-0.4-2.3-0.4-5,0.5-7.3C70.3,122.9,73.2,126.4,72.5,131.8 M66.3,91.7c-2.2,2.4-3.6,5.4-3.6,9.6
		c-1.1-0.9-1.5-4.5-3.5-5.9c-0.5,5.2,1.5,8.9,4.7,12.2c0.2-3.3,2.8-1.2,3.5-9.4c-1.3,0.8-1.4,2.8-3.4,3.9
		C66.5,97.9,66.2,95.9,66.3,91.7"/>
	<path class="st2" d="M123.5,110H83.1l-1.9-3.3h44.2L123.5,110z M108.5,136l1.9-3.3H96.2l1.9,3.3H108.5z M106,140.4l1.9-3.3h-9.1
		l1.9,3.3H106z M78.7,102.4h49.3l-1.9,3.3H80.6L78.7,102.4z M69.3,86h68.1l-7.5,13h-53L69.3,86z M105.2,118.7l-1.9-3.3h0l-1.9,3.3
		H105.2z M101.4,124.1l1.9,3.3h0.1l1.9-3.3H101.4z M99.8,121.4l0.9,1.6h5.1l0.9-1.6l-1-1.7h-5L99.8,121.4z M110.2,127.4l-2.2-3.8
		l-2.2,3.8H110.2z M111.9,130.2l-1-1.8h-5.6l-1.9,3.3h7.7L111.9,130.2z M110.8,124.1l1.9,3.3h0.8l1.9-3.3H110.8z M114.6,118.7
		l-1.9-3.3h0l-1.9,3.3H114.6z M116.6,122l-1.3-2.3h-5l-1,1.7l0.9,1.6h5.8L116.6,122z M115.3,115.4l1.9,3.3h1.4l1.9-3.3H115.3z
		 M112.8,111l1.9,3.3h6.4l1.9-3.3H112.8z M105.8,115.4l2.2,3.8l2.2-3.8H105.8z M103.3,111l1.9,3.3h5.7l1.9-3.3H103.3z M96.4,115.4
		l2.2,3.8l2.2-3.8H96.4z M93.9,111l1.9,3.3h5.7l1.9-3.3H93.9z M92,114.3l1.9-3.3H83.7l1.9,3.3H92z M89.5,118.7l1.9-3.3h-5.1l1.9,3.3
		H89.5z M95.7,118.7l-1.9-3.3h0l-1.9,3.3H95.7z M96.4,123l0.9-1.6l-1-1.7h-5L90,122l0.6,1H96.4z M93.9,127.4l1.9-3.3h-4.5l1.9,3.3
		H93.9z M100.8,127.4l-2.2-3.8l-2.2,3.8H100.8z M103.3,131.7l-1.9-3.3h-5.6l-1,1.8l0.9,1.5H103.3z M143,82.8l-39.7,68.8L63.6,82.8
		H143z M103.3,145l2-3.5h-4.1L103.3,145z"/>
	<path class="st2" d="M103.3,37.1c-37.8,0-68.5,30.7-68.5,68.5c0,37.8,30.7,68.5,68.5,68.5c37.8,0,68.5-30.7,68.5-68.5
		C171.8,67.8,141.1,37.1,103.3,37.1 M103.3,32.7c40.2,0,72.9,32.6,72.9,72.9s-32.6,72.9-72.9,72.9c-40.2,0-72.9-32.6-72.9-72.9
		S63.1,32.7,103.3,32.7"/>
	<path class="st2" d="M117.3,53.7c-0.2,0.8-0.5,1.3-0.6,1.9c0,0.2,1.6-0.2,1.7-0.2c0,0,0,0,0.1,0c0,0,0,0,0.1,0
		c0.3-0.1,0.6-0.1,0.9-0.2l0.7-0.2l0.1-0.1l0.1,0c0,0,0.1-0.1,0.1-0.1c0-0.1,0-0.1,0-0.2c0,0-0.1-0.1,0-0.1c0.1,0-0.1-0.1,0.1-0.1
		l0.1,0.1l0.1,0c0.1,0.1,0.2,0.1,0.2,0.2c0.1,0.1,0.2,0.2,0.3,0.4c0,0.1,0.1,0.4,0.1,0.5l0,0l0,0.1c0,0-0.1,0.3-0.1,0.3
		c0,0.1,0,0.1-0.1,0.2l0,0c-0.1,0.1-0.1,0-0.2,0.1c0,0.1-0.4,0.2-0.5,0.2c0,0-0.6,0.1-1.2,0.2c-0.8,0.2-1.6,0.3-2.1,0.4l0,0l0,0
		c-0.1,0-0.1,0-0.2,0c-0.1,0-0.4,0-0.4,0.1c0.1,0.3,0,0.6,0.3,1.2c0.1,0.2,0.2,0.8,0.3,1.1c0.1,0.3,0.3,0.8,0.4,1.1
		c0.1,0.2,0.3,0.6,0.4,0.8c0.1,0.2,0.1,0.4,0.2,0.5c0.2,0.5,0.4,0.7,0.7,1.1c0.1,0.1,0.3,0.3,0.4,0.4c0.1,0.1,0.2,0.2,0.3,0.3
		c0.2,0.2,0.5,0.3,0.8,0.5c0.4,0.2,0.8,0.4,1.1,0.5c0.1,0,0.3,0.1,0.4,0.1c0.2,0.1,0.1,0.1-0.3,0.2c-0.3,0.1-0.7,0.2-1.3,0.2
		c-0.2,0-0.5,0-0.7,0.1c-0.3,0.1-0.7-0.1-0.9-0.3c-0.3-0.2-0.5-0.3-0.7-0.6c-0.1-0.1-0.2-0.4-0.3-0.5c-0.3-0.5-0.6-1-0.7-1.4
		c-0.1-0.4-0.2-0.9-0.3-1.2c-0.3-1-0.5-1.6-0.7-2c-0.1-0.2-0.1-0.2-0.2-0.2c-0.1,0-0.1,0.1-0.2,0.1c-0.3,0.4-0.5,0.9-0.8,1.4
		c-0.3,0.4-0.6,0.7-0.9,1c-0.4,0.4-0.9,0.7-1.5,0.8c-0.2,0-0.5,0-0.7,0c-0.4,0-0.8-0.2-1.4-0.3c-0.6-0.1-1.7-0.2-2.4-0.5
		c-0.7-0.2-0.7-0.3-0.4-0.5c0.8,0,2.6,0,3.3-0.1c0.7-0.1,1.2-0.4,1.8-0.8c0.3-0.2,0.5-0.5,0.8-0.8c0.2-0.2,0.5-0.6,0.6-0.9
		c0.1,0,0.3-0.5,0.5-0.9c-0.2,0-0.3,0-0.5,0c-0.3,0-0.5,0-0.6,0.1c-0.3,0.1-0.5,0.2-0.6,0.2c-0.2,0-0.2,0-0.4,0
		c-0.2,0-0.2,0.1-0.3,0.1c-0.2,0-0.2,0-0.3,0.1c-0.1,0-0.2,0-0.2,0.1c-0.2,0.1-0.4,0.1-0.5,0.2c-0.1,0-0.4-0.1-0.5-0.3
		c0,0-0.1-0.3-0.1-0.3c-0.1-0.2-0.2-0.3-0.2-0.3c0-0.5,0.4-0.6,0.7-0.7l0.5-0.1c0.3,0,0.7-0.1,1.2-0.2c0.6-0.1,1.4-0.1,2.1-0.3
		c0.1,0,0.3-0.1,0.4-0.1c0.1-0.3,0.3-0.7,0.4-1.1c0.3-1,1.2-3.5,1.5-4.9l0.3-1.7l0,0c0-0.2-0.2-0.5-0.2-0.8l0,0c0,0,0-0.1,0-0.1l0,0
		l0,0c0-0.1,0.1-0.2,0.2-0.3l0.2,0l0,0c0.4,0.1,0.8,0.3,1.2,0.4l0,0l0.1,0.1c0,0,0.1,0.1,0.1,0.1c0.1,0,0.1,0.1,0.1,0.2
		c0.1,0,0.1,0.1,0.1,0.2l0,0c0,0.1,0.1,0.2,0.1,0.3c0.1,0.1-0.2,0.6-0.3,0.8l0,0c0,0.2-0.1,0.5-0.3,0.7l-0.1,0.2c0,0,0,0,0,0
		C118.1,50.9,117.6,52.7,117.3,53.7L117.3,53.7z"/>
	<path class="st2" d="M147.6,60.4c-0.9,0.2-2.1,0.4-2.6,0.6c-0.1,0-0.2,0.2-0.1,0.3c0.1,0.2,0.1,0.4,0.1,0.5c-0.1,0.1-0.4,0-0.6,0
		c-0.2,0.1-0.4,0-0.7,0c-0.4,0-0.6,0-0.8,0.1c-0.1,0.1,0.1,0.9-0.1,1.2c-0.2,0.3-0.8,0.2-0.8,0.6c0.2,0.2,0.2,0.3,0.1,0.5
		c0.2,0.1,0.5,0,0.8,0c0.2,0,0.3,0,0.4-0.1c0,0,0.1,0,0.1-0.1c0-0.4-0.1-0.7,0.1-1c0-0.1,0.2-0.4,0.5-0.6c0.2-0.1,0.3-0.4,0.5-0.5
		c0.3-0.1,0.5,0,0.7,0.1c0.4,0.3,0,0.8,0.2,1.3c0.3,0.2,1.5-0.4,1.8-0.5c0,0,0,0,0,0c-0.5-0.4-1.1-0.7-1-1.2
		c0.4-0.5,1.3,0.2,1.9,0.4c0.4,0.2,0.6,0,0.9,0.1c0.5,0.2,0.7,2.3,0.1,2.5c-1.2-0.4-3.8,0.2-5.2,0.5c0,0,0,0,0,0.1
		c0.1,0.1,0,0.2,0,0.3c0.6,0.5,1.3,0.8,1.9,1.3c0.2,0.1,0.4,0.5,0.7,1.2c0.1,0.4-0.4,0.6-0.5,0.7c-0.2,0.2-0.5,0-1,0
		c-0.3,0-0.7-0.1-1-0.2c-0.3-0.1-0.6-0.1-1-0.2c-0.3-0.1-0.8-0.2-1.1-0.3c-0.6-0.2-1.3-0.4-1.9-0.5c-0.1,0-0.2,0-0.3,0
		c-0.1,0-0.1,0-0.2-0.1l0,0l-0.2-0.1l0,0c0,0,0,0,0,0c-0.1,0-0.1,0-0.2-0.1c-0.1,0-0.2-0.1-0.3-0.1c-0.1,0-0.2,0-0.2,0l-0.1-0.1
		l-0.1,0.1l0.3,0.2l0,0l0,0c0,0.2,0.5,0.2,0.6,0.3l0,0l0.3,0.1c0,0.1,0.3,0.2,0.4,0.3c0,0,0,0.1,0.1,0.1l0,0l0,0.2l0,0
		c0,0,0,0.1,0.1,0.2l0,0.1c0.1,0.1,0.1,0.1,0.1,0.2c0,0,0,0.1-0.1,0.1l0,0l0,0.2l-0.1,0.1l0,0l-0.1,0.1l0,0l0,0l-0.2,0l0,0l-0.2,0
		l0,0l-0.1,0l-0.1,0l-0.1,0c-0.1,0.1-0.1,0-0.2,0.1l0,0l0,0c-0.3,0-0.4-0.1-0.7-0.1c-0.1,0-0.2,0-0.3,0c-0.1,0-0.1,0.1-0.1,0.1
		c-0.1,0.1-0.1,0.1-0.1,0.2c0,0.1,0.2,0.2,0.3,0.2l0,0c0,0,0,0,0.1,0l0,0c0.1,0.1,0.2,0,0.2,0.1c0,0,0.5,0.2,1,0.4
		c0.5,0.2,1.1,0.6,1.2,0.6l0,0c0.4,0.4,0.3,0.3,0.5,0.8l0,0c0.1,0.1,0.1,0.1,0.1,0.2l-0.1,0.1l0.1,0.1c0,0.2,0.2,0.5,0,0.6
		c-0.3,0.3-0.2,0.3-0.6,0.1c-0.2-0.1-0.4-0.3-0.6-0.3c-0.3-0.2-0.6-0.3-1-0.5c-0.4-0.2-0.7-0.4-1.1-0.6c-0.4-0.2-0.5-0.4-0.8-0.5
		c0,0-0.2,0-0.2,0c-0.6,0.7-1.6,2.3-2.2,3c-0.1,0.4-0.5,0.6-0.8,0.9l0,0l-0.3,0.3l0,0c0,0,0,0,0,0l0,0l-0.3,0.2l0,0
		c-0.1,0.1-0.2,0.2-0.3,0.2c-0.2-0.2-0.7-0.7-1.2-1.1l0,0l-0.1-0.3l0,0l-0.1-0.1c0-0.1-0.1-0.2-0.1-0.3l0,0c0-0.1-0.1-0.3-0.1-0.3
		l0,0l-0.1-0.1c0,0-0.2-0.2-0.2-0.3c0-0.3-0.1-1.3-0.4-1.5c0,0,0-0.1,0-0.1l0,0l-0.1-0.3l0.1-0.1l-0.1-0.1c0,0,0,0,0-0.1
		c0.1,0,0.4,0.3,0.7,0.6c0.2,0.2,0.5,0.4,0.7,0.6c0.2,0.2,0.3,0.5,0.4,0.6c0.1,0.1,0.2,0.2,0.3,0.3c0.1,0,0.1,0.1,0.2,0.1
		c0,0,0.1-0.1,0.1-0.1c0.4-0.5,0.8-1.2,1.1-1.6c0.3-0.3,0.7-0.8,1-1.2c-0.3-0.3-2.7-1.2-2.8-1.2l0,0c-0.3-0.3-1.1-0.4-1.1-0.9
		c0,0,0,0,0-0.1l0,0c-0.1-0.1-0.1-0.2-0.2-0.3l0,0c-0.1-0.1-0.2-0.5-0.2-0.6v0l0-0.2l0,0l0-0.1c0,0,0-0.1,0-0.1l0,0c0,0,0-0.1,0-0.1
		c0.1,0,0.2-0.3,0.3-0.3c0.2-0.3,0.6,0.3,0.8,0.3c0.9,0.4,0.8,0.6,1.5,1c0.8,0.4,1.9,1,2,1.1l0.1,0c0.2,0.1,0.7,0.3,1.1,0.3
		c0.4,0,0.6-0.3,0.8-0.4l0.2,0c0.1,0,0.2-0.1,0.3-0.2l0.3-0.2c-0.2-0.2-0.3-0.4-0.6-0.6l0,0l-0.1-0.1l0,0c-0.3-0.2-0.5-0.3-0.6-0.7
		l0,0l0,0l0.1-0.2c0.1,0,0.3,0,0.3,0c0.1,0,0.4,0.1,0.4,0.1c0.1,0,0.1,0.1,0.1,0.1l0.1-0.1l0,0c0.1,0.1,0.8,0.1,1,0l0,0l0,0
		c0.1,0,0.2,0,0.3,0.1c0,0,0,0,0.1,0l0,0l0,0c0.1,0,0.2,0,0.3,0c0.1,0,0.2,0,0.4,0.1c1.5,0.4,3.1,0.5,4.4,0.5c0,0,0,0,0,0
		c0,0,0,0,0,0c-1-0.8-2.6-1.2-3.8-1.6c-0.8-0.3-1.8-0.6-2.5-0.9c-0.1,0-0.2-0.1-0.3-0.2c0,0,0,0-0.1,0c0,0,0,0-0.1,0c0,0,0,0,0,0
		c0,0,0,0-0.1,0c0,0,0,0,0,0c0,0,0,0,0,0L137,64l0,0c0,0-0.1-0.1-0.1-0.1l-0.2-0.1c0,0,0,0,0,0c0,0,0-0.1-0.1-0.1l0,0l-0.6-0.5
		c0,0,0,0,0,0c0,0,0,0,0,0c0,0,0-0.1,0-0.1c0,0,0-0.1,0-0.1l0,0c0,0,0,0,0,0l0,0l0,0l0.2-0.2c0,0,0,0,0,0c0,0,0,0,0,0l0.1-0.1l0,0
		c0,0,0.1,0,0.1,0c0,0,0,0,0,0h0c0,0,0.1,0,0.1,0c0,0,0,0,0.1,0c0,0,0.1,0,0.1,0l0.1,0.1l0.1-0.1c0,0,0,0,0,0c0,0,0,0,0.1,0
		c0,0,0,0,0.1,0c0,0,0,0,0,0c0,0,0.1,0.1,0.1,0.1c0,0,0,0,0,0l0.1,0.1l0,0c0,0,0,0,0,0c0,0,0.1,0,0.1,0c0,0,0,0,0.1,0c0,0,0,0,0.1,0
		c0,0,0,0,0.1,0l0,0c0,0,0,0,0,0c0,0,0,0,0,0c0,0,0,0,0.1,0c0,0,0,0,0.1,0c0,0,0,0,0.1,0c0,0,0,0,0,0c0,0,0,0,0,0l0,0c0,0,0,0,0,0
		c0,0,0,0,0,0c0,0,0,0,0,0c0,0,0.1,0,0.1,0c0,0,0,0,0,0c0.1,0,0.2,0,0.3,0c1.1,0.2,2.4,1.3,3.2-0.2c0-0.1,0.1-0.5-0.1-0.5
		c-0.2,0-0.6,0.1-0.9,0.1c-0.2,0-0.7,0-1.1,0c-0.1,0-0.3-0.1-0.4-0.1c0,0,0,0,0,0c0.1-0.1,0.2-0.3,0.3-0.3c0.5-0.4,1.3-0.4,1.9-0.6
		c0-0.2-0.1-0.4-0.1-0.7c0-0.5-0.3-0.1-0.6-0.2c-0.2-0.1,0.1,0.1,0,0.4c-0.1,0.3-0.8,0.3-1,0.4c-0.2,0.1-0.4-0.1-0.5,0.1
		c-0.3,0.3-0.7,1.2-1.3,0.8c-0.1-0.1-0.8-1-0.7-1c0.1-0.2,0.3-0.5,0.4-0.5c0.2-0.3,0.6-0.8,0.7-1.3c0-0.2,0-0.4,0-0.5
		c0-0.1,0.1-0.1,0.1-0.1c0.4,0.2,0.7,0.9,0.7,1.3c0.2,0.5,0.9-0.9,1.2-1.1c0.2-0.2,0.5,0.1,0.6,0.2c0.1,0.1,0,0.7-0.2,0.9
		c-0.2,0.2,0.2,0.3,0.2,0.3l0.4-0.5c0,0,0.1-0.3-0.1-0.6c-0.1-0.2-0.3-0.7-0.2-1c0.1-0.3,0.5,0.2,0.6,0.2c0.3,0,0.5,0.1,0.8,0.3
		c0.2,0.1,0.3,0.2,0.5,0.3c0.4,0.2,0,1.1,0.5,1.1c1.1-0.3,2.3-0.7,3.4-1.1v0l0.1,0c0.1,0,0.4,0,0.4-0.1c0,0,0,0,0,0
		c0,0,0.1,0,0.1-0.1c0.1-0.1,0.2-0.1,0.3-0.2c0,0,0,0,0.1,0c0,0,0.1,0,0.1-0.1c0.1-0.1,0.4-0.3,0.4-0.4c0,0,0-0.1,0-0.1
		c0.2-0.3,0.1-0.1,0.2-0.3c0,0,0,0,0-0.1l0-0.1c0,0,0,0,0,0c0.2,0.1,0.1,0,0.2,0.1c0,0,0,0,0,0c0,0,0,0,0,0c0,0.1,0.3,0.3,0.3,0.3
		c0,0,0,0,0,0c0,0,0,0,0,0.1c0.1,0.1,0,0,0.1,0.1c0,0.1,0.1,0.1,0.1,0.1c0,0,0,0,0,0c0,0,0,0,0,0c0,0,0,0,0,0c0,0,0,0.1,0.1,0.1
		c0,0,0,0,0,0c0,0,0,0.1,0,0.1c0,0,0,0.1,0.1,0.1c0,0,0,0,0,0c0,0,0,0,0,0c0,0,0,0,0,0c0,0,0,0,0,0c0,0,0,0.1,0,0.1c0,0,0,0,0,0
		c0,0,0,0.1,0,0.1c0,0,0,0.1,0,0.1c0,0.1,0,0,0,0.1c0,0,0,0,0,0.1c0,0,0,0.1,0,0.1c0,0,0,0,0,0.1c0,0,0,0,0,0c0,0,0,0,0,0.1
		c0,0,0,0,0,0.1c0,0,0,0,0,0.1c0,0,0,0.1,0,0.1c0,0,0,0,0,0.1c0,0,0,0,0,0.1c0,0,0,0,0,0c0,0,0,0,0,0.1c0,0,0,0,0,0.1l-0.1,0.1
		c0,0,0,0-0.1,0.1c0,0,0,0,0,0c0,0-0.1,0.1-0.1,0.1c0,0-0.1,0.1-0.1,0.1c0,0,0,0-0.1,0c0,0,0,0,0,0c-0.1,0-0.3,0-0.4,0.1
		c0,0-0.1,0-0.1,0c0,0,0,0-0.1,0c0,0,0,0-0.1,0c0,0,0,0-0.1,0c0,0,0,0-0.1,0c-0.2-0.1-0.5,0-0.7,0c0,0-0.1,0-0.1,0c0,0,0,0,0,0
		c0,0,0,0,0,0L147.6,60.4L147.6,60.4z M135.4,61.4c0.3,0.2,0.2,0.3,0.3,0.6c0,0.1,0.1,0.2,0.1,0.4c0,0.2-0.5,0.8-0.7,0.8
		c-0.2,0-0.3,0-0.6,0c-0.1,0-0.3,0.1-0.4,0.1c-0.5,0.2-1-0.9-0.8-1.3c0.3-0.2,0.7-0.2,1-0.3c0.2,0,0.3-0.2,0.5-0.3
		C134.9,61.5,135.2,61.5,135.4,61.4"/>
	<path class="st2" d="M91,56.8c-0.1,0.3-0.1,0.5-0.2,0.6c0.1,0.3,0.4,0.7,0.3,0.9c0,0.3-0.3,0.6-0.5,0.9c-0.4,0.5-1,0.5-1.8-0.1
		C89.2,58,89.8,57.4,91,56.8 M93.2,53.6c0.2-0.4,0.4-0.7,0.6-1c0-0.1,0-0.3-0.1-0.4c-0.1-0.1-0.3,0-0.4,0.1
		c-0.4,0.2-0.5,0.6-0.7,1.1C92.8,53.4,93,53.5,93.2,53.6 M94,58.5c0.4-0.1,0.7-0.3,1-0.5c0.2-0.1,0.4-0.3,0.6-0.3
		c0.7-0.1,1.2,0.5,1,1.3c-0.2,0.5-0.4,0.9-0.6,1.4c-0.1,0.2-0.1,0.3-0.2,0.6c0.2,0.1,0.4,0.2,0.6,0.2c0.2,0.1,0.4,0.1,0.6,0.2
		c0.6,0.2,0.7,0.3,0.7,0.6c0,0.4-0.3,0.9-0.7,1c-0.5,0.1-0.9,0.1-1.2-0.2c-0.2-0.2-0.4-0.3-0.6-0.5c-0.4,0.5-0.9,1-1.3,1.5
		c-0.4,0.4-1.1,0.6-1.6,0.3c0,0-0.1,0-0.1-0.1c-0.6-0.5-0.6-0.6,0.1-1c0.5-0.3,0.9-0.6,1.4-0.9c0.2-0.1,0.3-0.3,0.4-0.5
		c-0.1-0.2-0.2-0.4-0.2-0.6c-0.1-0.3,0-0.5,0.3-0.5c0.2,0,0.4,0,0.6,0c0.1-0.4,0.2-0.7,0.3-1c-0.3-0.2-0.5-0.2-0.8-0.1
		c-0.1,0.1-0.2,0.1-0.4,0.1c-0.5-0.1-0.7,0.3-0.9,0.6c-0.7,1-1.3,2.1-1.9,3.2c-0.2,0.5-0.5,0.9-0.8,1.3c-0.1,0.1-0.2,0.3-0.4,0.4
		c-0.2,0.2-0.4,0.1-0.5,0c-0.2-0.2-0.4-0.5-0.6-0.7c-0.1-0.2-0.2-0.5-0.1-0.8c0.2-0.6,0.6-1.1,1-1.6c0.9-0.8,1.5-1.6,2-2.7
		c0.1-0.2,0.3-0.5,0.5-0.7c-0.1-0.2-0.2-0.3-0.3-0.5c-0.1-0.1-0.2-0.2-0.3-0.3c-0.2-0.4,0-0.7,0.4-0.8c0.3,0,0.5,0,0.8-0.1
		c0.5-0.1,0.9-0.4,1-0.9c0-0.2,0-0.3-0.2-0.4c-0.2-0.1-0.3,0-0.4,0.1c-0.6,0.7-1.1,0.7-1.8,0.2c0.1-0.3,0.2-0.6,0.3-0.8
		c-0.4-0.3-0.4-0.3-0.7,0c-0.2,0.2-0.4,0.3-0.7,0.1c0-0.2,0.1-0.4,0.1-0.6c0-0.2,0-0.4,0-0.6c-0.3-0.1-0.4,0.1-0.5,0.2
		c-0.1,0.1-0.1,0.2-0.2,0.3c-0.6,1.6-1.5,3-2.3,4.4c-0.6,1.1-1.1,2.1-1.6,3.2c-0.4,0.8-0.8,1.7-1.2,2.5c-0.4,0.7-0.8,1.4-1.2,2.1
		c-0.1,0.1-0.1,0.2-0.2,0.3c-0.5,0.5-0.7,0.5-1-0.2c0-0.1-0.1-0.2-0.2-0.3c-0.4-0.4-0.3-0.9-0.1-1.4c0.2-0.5,0.4-0.9,0.6-1.4
		c0.1-0.2,0.3-0.1,0.4-0.3c0.3-0.3,0.6-0.6,0.8-1c1.9-3.2,3.8-6.4,5.7-9.5c0.1-0.2,0.2-0.4,0.2-0.7c0-0.4,0.3-0.6,0.6-0.8
		c0.2-0.1,0.3-0.3,0.5-0.5c0.4-0.6,0.8-1.1,1.1-1.7c0.1-0.1,0.1-0.2,0.2-0.5c-0.4,0.1-0.6,0.2-0.9,0.3c-0.7,0.3-1.4,0.6-2.1,0.9
		c-0.2,0.1-0.4,0.2-0.5,0.3c-0.8,0.4-1.5,0.6-2.4,0.2c-0.5-0.2-0.7-0.5-0.6-0.9c1-0.2,2-0.4,2.9-0.8c1-0.3,1.9-0.6,2.9-1.2
		c-0.6-0.4-1.2-0.8-1.8-1.1c-0.3-0.2-0.5-0.4-0.5-0.7c0-0.3,0.1-0.4,0.4-0.3c0.6,0.2,1.3,0.2,1.9,0.2c0.4,0,0.8,0.1,1.1,0.3
		c0.5,0.2,0.6,0.5,0.4,1.1c0.2-0.1,0.3-0.1,0.5-0.2c0.4-0.2,0.9-0.5,1.3-0.6c0.7-0.3,1-0.1,1.2,0.5c0,0.1,0.1,0.2,0.1,0.3
		c0.2,0.5,0,1-0.6,1.1c-0.5,0.1-1,0.3-1.6,0.4c-0.2,0.1-0.4,0.2-0.5,0.3c-0.8,1-1.5,2.1-2.3,3.2c0,0.1-0.1,0.1-0.1,0.2
		c0.1,0.1,0.1,0.2,0.2,0.3c0.3,0.3,0.4,0.2,0.6-0.1c0.1-0.2,0.3-0.4,0.4-0.6c0.6-0.7,1.1-1.4,1.1-2.4c0.3-0.2,0.7-0.1,0.9,0.1
		c0.1,0.1,0.2,0.3,0.2,0.4c-0.1,0.4-0.2,0.7-0.3,1.1c0.4,0.3,0.4,0.3,0.7,0c0.2-0.2,0.4-0.4,0.6-0.7C95.9,50,96,50,96.3,50
		c0.4,0,0.7,0.3,0.9,0.7c0.1,0.4,0,0.7-0.3,0.9c-0.3,0.2-0.6,0.5-0.9,0.6c-0.6,0.3-1,0.9-1.4,1.5c0,0.1,0,0.1-0.1,0.2
		c0.2,0.2,0.4,0.2,0.6,0c0.2-0.2,0.3-0.4,0.5-0.6c0.2-0.2,0.4-0.3,0.6-0.4c0.3-0.1,0.5,0,0.7,0.4c0.1,0.2,0.2,0.4,0.3,0.6
		c0.2,0.3,0.2,0.6-0.1,0.8c-0.2,0.2-0.5,0.4-0.7,0.5c-0.4,0.3-0.4,0.4-0.2,0.8c0.1,0.4,0.1,0.6-0.3,0.9c-0.3,0.2-0.7,0.4-1.1,0.6
		C94.3,57.6,94,58,94,58.5"/>
	<path class="st2" d="M67.7,68.7c-0.1-0.3,0-1-0.1-1.3c0-0.2,0.1-0.6,0.1-0.7l0,0c0-0.1,0.2-0.7,0.1-0.7l0.1-0.1l0.1,0l0.1,0.1
		l0.3,0.4c0.1,0.2,0.3,0.3,0.1,0.7c0,0.1,0,0.2-0.1,0.4c0,0-0.1,0.2-0.2,0.4c-0.1,0.1-0.1,0.3-0.2,0.4
		C67.9,68.5,67.8,68.6,67.7,68.7C67.7,68.8,67.7,68.8,67.7,68.7 M71.1,64.9c0,0.4,0,0.5-0.1,0.8c0.1,0.1-0.1,0.5-0.2,0.6l0,0
		l-0.3,0.2L70,65.8c0,0,0-0.1,0.1-0.3l0,0l0.3-0.7l0.2-0.3l0,0l0.1-0.2l0.1-0.1l0.2,0.1C71,64.5,71,64.7,71.1,64.9 M71,67.8l0.5,0.5
		l0,0c0.2,0.3,0.4,0.7,0.5,0.9c0.1,0.1,0.1,0.2,0.2,0.3c0.1,0.1,0.2,0,0.4,0c0.1,0,0.2,0,0.3,0c0.1,0,0.2,0.1,0.3,0.1
		c0.1,0.1,0.3,0.2,0.3,0.4c0.1,0.2,0.1,0.4,0.1,0.5c0,0.2,0,0.4,0,0.4c0,0.3,0,0.5,0,0.7c0.1,0.4,0.1,0.6,0.1,0.6
		c0.1,0.1,0.2,0,0.3-0.1c0.3-0.3,0.5-0.8,0.5-0.8c0.2-0.5,0.4-0.5,0.5-0.6c0.1-0.1,0.7,0,1,0.2c0.3,0.3,0.3,0.7,0.2,0.9
		c-0.3,0.4-0.6,0.7-0.9,1.1c-0.2,0.3-0.5,0.7-0.7,1c0,0.1-0.4,0.3-0.4,0.8c-0.1,0.4-0.7,0.6-0.8,0.6c-0.3-0.1-1.2-0.3-1.3-0.7
		c-0.1-0.3-0.2-0.8-0.3-0.9c0-0.1,0-0.9-0.2-1.4c-0.1-0.3-0.3-0.5-0.3-0.7c0-0.1-0.1-0.2-0.2-0.2c0,0-0.2,0-0.4,0
		c-0.1,0-0.3,0.2-0.5,0.1c-0.1,0-0.3,0-0.4,0c-0.1,0-0.1-0.1,0-0.3c0-0.1,0.1-0.2,0.1-0.3c0-0.1,0.1-0.1,0.1-0.2
		c0,0,0.1-0.1,0.1-0.1c0.2-0.2,0.6-0.4,0.6-0.4l0-0.1c0-0.1-0.1-0.2-0.2-0.3c-0.1-0.1-0.3-0.2-0.4-0.4c-0.1-0.1-0.5-0.8-0.7-1.2
		L69.3,68h0l0,0l-0.1,0.1c-0.1,0.2-0.1,0.4-0.3,0.5c0,0-0.2,0.3-0.2,0.4l0,0.2l0,0c0,0.1,0,0.1,0,0.2c-0.1,0-0.4,1.4-0.5,1.3
		c0,0,0,0,0,0.1c-0.2,0.1-0.3,0.2-0.5,0.2c0-0.1-0.2,0-0.3,0.1l-0.1-0.1l0,0c-0.5-0.3-0.6-0.8-0.5-1.4c0,0,0.1-0.4,0.1-0.5
		c0-0.1-0.1-0.1,0-0.4l0,0c0-0.1,0.1-0.3,0-0.4l0-0.1c0-0.1,0.1-0.2,0-0.4c0-0.1,0-0.1,0-0.1c0,0,0.1-0.4,0.1-0.5
		c0-0.1,0.1-0.3,0.1-0.5c0,0,0.1-0.4,0.1-0.5c0,0,0-0.8,0-0.8l0,0l0.1-0.2c-0.1-0.1,0.1-0.5,0.1-0.5c0-0.1,0.1-0.5,0.1-0.5l0-0.2
		c0-0.1,0-0.1,0-0.2c0-0.1-0.1-0.1-0.1-0.2L67,63.9c0,0.1-0.1,0.3-0.2,0.3c0,0-0.3,0.6-0.4,0.7c0,0-0.2,0.5-0.2,0.6
		c0,0-0.4,0.7-0.3,0.8c0,0.1-0.3,0.5-0.3,0.5c-0.1,0.1-0.3,0.5-0.2,0.6c0,0.1,0,0.2-0.1,0.2l0,0c0,0.1-0.2,0.3-0.2,0.4
		c0,0.1,0,0.2-0.1,0.2l0,0c-0.1,0.2-0.2,0.3-0.2,0.6l0,0l0,0l-0.1,0.1c0,0.2-0.1,0.4-0.2,0.6l0,0.1c0,0.1-0.1,0.4-0.1,0.5
		c0,0.1,0,0.2-0.1,0.2l0,0c-0.1,0.4-0.4,1-0.5,1.3c0,0.2-0.7,0.7-0.9,0.8c0,0-0.3,0-0.4,0.1c0,0-0.4,0.1-0.5,0.1
		c0,0-0.9,0.3-1.1,0.3c0,0-0.4,0.1-0.4-0.1l-0.1-0.5c0.1-0.1,0.1-0.6,0.2-0.7l0,0c0-0.1,0.2-0.6,0.2-0.6c0-0.1,0.2-0.3,0.2-0.3
		l0.1-0.1l0,0c0.3-0.3,2.4-3.9,2.4-3.9c0.2-0.3,0.4-0.9,0.7-1.1l0,0c0-0.1,0.5-0.8,0.5-0.8c0-0.1,0.5-0.8,0.5-0.8
		c0.1-0.1,0.3-0.4,0.3-0.4c0.2-0.1,0.2-0.5,0.4-0.6l0,0c0.1-0.1,0.1-0.3,0.2-0.3l0,0c0-0.1,0.1-0.2,0-0.2l0,0l-0.6-0.9
		c0-0.1,0.2-0.6,0.2-0.6c0-0.1,0.7-1.3,0.8-1.3c-0.1,0,0.1-0.1,0.2-0.1l0.1,0.1c0,0.1,0.1,0.1,0.1,0.1c0,0,0.1,0.2,0.2,0.2l0,0
		c0,0,0.4,0.6,0.4,0.7l0.1-0.1c0.2,0,1-0.8,0.9-0.9c0.3-0.2,0.3-0.2,0.6-0.2l0.2,0.1c0.5,0.3,0.1,0.8,0.1,0.8c0,0.1,0,0.4-0.1,0.4
		c0,0.1-0.1,0.7-0.1,0.7l0,0l-0.4,0.8l0,0c0,0-0.1,0.7-0.1,0.7c0,0,0.1,1,0.4,1.3c0,0,0.2,0.3,0.2,0.3l0.3-0.5l0,0
		c0.2-0.1,0.2-0.7,0.4-0.9c0-0.1,0.6-0.5,0.6-0.5c0.5-0.2,1.2-0.3,1.5,0.2c0-0.1,0.2,0.4,0.1,0.5c0,0.1,0,0.1,0,0.2l0,1.1
		c0,0,0,0.2,0,0.2c0,0-0.1,0.6-0.1,0.7l0,0.2c0,0,0,0.5,0,0.6c-0.1,0.2-0.1,0.3-0.2,0.5c-0.1,0.1-0.3,0.3-0.4,0.5
		C71.5,67.6,71.4,67.6,71,67.8 M63.8,52.8c0.1,0,0-0.1,0.3,0c0.2,0.1,0.2,0.1,0.4,0.1c0.2,0.1,0.5,0.3,0.9,0.5
		c0.3,0.2,0.8,0.8,0.9,1.3c0.1,0.5,0.1,1.2,0,1.6c0,0.1-0.2,0.5-0.3,1c-0.1,0.6-0.2,1.4-0.5,2.2c-0.1,0.4-0.3,0.9-0.4,1.2
		c-0.1,0.4-0.2,0.8-0.2,1.1c-0.1,0.4-0.2,0.7-0.3,0.8c-0.2,0.7-0.5,1.7-0.7,1.8c0,0,0.1-1.3,0.1-2.2c0-0.4,0-0.8,0-0.9
		c0-0.5,0.1-1,0.1-1.5c0-1.3,0-2.6,0-4c0-0.5-0.1-1-0.2-1.5C63.8,54,63.5,53,63.8,52.8"/>
	<path class="st2" d="M78.9,97.1v-1c0.6,0,1-0.1,1.2-0.2c0.2-0.1,0.3-0.4,0.3-0.8v-4.3c0-0.4-0.1-0.7-0.3-0.8
		c-0.2-0.1-0.6-0.2-1.2-0.2v-0.9c0.6,0,1.1-0.1,1.5-0.1c0.4-0.1,0.8-0.5,1.2-0.6h1.1v7c0,0.4,0.1,0.6,0.3,0.8
		c0.2,0.1,0.6,0.2,1.2,0.2v1H78.9z"/>
	<path class="st3" d="M96.4,91.1c0-0.6-0.1-1-0.4-1.3c-0.3-0.3-0.7-0.5-1.2-0.5c-0.5,0-1,0.1-1.3,0.4c-0.3,0.3-0.4,0.7-0.4,1.3
		c0,0.5,0.1,0.9,0.4,1.3c0.3,0.3,0.7,0.5,1.2,0.5c0.6,0,1-0.1,1.3-0.4C96.2,92.1,96.4,91.7,96.4,91.1 M96.5,93.3
		c-0.4,0.2-0.8,0.4-1.2,0.5C94.9,94,94.5,94,94,94c-1,0-1.9-0.3-2.5-0.8c-0.7-0.5-1-1.2-1-2c0-0.9,0.4-1.6,1.1-2.2
		c0.8-0.6,1.8-0.8,3-0.8c1.4,0,2.4,0.4,3.2,1.1c0.7,0.7,1.1,1.8,1.1,3.1c0,1.5-0.4,2.6-1.2,3.4c-0.8,0.8-2,1.2-3.4,1.2
		c-1,0-1.7-0.2-2.4-0.5c-0.6-0.3-0.9-0.7-0.9-1.2c0-0.3,0.1-0.5,0.3-0.7c0.2-0.2,0.5-0.3,0.8-0.3c0.5,0,0.9,0.3,1.1,1
		c0,0.1,0,0.1,0.1,0.2c0.1,0.2,0.1,0.3,0.3,0.4c0.1,0.1,0.3,0.1,0.6,0.1c0.7,0,1.3-0.2,1.7-0.7C96.3,94.8,96.5,94.2,96.5,93.3"/>
	<path class="st3" d="M126.3,91.1c0-0.6-0.1-1-0.4-1.3c-0.3-0.3-0.7-0.5-1.2-0.5c-0.5,0-1,0.1-1.3,0.4c-0.3,0.3-0.4,0.7-0.4,1.3
		c0,0.5,0.1,0.9,0.4,1.3c0.3,0.3,0.7,0.5,1.2,0.5c0.6,0,1-0.1,1.3-0.4C126.1,92.1,126.3,91.7,126.3,91.1 M126.4,93.3
		c-0.4,0.2-0.8,0.4-1.2,0.5c-0.4,0.1-0.8,0.2-1.3,0.2c-1,0-1.9-0.3-2.5-0.8c-0.7-0.5-1-1.2-1-2c0-0.9,0.4-1.6,1.1-2.2
		c0.8-0.6,1.8-0.8,3-0.8c1.4,0,2.4,0.4,3.2,1.1c0.7,0.7,1.1,1.8,1.1,3.1c0,1.5-0.4,2.6-1.2,3.4c-0.8,0.8-2,1.2-3.4,1.2
		c-1,0-1.7-0.2-2.4-0.5c-0.6-0.3-0.9-0.7-0.9-1.2c0-0.3,0.1-0.5,0.3-0.7c0.2-0.2,0.5-0.3,0.8-0.3c0.5,0,0.9,0.3,1.1,1
		c0,0.1,0.1,0.1,0.1,0.2c0.1,0.2,0.1,0.3,0.3,0.4c0.1,0.1,0.3,0.1,0.6,0.1c0.7,0,1.3-0.2,1.7-0.7C126.2,94.8,126.4,94.2,126.4,93.3"
		/>
	<path class="st2" d="M105.2,97.1c0.7-2.9,1.7-3.2,4.2-4.2c1.2-0.5,1.6-1.4,1.6-2.2c0-0.5-0.3-0.8-0.5-1.1s-0.6-0.4-1.1-0.4
		c-0.4,0-0.7,0.1-1,0.2c-0.3,0.2-0.4,0.3-0.4,0.5c0,0,0.1,0.1,0.2,0.3c0.1,0.2,0.2,0.4,0.2,0.6c0,0.3-0.1,0.5-0.3,0.7
		c-0.2,0.2-0.5,0.3-0.9,0.3c-0.4,0-0.7-0.1-0.9-0.3c-0.2-0.2-0.3-0.5-0.3-0.9c0-1.8,2.4-2.7,3.9-2.7c1.2,0,2.3,0.3,3,0.8
		c1.4,1,1.4,3.4-0.1,4.3c-1.3,0.7-4.8,0.7-4.9,1.9c0,0.3,0.1,0.6,0.8,0.6c0.6,0,3.3,0,3.8-0.4c0.3-0.2,0.5-0.6,0.7-1.1l0.9,0
		l0.2,2.9H105.2z"/>
	<path class="st2" d="M156.4,95l0.1,0.5c-0.4,0.2-0.8,0.4-1.2,0.8c-0.4,0.3-0.6,0.6-0.6,0.9c0,0.1,0,0.3,0,0.5c0,0.2,0,0.4,0,0.5
		l0,0.3l7.1-0.9c0.2,0,0.3-0.1,0.4-0.1c0.1-0.1,0.2-0.2,0.2-0.4c0-0.1,0-0.3,0.1-0.5c0-0.2,0-0.4,0-0.5l0.5-0.1l0.6,5l-0.5,0.1
		c0-0.1-0.1-0.3-0.1-0.5c-0.1-0.2-0.1-0.4-0.1-0.4c-0.1-0.2-0.2-0.3-0.3-0.3c-0.1,0-0.3-0.1-0.4,0l-7.1,0.9l0,0.3
		c0,0.1,0,0.3,0.1,0.5c0,0.2,0.1,0.4,0.1,0.5c0.1,0.2,0.3,0.5,0.8,0.7c0.5,0.2,0.9,0.4,1.3,0.5l0.1,0.5l-2.6,0.3l-1.1-8.7L156.4,95z
		 M163.9,105.3l-0.1,5l-0.5,0c0-0.1,0-0.3,0-0.5c0-0.2,0-0.4-0.1-0.5c-0.1-0.2-0.1-0.3-0.2-0.3c-0.1-0.1-0.2-0.1-0.4-0.1l-6.5-0.2
		c-0.1,0-0.3,0-0.4,0.1c-0.1,0.1-0.2,0.2-0.3,0.3c0,0.1-0.1,0.2-0.1,0.4c-0.1,0.2-0.1,0.4-0.1,0.5l-0.5,0l0.1-5l0.5,0
		c0,0.1,0,0.3,0,0.5c0,0.2,0,0.4,0.1,0.5c0.1,0.2,0.1,0.3,0.3,0.3c0.1,0.1,0.3,0.1,0.4,0.1l6.4,0.2c0.2,0,0.3,0,0.4-0.1
		c0.1-0.1,0.2-0.2,0.3-0.3c0-0.1,0.1-0.2,0.1-0.4c0-0.2,0.1-0.4,0.1-0.5L163.9,105.3z M163.3,116.5c-0.1,0.6-0.2,1.1-0.4,1.5
		c-0.2,0.5-0.4,0.8-0.7,1.1l0.4,0.5l-0.1,0.5l-3.3-0.4l0.1-0.5c0.3-0.1,0.7-0.2,1-0.3c0.4-0.1,0.7-0.3,1-0.5
		c0.3-0.2,0.6-0.5,0.8-0.8c0.2-0.3,0.4-0.7,0.4-1.1c0.1-0.6,0-1-0.2-1.4c-0.2-0.3-0.6-0.5-1-0.6c-0.3,0-0.7,0-0.9,0.3
		c-0.3,0.2-0.5,0.6-0.8,1.1c-0.2,0.3-0.3,0.7-0.5,0.9c-0.1,0.3-0.3,0.5-0.4,0.8c-0.3,0.6-0.7,1-1.2,1.2c-0.5,0.2-1,0.3-1.6,0.2
		c-0.4,0-0.7-0.2-1-0.4c-0.3-0.2-0.6-0.5-0.8-0.8c-0.2-0.3-0.4-0.7-0.4-1.1c-0.1-0.5-0.1-0.9,0-1.4c0.1-0.5,0.2-1,0.4-1.4
		c0.2-0.4,0.4-0.7,0.6-1l-0.3-0.4l0.1-0.5l3.1,0.4l-0.1,0.5c-0.3,0.1-0.7,0.2-1.1,0.3c-0.4,0.1-0.7,0.3-0.9,0.4
		c-0.3,0.2-0.5,0.4-0.7,0.6c-0.2,0.2-0.3,0.6-0.4,0.9c-0.1,0.5,0,0.8,0.2,1.2c0.2,0.3,0.5,0.5,0.9,0.6c0.4,0,0.7,0,0.9-0.3
		c0.3-0.2,0.5-0.6,0.8-1.1c0.1-0.3,0.3-0.6,0.4-0.9c0.2-0.3,0.3-0.6,0.4-0.8c0.3-0.6,0.7-1,1.2-1.3c0.5-0.3,1-0.3,1.6-0.3
		c0.4,0.1,0.8,0.2,1.1,0.4c0.3,0.2,0.6,0.5,0.8,0.9c0.2,0.4,0.4,0.8,0.5,1.3C163.4,115.4,163.4,115.9,163.3,116.5 M162.1,121.9
		l-1.3,3.2c-1.1,0.2-1.9,0.4-2.6,0.6c-0.7,0.2-1.4,0.4-2.3,0.7l-0.1,0.3l2.6,1c0.1,0.1,0.3,0.1,0.4,0.1c0.1,0,0.2-0.1,0.4-0.2
		c0.1-0.1,0.1-0.2,0.2-0.3c0.1-0.1,0.2-0.3,0.2-0.4l0.5,0.2l-1.8,4.5l-0.5-0.2c0-0.1,0.1-0.3,0.1-0.5c0.1-0.2,0.1-0.3,0.1-0.4
		c0-0.2,0-0.3-0.1-0.4c-0.1-0.1-0.2-0.2-0.3-0.2l-6-2.3c-0.1-0.1-0.3-0.1-0.4-0.1c-0.1,0-0.2,0.1-0.4,0.2c-0.1,0.1-0.2,0.2-0.3,0.4
		c-0.1,0.2-0.2,0.3-0.2,0.4l-0.5-0.2l1.9-4.7c0.4-1.1,0.9-1.8,1.4-2.2c0.5-0.4,1.2-0.5,1.8-0.2c0.6,0.2,1,0.6,1.2,1.1
		c0.2,0.5,0.3,1.1,0.2,1.9c0.5-0.1,1-0.3,1.6-0.5s1.2-0.4,1.9-0.6c0.2-0.1,0.5-0.2,0.8-0.3c0.3-0.1,0.5-0.3,0.6-0.4
		c0.1-0.1,0.1-0.2,0.2-0.3c0.1-0.1,0.1-0.2,0.2-0.3L162.1,121.9z M154.2,123.5c-0.6-0.2-1-0.2-1.4,0c-0.4,0.2-0.7,0.6-0.9,1.2
		l-0.2,0.5l3.6,1.4l0.2-0.5c0.2-0.6,0.3-1.1,0.1-1.5C155.3,124.1,154.8,123.7,154.2,123.5 M150.6,131.6l-0.3,0.4
		c-0.4-0.1-0.8-0.1-1.2,0c-0.5,0.1-0.8,0.2-1,0.4c-0.1,0.1-0.2,0.2-0.3,0.4c-0.1,0.2-0.2,0.3-0.3,0.5l-0.7,1.1l3,1.8l0.5-0.8
		c0.1-0.2,0.2-0.4,0.3-0.6c0.1-0.2,0.1-0.4,0-0.6c0-0.1-0.1-0.3-0.3-0.5c-0.2-0.2-0.3-0.4-0.5-0.5l0.3-0.4l3.2,2l-0.3,0.4
		c-0.2-0.1-0.4-0.1-0.7-0.2c-0.3-0.1-0.5-0.1-0.6,0c-0.2,0-0.4,0.1-0.5,0.3c-0.2,0.1-0.3,0.3-0.4,0.5l-0.5,0.8l2.2,1.4
		c0.2,0.1,0.4,0.2,0.6,0.3c0.2,0.1,0.3,0,0.4,0c0.1,0,0.2-0.1,0.4-0.3c0.1-0.1,0.3-0.4,0.4-0.6c0.1-0.1,0.2-0.3,0.3-0.5
		c0.1-0.2,0.2-0.3,0.3-0.5c0.1-0.2,0.1-0.3,0.2-0.5c0-0.2,0.1-0.3,0-0.4c-0.1-0.3-0.2-0.6-0.5-1.1c-0.2-0.4-0.4-0.8-0.6-0.9l0.2-0.4
		l2.3,1.6l-4.5,7.2l-0.4-0.3c0.1-0.1,0.1-0.3,0.2-0.4c0.1-0.2,0.1-0.3,0.2-0.4c0-0.2,0-0.3,0-0.4c-0.1-0.1-0.2-0.2-0.3-0.3l-5.5-3.3
		c-0.1-0.1-0.3-0.1-0.4-0.1c-0.1,0-0.2,0-0.4,0.1c-0.1,0.1-0.2,0.2-0.4,0.3c-0.1,0.1-0.2,0.3-0.3,0.3l-0.4-0.3l4.2-6.9L150.6,131.6z
		 M144.2,138.4c-0.1,0.1-0.2,0.2-0.2,0.3c-0.1,0.1-0.1,0.3-0.2,0.4c-0.1,0.2-0.1,0.4-0.1,0.5c0,0.2,0.1,0.3,0.1,0.6
		c0.1,0.3,0.3,0.7,0.5,1.3c0.2,0.6,0.5,1.2,0.8,1.9c0.3,0.7,0.6,1.4,0.9,2.1c0.3,0.8,0.6,1.5,0.9,2.2l-0.9,0.9
		c-1.5-0.6-2.9-1.3-4.4-1.9c-1.5-0.6-2.6-1.1-3.1-1.3c-0.2-0.1-0.4-0.1-0.5-0.1c-0.1,0-0.3,0-0.5,0.1c-0.2,0-0.3,0.1-0.4,0.1
		c-0.1,0.1-0.2,0.1-0.4,0.2l-0.4-0.4l3.5-3.4l0.3,0.3c-0.3,0.4-0.5,0.6-0.5,0.8c-0.1,0.2-0.1,0.3,0,0.3c0,0,0.1,0.1,0.1,0.1
		c0,0,0.1,0.1,0.2,0.1c0.4,0.2,1,0.4,1.8,0.8c0.9,0.4,2.1,0.9,3.9,1.7c-0.4-1.1-0.8-1.9-1.1-2.7c-0.3-0.7-0.6-1.4-0.8-1.9
		c-0.1-0.3-0.2-0.5-0.3-0.7c-0.1-0.2-0.2-0.4-0.3-0.5c-0.1-0.1-0.2-0.1-0.5,0c-0.2,0.1-0.5,0.3-0.9,0.6l-0.4-0.4l2.6-2.6
		L144.2,138.4z M140.4,153.9l-4.1,2.8l-0.3-0.4c0.1-0.1,0.2-0.2,0.4-0.3c0.2-0.1,0.3-0.2,0.3-0.3c0.1-0.1,0.1-0.3,0.1-0.4
		c0-0.1-0.1-0.2-0.2-0.4l-3.7-5.3c-0.1-0.1-0.2-0.2-0.3-0.3c-0.1-0.1-0.2-0.1-0.4,0c-0.1,0-0.3,0.1-0.4,0.1
		c-0.2,0.1-0.4,0.1-0.5,0.2l-0.3-0.4l4.1-2.8l0.3,0.4c-0.1,0.1-0.2,0.2-0.4,0.3c-0.1,0.1-0.3,0.2-0.3,0.4c-0.1,0.1-0.1,0.3-0.1,0.4
		c0,0.1,0.1,0.3,0.2,0.4l3.7,5.3c0.1,0.1,0.2,0.2,0.3,0.3c0.1,0.1,0.3,0.1,0.4,0c0.1,0,0.2-0.1,0.4-0.2c0.2-0.1,0.3-0.2,0.5-0.2
		L140.4,153.9z M130,150.6c-0.1,0.1-0.2,0.2-0.4,0.3c-0.2,0.1-0.3,0.3-0.4,0.5c-0.1,0.2-0.1,0.4-0.1,0.7c0.1,0.3,0.2,0.7,0.4,1.2
		l2.7,5.9l-1.1,0.5l-8.1-4l1.8,3.9c0.2,0.5,0.4,0.8,0.6,1c0.2,0.2,0.4,0.4,0.6,0.4c0.1,0,0.3,0,0.6,0c0.3,0,0.5-0.1,0.6-0.1l0.2,0.5
		l-3.6,1.6l-0.2-0.5c0.1-0.1,0.3-0.2,0.5-0.3c0.2-0.1,0.3-0.3,0.4-0.4c0.1-0.2,0.1-0.4,0.1-0.7c0-0.3-0.2-0.6-0.4-1.2l-1.8-3.9
		c-0.1-0.2-0.2-0.4-0.3-0.5c-0.1-0.1-0.3-0.3-0.5-0.3c-0.2-0.1-0.4-0.1-0.6-0.1c-0.2,0-0.4,0-0.7,0.1l-0.2-0.5l3.1-1.4l7.1,3.5
		l-1.5-3.1c-0.2-0.5-0.4-0.8-0.6-1.1c-0.2-0.2-0.4-0.3-0.6-0.4c-0.2,0-0.4,0-0.6,0c-0.2,0-0.4,0.1-0.6,0.1l-0.2-0.4l3.6-1.6
		L130,150.6z M118.5,155.6c-0.1,0-0.3,0.1-0.5,0.2c-0.2,0.1-0.4,0.2-0.5,0.3c-0.1,0.1-0.2,0.3-0.2,0.6c0,0.3,0,0.7,0.1,1.2l0.6,3.3
		c0.2,1,0,1.8-0.5,2.5c-0.5,0.7-1.4,1.2-2.5,1.4c-1.3,0.2-2.3,0.2-3.1-0.3c-0.8-0.4-1.3-1.2-1.5-2.2l-0.9-4.5c0-0.1-0.1-0.3-0.2-0.4
		c-0.1-0.1-0.2-0.2-0.4-0.2c-0.1,0-0.3-0.1-0.4-0.1c-0.2,0-0.3,0-0.4,0l-0.1-0.5l4.7-0.9l0.1,0.5c-0.1,0-0.3,0.1-0.4,0.1
		c-0.1,0.1-0.3,0.1-0.4,0.2c-0.2,0.1-0.2,0.2-0.3,0.3c0,0.1,0,0.3,0,0.4l0.9,4.5c0.2,0.9,0.5,1.5,1,1.8c0.5,0.3,1.1,0.4,1.8,0.3
		c0.7-0.1,1.3-0.5,1.6-1c0.3-0.5,0.4-1.2,0.2-2.1l-0.6-3c-0.1-0.5-0.2-0.9-0.3-1.2c-0.1-0.2-0.3-0.4-0.5-0.5
		c-0.1-0.1-0.3-0.1-0.6-0.1c-0.3,0-0.5,0-0.6,0l-0.1-0.5l3.9-0.8L118.5,155.6z M150.9,84.4c0.1,0.1,0.1,0.3,0.2,0.4
		c0.1,0.1,0.2,0.2,0.3,0.3c0.2,0.1,0.3,0.3,0.5,0.3c0.2,0.1,0.4,0.2,0.6,0.2c0.5,0.1,1,0.3,1.5,0.4c0.6,0.1,1.2,0.3,1.8,0.4
		c0.4,0.1,0.7,0.1,0.9,0.1c0.2,0,0.5-0.1,1-0.3l1.2-0.4c0.1,0,0.3-0.1,0.4-0.2c0.1-0.1,0.1-0.2,0.2-0.4c0-0.1,0-0.2,0-0.5
		c0-0.2-0.1-0.4-0.1-0.5l0.5-0.2l1.6,4.8l-0.5,0.2c0-0.1-0.1-0.3-0.2-0.5c-0.1-0.2-0.2-0.3-0.2-0.4c-0.1-0.1-0.2-0.2-0.4-0.2
		c-0.1,0-0.3,0-0.4,0.1l-1.5,0.5c-0.1,0-0.3,0.1-0.4,0.1c-0.1,0-0.2,0.1-0.2,0.1c-0.1,0.1-0.2,0.1-0.2,0.2c-0.1,0.1-0.2,0.3-0.4,0.4
		c-0.4,0.5-0.9,1-1.2,1.4c-0.4,0.5-0.8,0.9-1.1,1.3c-0.2,0.2-0.3,0.4-0.4,0.6c-0.1,0.2-0.1,0.4-0.2,0.5c0,0.1,0,0.3,0,0.4
		c0,0.2,0,0.3,0.1,0.4l-0.5,0.2l-1.7-4.9l0.5-0.2c0.2,0.4,0.3,0.7,0.4,0.9c0.1,0.1,0.2,0.2,0.3,0.2c0,0,0.1-0.1,0.2-0.2
		c0.1-0.1,0.3-0.3,0.5-0.5c0.2-0.2,0.5-0.6,0.9-1c0.4-0.4,0.8-0.9,1.3-1.5c-1.5-0.3-2.5-0.6-3.1-0.7c-0.6-0.1-0.9-0.2-1-0.1
		c-0.1,0-0.2,0.2-0.2,0.4c0,0.2,0,0.5,0.1,0.9l-0.5,0.2l-1.1-3.2L150.9,84.4z"/>
	<path class="st2" d="M42.6,105.8l0.4-4.9l0.5,0c0,0.1,0,0.3,0,0.5c0,0.2,0,0.3,0,0.4c0.1,0.2,0.1,0.3,0.2,0.3
		c0.1,0.1,0.2,0.1,0.4,0.1l3.1,0.2l0.3-3.9l-3.1-0.2c-0.1,0-0.3,0-0.4,0.1c-0.1,0.1-0.2,0.2-0.3,0.3c0,0.1-0.1,0.2-0.1,0.4
		c-0.1,0.2-0.1,0.4-0.1,0.5l-0.5,0l0.4-4.9l0.5,0c0,0.1,0,0.3,0,0.5c0,0.2,0,0.4,0.1,0.5c0,0.2,0.1,0.3,0.2,0.3
		c0.1,0.1,0.2,0.1,0.4,0.1l6.4,0.5c0.2,0,0.3,0,0.4-0.1c0.1,0,0.2-0.1,0.3-0.3c0.1-0.1,0.1-0.3,0.2-0.5c0.1-0.2,0.1-0.3,0.1-0.4
		l0.5,0l-0.4,4.9l-0.5,0c0-0.1,0-0.3,0-0.5c0-0.2,0-0.3-0.1-0.4c0-0.2-0.1-0.3-0.2-0.3C51.2,99,51,99,50.9,98.9l-2.7-0.2l-0.3,3.9
		l2.6,0.2c0.1,0,0.3,0,0.4-0.1c0.1-0.1,0.2-0.2,0.3-0.3c0.1-0.1,0.1-0.3,0.2-0.4c0.1-0.2,0.1-0.3,0.1-0.4l0.5,0l-0.4,4.9l-0.5,0
		c0-0.1,0-0.3,0-0.5c0-0.2,0-0.3-0.1-0.5c0-0.2-0.1-0.3-0.2-0.3c-0.1-0.1-0.2-0.1-0.4-0.1l-6.4-0.5c-0.2,0-0.3,0-0.4,0.1
		c-0.1,0-0.2,0.1-0.3,0.3c0,0.1-0.1,0.2-0.1,0.4c0,0.2-0.1,0.3-0.1,0.5L42.6,105.8z M98.5,162.5c-0.1,0-0.3,0-0.4,0
		c-0.1,0-0.2,0-0.4,0c-0.2,0-0.3,0.1-0.4,0.2c-0.1,0.1-0.1,0.2-0.2,0.4l-0.2,1c0,0.2-0.1,0.4-0.1,0.5c0,0.1,0,0.3-0.1,0.5
		c-0.5,0.2-1.1,0.3-2,0.4c-0.9,0.1-1.6,0-2.3-0.1c-0.6-0.1-1.2-0.3-1.8-0.6c-0.5-0.3-1-0.7-1.3-1.2c-0.4-0.5-0.6-1-0.7-1.6
		c-0.1-0.6-0.1-1.3,0-2.1c0.1-0.7,0.4-1.3,0.7-1.9c0.3-0.5,0.8-1,1.3-1.3c0.5-0.3,1.1-0.6,1.7-0.7c0.7-0.1,1.4-0.1,2.1,0
		c0.5,0.1,1,0.2,1.4,0.4c0.4,0.2,0.7,0.4,1,0.6l0.5-0.3l0.5,0.1l-0.5,3.3l-0.6-0.1c-0.1-1-0.4-1.8-0.8-2.4c-0.4-0.6-0.9-0.9-1.6-1
		c-0.8-0.1-1.5,0.1-2.1,0.7c-0.6,0.6-1,1.6-1.2,2.8c-0.2,1.3-0.2,2.4,0.1,3.2c0.3,0.8,0.8,1.3,1.6,1.4c0.4,0.1,0.7,0.1,1,0
		c0.3-0.1,0.6-0.1,0.7-0.3l0.3-1.8c0-0.2,0-0.3,0-0.4c0-0.1-0.1-0.2-0.3-0.3c-0.1-0.1-0.3-0.2-0.4-0.2c-0.2-0.1-0.3-0.1-0.5-0.2
		l0.1-0.5l4.6,0.8L98.5,162.5z M88.2,155.7c-0.1,0-0.3-0.1-0.5-0.1c-0.2-0.1-0.4-0.1-0.7,0c-0.2,0-0.4,0.2-0.6,0.4
		c-0.2,0.2-0.4,0.6-0.6,1.1l-2.7,5.9l-1.1-0.5l-2.2-8.7l-1.8,3.9c-0.2,0.5-0.3,0.9-0.4,1.1c0,0.3,0,0.5,0.1,0.7
		c0.1,0.1,0.2,0.3,0.4,0.5c0.2,0.2,0.4,0.3,0.5,0.4l-0.2,0.5l-3.6-1.6l0.2-0.5c0.2,0.1,0.3,0.1,0.6,0.1c0.2,0,0.4,0,0.6,0
		c0.2,0,0.4-0.2,0.5-0.4c0.2-0.2,0.4-0.6,0.6-1.1l1.8-3.9c0.1-0.2,0.1-0.4,0.2-0.6c0-0.2,0-0.4-0.1-0.6c-0.1-0.2-0.2-0.4-0.3-0.5
		c-0.1-0.2-0.3-0.3-0.5-0.4l0.2-0.5l3.1,1.4l2,7.6l1.4-3.1c0.2-0.5,0.4-0.9,0.4-1.2c0-0.3,0-0.5-0.1-0.7c-0.1-0.1-0.2-0.3-0.4-0.5
		c-0.2-0.2-0.4-0.3-0.5-0.4l0.2-0.4l3.6,1.6L88.2,155.7z M72.1,157.5l-4.2-2.7l0.3-0.4c0.1,0.1,0.3,0.1,0.4,0.2
		c0.2,0.1,0.3,0.2,0.4,0.2c0.2,0,0.3,0,0.4,0c0.1-0.1,0.2-0.2,0.3-0.3l3.5-5.4c0.1-0.1,0.1-0.2,0.1-0.4c0-0.1,0-0.3-0.1-0.4
		c-0.1-0.1-0.2-0.2-0.3-0.4c-0.1-0.1-0.3-0.3-0.4-0.4l0.3-0.4l4.2,2.7l-0.3,0.4c-0.1-0.1-0.3-0.1-0.4-0.2c-0.2-0.1-0.3-0.1-0.5-0.2
		c-0.2,0-0.3,0-0.4,0c-0.1,0.1-0.2,0.2-0.3,0.3l-3.5,5.4c-0.1,0.1-0.1,0.3-0.1,0.4c0,0.1,0,0.3,0.1,0.4c0.1,0.1,0.2,0.2,0.3,0.3
		c0.2,0.1,0.3,0.3,0.4,0.3L72.1,157.5z M69.5,145.9c0,0.6,0,1.2-0.3,1.8c-0.2,0.6-0.6,1.2-1.1,1.7c-0.7,0.8-1.6,1.2-2.5,1.5
		c-0.9,0.2-1.9,0.1-2.8-0.3c-0.3,0.4-0.5,0.8-0.6,1.3c0,0.5,0.1,0.8,0.4,1.1c0.2,0.2,0.3,0.3,0.5,0.4c0.2,0.1,0.3,0.2,0.4,0.3
		l-0.4,0.4c-0.2-0.1-0.6-0.3-1-0.5c-0.4-0.3-0.8-0.6-1.2-0.9c-0.5-0.5-0.8-1.1-0.8-1.7c0-0.6,0.2-1.2,0.7-1.8
		c-0.4-0.5-0.7-1-0.9-1.5c-0.2-0.5-0.3-1.1-0.3-1.6c0-0.6,0.1-1.1,0.3-1.7c0.2-0.6,0.6-1.1,1-1.5c0.5-0.5,1.1-0.9,1.7-1.2
		c0.6-0.3,1.2-0.4,1.8-0.4c0.6,0,1.2,0.1,1.8,0.4c0.6,0.2,1.1,0.6,1.6,1.1c0.5,0.5,0.9,1,1.2,1.6C69.3,144.7,69.4,145.3,69.5,145.9
		 M63.8,149.4c0.4-0.1,0.8-0.4,1.2-0.7s0.8-0.7,1.3-1.1c0.4-0.4,0.7-0.8,1-1.2c0.3-0.4,0.5-0.8,0.6-1.2c0.1-0.4,0.2-0.8,0.1-1.2
		c-0.1-0.4-0.2-0.7-0.6-1c-0.6-0.5-1.2-0.7-2-0.4c-0.8,0.3-1.7,0.9-2.6,1.8c-0.4,0.4-0.7,0.8-1,1.3c-0.3,0.4-0.5,0.8-0.6,1.2
		c-0.1,0.4-0.2,0.8-0.1,1.1s0.3,0.7,0.6,1c0.3,0.3,0.6,0.5,1,0.5C63,149.6,63.4,149.6,63.8,149.4 M58.8,141.6
		c-0.1-0.1-0.2-0.2-0.2-0.3c-0.1-0.1-0.2-0.2-0.3-0.3c-0.1-0.1-0.3-0.2-0.4-0.1c-0.1,0-0.3,0.1-0.4,0.1l-0.9,0.6
		c-0.2,0.1-0.3,0.2-0.4,0.3s-0.2,0.2-0.4,0.3c-0.4-0.2-1-0.6-1.6-1.2c-0.6-0.6-1.1-1.2-1.5-1.7c-0.4-0.6-0.6-1.1-0.7-1.7
		c-0.1-0.6-0.2-1.2-0.1-1.8c0.1-0.6,0.3-1.1,0.7-1.7c0.4-0.5,0.9-1,1.5-1.4c0.6-0.4,1.2-0.6,1.8-0.8c0.6-0.1,1.3-0.1,1.9,0
		c0.6,0.1,1.2,0.4,1.7,0.8c0.5,0.4,1,0.9,1.4,1.6c0.3,0.4,0.5,0.9,0.6,1.3c0.1,0.4,0.2,0.8,0.2,1.1l0.5,0.1l0.3,0.5l-2.8,1.8
		l-0.3-0.5c0.7-0.8,1.1-1.5,1.2-2.2c0.2-0.6,0.1-1.2-0.3-1.8c-0.4-0.7-1.1-1-1.9-1c-0.8,0-1.8,0.4-2.9,1c-1.1,0.7-1.9,1.5-2.3,2.2
		c-0.4,0.8-0.4,1.5,0,2.2c0.2,0.3,0.4,0.6,0.7,0.8c0.3,0.2,0.5,0.3,0.7,0.4l1.6-1c0.1-0.1,0.2-0.2,0.3-0.3c0.1-0.1,0.1-0.2,0.1-0.4
		c0-0.1-0.1-0.3-0.1-0.5c-0.1-0.2-0.1-0.3-0.2-0.4l0.4-0.3l2.5,4L58.8,141.6z M56.7,129.1c-0.1-0.1-0.1-0.3-0.3-0.4
		c-0.1-0.2-0.3-0.4-0.5-0.5c-0.2-0.1-0.4-0.1-0.7-0.1c-0.3,0-0.7,0.2-1.2,0.4l-6.1,2.4l-0.4-1.1l4.5-7.8l-4,1.5
		c-0.5,0.2-0.9,0.4-1.1,0.5c-0.2,0.2-0.4,0.3-0.4,0.5c0,0.1-0.1,0.3,0,0.6c0,0.3,0.1,0.5,0.1,0.6l-0.5,0.2l-1.4-3.6l0.5-0.2
		c0.1,0.1,0.2,0.3,0.3,0.5c0.1,0.2,0.3,0.3,0.4,0.4c0.2,0.1,0.4,0.1,0.6,0.1c0.3,0,0.7-0.2,1.2-0.4l4-1.6c0.2-0.1,0.4-0.2,0.5-0.3
		c0.2-0.1,0.3-0.3,0.3-0.5c0.1-0.2,0.1-0.4,0.1-0.6c0-0.2,0-0.4-0.1-0.7l0.5-0.2l1.3,3.2l-3.9,6.8l3.2-1.3c0.5-0.2,0.9-0.4,1.1-0.5
		c0.2-0.2,0.4-0.3,0.4-0.5c0-0.2,0.1-0.4,0-0.6c0-0.3,0-0.5-0.1-0.6l0.5-0.2l1.4,3.6L56.7,129.1z M51.8,116.6
		c-0.4,0.5-0.8,0.9-1.3,1.2s-1.2,0.5-1.9,0.6c-0.7,0.1-1.3,0-1.9-0.1c-0.6-0.1-1.2-0.4-1.7-0.8c-0.5-0.4-0.9-0.8-1.2-1.4
		c-0.3-0.6-0.5-1.2-0.6-2c-0.1-0.7-0.1-1.3,0.1-1.9c0.1-0.6,0.4-1.2,0.8-1.7c0.3-0.5,0.8-0.9,1.3-1.2c0.5-0.3,1.2-0.5,1.9-0.6
		c0.7-0.1,1.4-0.1,2.1,0.1c0.6,0.2,1.2,0.5,1.7,0.8c0.5,0.4,0.9,0.9,1.2,1.4c0.3,0.6,0.5,1.2,0.6,1.9c0.1,0.7,0.1,1.3-0.1,1.9
		C52.4,115.6,52.1,116.2,51.8,116.6 M45.1,115.8c0.4,0.1,0.9,0.2,1.4,0.2c0.5,0,1.1,0,1.7-0.1c0.5-0.1,1-0.2,1.5-0.3
		c0.5-0.1,0.9-0.3,1.3-0.5c0.4-0.2,0.6-0.5,0.8-0.8c0.2-0.3,0.3-0.7,0.2-1.2c-0.1-0.8-0.5-1.3-1.3-1.6c-0.8-0.3-1.8-0.4-3.2-0.2
		c-0.6,0.1-1.1,0.2-1.6,0.3c-0.5,0.1-0.9,0.3-1.3,0.6c-0.4,0.2-0.6,0.5-0.8,0.8c-0.2,0.3-0.2,0.7-0.2,1.1c0.1,0.4,0.2,0.8,0.5,1
		C44.4,115.5,44.7,115.7,45.1,115.8 M45.3,87.7c0.2-0.6,0.5-1.2,0.9-1.7c0.4-0.5,0.8-0.9,1.4-1.1c0.5-0.3,1.1-0.4,1.7-0.5
		c0.6,0,1.3,0.1,2,0.3c0.7,0.2,1.3,0.5,1.7,1c0.5,0.4,0.9,0.9,1.2,1.5c0.3,0.5,0.4,1.1,0.4,1.8c0,0.7-0.1,1.3-0.3,2
		c-0.2,0.5-0.4,0.9-0.6,1.2c-0.2,0.4-0.5,0.6-0.7,0.9l0.2,0.5L53,94l-3.2-1l0.2-0.5c1.1,0,1.9-0.1,2.5-0.4c0.6-0.3,1-0.7,1.2-1.3
		c0.3-0.8,0.1-1.4-0.4-2.1c-0.5-0.6-1.4-1.1-2.6-1.5c-0.7-0.2-1.3-0.4-1.8-0.4c-0.5,0-1,0-1.4,0.1c-0.4,0.1-0.7,0.3-1,0.6
		c-0.3,0.3-0.4,0.6-0.6,1c-0.2,0.6-0.2,1.1,0,1.7c0.2,0.5,0.5,1.1,1,1.7l-0.5,0.4c-0.3-0.3-0.6-0.6-0.8-0.9c-0.2-0.3-0.4-0.7-0.5-1
		C45,90,45,89.6,45,89.1C45,88.7,45.1,88.2,45.3,87.7"/>
	<path class="st1" d="M413.7,148l-2.7,0.7c-0.7-1.9-2-2.9-3.9-2.9c-2.9,0.1-4.4,2-4.6,5.7c0.1,3.7,1.5,5.6,4.4,5.7
		c2.3,0,3.7-1.2,4.3-3.6l2.7,0.7c-0.9,3.4-3.2,5.1-6.9,5.1c-4.7-0.1-7.1-2.7-7.2-7.8c0.1-5.2,2.6-7.8,7.4-8
		C410.4,143.6,412.5,145.1,413.7,148"/>
	<path class="st1" d="M425.8,152v7.2h-2.4v-6.9c0-1.7-0.7-2.5-2.1-2.5c-1.7,0.1-2.6,1-2.7,2.6v6.9h-2.4v-15.3h2.4v5.3
		c0.6-1,1.6-1.6,3.1-1.6C424.5,147.6,425.9,149,425.8,152"/>
	<path class="st1" d="M433.6,147.6c3.4,0.1,5.2,2.1,5.3,5.9c0,3.8-1.9,5.8-5.5,5.9c-3.4-0.2-5.3-2.1-5.5-5.7
		C428,149.7,429.9,147.7,433.6,147.6 M433.4,157.5c1.9-0.1,2.8-1.4,2.9-3.9c-0.1-2.6-1-3.9-2.9-3.9c-2,0-3,1.4-3,4
		C430.5,156.1,431.5,157.4,433.4,157.5"/>
	<path class="st1" d="M450.7,152v7.2h-2.4v-6.9c0-1.7-0.7-2.5-2-2.5c-1.8,0.1-2.7,1-2.9,2.6v6.9H441v-11.3h2.4v1.4
		c0.7-1.1,1.7-1.6,3.2-1.6C449.4,147.5,450.8,149,450.7,152"/>
	<path class="st1" d="M460.8,147.9h2.4v9.6c0.1,3.5-1.7,5.3-5.5,5.2c-1.9,0-3.3-0.5-4.4-1.6l1.3-1.4c0.9,0.6,1.9,0.9,3,1
		c2.3,0.1,3.3-0.9,3.2-2.9c-0.6,0.8-1.7,1.3-3.2,1.3c-3-0.1-4.6-2-4.8-5.5c0.1-3.7,1.8-5.6,5-5.8c1.5,0.1,2.5,0.6,3,1.6V147.9z
		 M460.8,153.9v-1.6c-0.1-1.6-1-2.5-2.6-2.6c-2,0-3,1.3-3,3.7c0.1,2.3,1,3.4,2.8,3.5C459.9,157,460.8,156,460.8,153.9"/>
	<path class="st1" d="M473,147.8h2.4v15H473V158c-0.6,0.9-1.6,1.4-2.9,1.4c-3.3,0.1-4.9-1.9-4.9-5.9c0.1-3.8,1.6-5.8,4.6-5.9
		c1.5,0,2.6,0.6,3.1,1.6V147.8z M473,154.5v-1.5c0-2.2-0.9-3.2-2.7-3.2c-1.8,0-2.7,1.3-2.7,3.8c-0.1,2.7,0.8,4,2.7,3.9
		C472.1,157.4,473,156.4,473,154.5"/>
	<path class="st1" d="M478.4,143.8h2.4v2.7h-2.4V143.8z M478.4,147.8h2.4v11.3h-2.4V147.8z"/>
	<path class="st1" d="M493.2,152v7.2h-2.4v-6.9c0-1.7-0.7-2.5-2-2.5c-1.8,0.1-2.7,1-2.9,2.6v6.9h-2.4v-11.3h2.4v1.4
		c0.7-1.1,1.7-1.6,3.2-1.6C491.9,147.5,493.3,149,493.2,152"/>
	<path class="st1" d="M503.3,147.9h2.4v9.6c0.1,3.5-1.7,5.3-5.5,5.2c-1.9,0-3.3-0.5-4.4-1.6l1.3-1.4c0.9,0.6,1.9,0.9,3,1
		c2.3,0.1,3.3-0.9,3.2-2.9c-0.6,0.8-1.7,1.3-3.2,1.3c-3-0.1-4.6-2-4.8-5.5c0.1-3.7,1.8-5.6,5-5.8c1.5,0.1,2.5,0.6,3,1.6V147.9z
		 M503.3,153.9v-1.6c-0.1-1.6-1-2.5-2.6-2.6c-2,0-3,1.3-3,3.7c0.1,2.3,1,3.4,2.8,3.5C502.3,157,503.3,156,503.3,153.9"/>
	<path class="st1" d="M529.2,143.8h2.5v8.8c0.1,4.6-2,6.8-6.4,6.6c-4.2,0.1-6.3-2.1-6.2-6.6v-8.8h2.5v8.8c-0.1,3.1,1.2,4.6,3.7,4.5
		c2.7,0.1,4-1.4,3.9-4.5V143.8z"/>
	<path class="st1" d="M544.4,152v7.2H542v-6.9c0-1.7-0.7-2.5-2-2.5c-1.8,0.1-2.7,1-2.9,2.6v6.9h-2.4v-11.3h2.4v1.4
		c0.7-1.1,1.7-1.6,3.2-1.6C543.1,147.5,544.5,149,544.4,152"/>
	<path class="st1" d="M547.2,143.8h2.4v2.7h-2.4V143.8z M547.2,147.8h2.4v11.3h-2.4V147.8z"/>
	<path class="st1" d="M559.7,147.8h2.7l-4.6,11.3h-2.2l-4.3-11.3h2.7c1.2,3.7,2,6.3,2.5,7.7c0.1,0.4,0.2,0.8,0.2,1.2h0.1
		c0-0.1,0-0.1,0.1-0.3c0.1-0.4,0.2-0.7,0.2-0.9C557.5,154.1,558.4,151.5,559.7,147.8"/>
	<path class="st1" d="M571.7,155.3l2.5,0.7c-0.7,2.3-2.4,3.4-5.2,3.4c-3.6-0.1-5.5-2.1-5.6-5.8c0.1-3.8,2-5.8,5.5-6
		c3.5,0.1,5.3,2.1,5.4,6.1v0.7h-8.3c0.2,1.9,1.2,2.9,2.9,3C570.4,157.5,571.3,156.8,571.7,155.3 M568.9,149.8
		c-1.6,0.1-2.6,1-2.8,2.5h5.5C571.4,150.7,570.5,149.9,568.9,149.8"/>
	<path class="st1" d="M583.3,148.3l-1,2.1c-0.4-0.3-0.9-0.5-1.5-0.5c-1.3,0-2,1-1.9,3.1v6h-2.4v-11.3h2.4v1.6
		c0.4-1.1,1.1-1.7,2.2-1.8C582,147.6,582.8,147.9,583.3,148.3"/>
	<path class="st1" d="M593.4,150.7l-2.4,0.6c-0.2-1.1-0.9-1.6-2.1-1.5c-1.2,0-1.9,0.4-1.9,1.2c-0.1,0.7,0.8,1.2,2.6,1.5
		c3,0.4,4.4,1.6,4.4,3.5c-0.1,2.2-1.7,3.3-4.9,3.4c-2.7,0-4.3-1.1-4.9-3.3l2.4-0.7c0.3,1.4,1.2,2.1,2.6,2.1c1.6,0,2.4-0.5,2.4-1.4
		c0.1-0.7-0.7-1.2-2.4-1.5c-3.2-0.5-4.7-1.7-4.6-3.6c0.1-2.1,1.6-3.2,4.3-3.3C591.4,147.7,592.9,148.7,593.4,150.7"/>
	<path class="st1" d="M596.4,143.8h2.4v2.7h-2.4V143.8z M596.4,147.8h2.4v11.3h-2.4V147.8z"/>
	<path class="st1" d="M606.2,157.3l0.4,1.5c-0.7,0.2-1.4,0.4-2.1,0.4c-1.8,0-2.7-0.9-2.7-2.7v-6.8h-1.6v-2h1.6V145l2.4-1.2l0.1,4h2
		l-0.1,2h-1.9v6.7c-0.1,0.7,0.2,1.1,0.7,1C605.4,157.5,605.8,157.4,606.2,157.3"/>
	<path class="st1" d="M607,147.8h2.7c1.2,3.2,2.1,5.6,2.6,6.9c0,0.1,0,0.2,0.1,0.4c0.1,0.3,0.2,0.6,0.2,0.7c0.1-0.4,0.2-0.8,0.4-1.3
		c0.5-1.4,1.4-3.7,2.6-6.9h2.7l-4.9,11.4c-0.7,2.4-2,3.5-3.8,3.2c-0.7-0.1-1.4-0.2-2.1-0.5l0.5-1.7c0.4,0.1,0.9,0.2,1.3,0.2
		c0.7,0.1,1.2-0.3,1.5-1.2l0.6-1L607,147.8z"/>
	<line class="st1" x1="200.6" y1="32.6" x2="200.6" y2="178.5"/>
</g>
</svg>
